<ttFont>
          <CharString index="0">
            100 -60 128 122 hhcurveto
            69 14 -45 -39 12 -36 callgsubr
            7 -19 2 -7 4 -9 6 -5 rlinecurve
            277 6 rlineto
            2 3 -1 2 hhcurveto
            8 hlineto
            10 9 1 7 2 hvcurveto
            -12 51 -21 71 -21 44 rrcurveto
            128 -78 -160 75 -143 hhcurveto
            -142 -150 -52 -114 -72 hvcurveto
            -36 -57 -21 -75 -15 -67 11 -16 rcurveline
            20 -47 rmoveto
            -3 32 rlineto
            -4 -15 1 -1 hhcurveto
            -4 -17 rlineto
            endchar
          </CharString>
          <CharString index="1">
            -107 callgsubr
            rlineto
            return
          </CharString>
          <CharString index="2">
            hintmask 10110000
            -98 callgsubr
            hintmask 01110000
            -102 callsubr
            return
          </CharString>
          <CharString index="3">
            1488 rmoveto
            7 hlineto
            -1 10 -1 5 -1 2 rrcurveto
            -5 -50 -50 -1 -56 hhcurveto
            -156 -136 4 9 -148 hvcurveto
            -3 -4 -2 2 callsubr
            -24 1 -25 3 -23 vhcurveto
            -33 vlineto
            -41 1 -44 2 -42 vhcurveto
            -8 -295 -4 -294 -288 vvcurveto
            -13 -95 4 -91 -2 -96 -3 -110 rcurveline
            -8 -1 -3 -6 vvcurveto
            8 -5 10 -6 8 -4 rrcurveto
            181 184 9 195 hhcurveto
            34 hlineto
            7 3 8 7 3 7 -4 144 rcurveline
            -1 46 -3 53 48 vvcurveto
            5 -1 4 -2 4 40 callgsubr
            -2 4 -1 5 6 273 -7 262 279 vvcurveto
            58 vlineto
            return
          </CharString>
          <CharString index="4">
            hstemhm
            hintmask 01110000
            -90 callsubr
            hintmask 10110000
            -101 callsubr
            return
          </CharString>
          <CharString index="5">
            9 8 1 11 hhcurveto
            30 hlineto
            87 86 6 87 hhcurveto
            58 hlineto
            8 0 callgsubr
            43 43 1 9 9 hvcurveto
            18 74 22 80 19 74 428 4 rcurveline
            13 -32 28 -102 6 -65 5 -21 rcurveline
            2 -6 2 -5 3 -1 rrcurveto
            -2 hlineto
            -6 82 78 -1 83 32 33 1 32 hhcurveto
            61 hlineto
            21 20 1 21 hhcurveto
            -684 1170 rmoveto
            18 -89 22 -88 20 -88 38 -171 rcurveline
            8 -56 15 -119 0 vvcurveto
            0 -145 -1 -94 vhcurveto
            -16 -14 1 -11 hhcurveto
            -59 hlineto
            11 66 39 173 93 422 29 -41 callgsubr
            return
          </CharString>
          <CharString index="6">
            3 125 137 4 128 111 110 -3 111 hhcurveto
            17 3 5 11 15 vvcurveto
            31 -1 28 -1 27 -11 callgsubr
            -6 52 1 68 67 vvcurveto
            25 0 23 1 26 vhcurveto
            10 -9 -25 3 -23 -182 -175 -17 -186 hhcurveto
            242 47 vlineto
            161 163 7 8 162 10 callgsubr
            1 1 rlineto
            94 -5 60 103 vvcurveto
            24 vlineto
            2 1 -31 callsubr
            24 -27 0 -72 vhcurveto
            -16 hlineto
            -39 -37 -1 -1 -40 hvcurveto
            -310 -7 1 50 1 45 5 37 rlinecurve
            5 38 1 19 4 28 1 18 rlinecurve
            -5 164 176 -3 164 hhcurveto
            7 hlineto
            29 25 0 16 5 hvcurveto
            2 23 -1 22 1 22 rrcurveto
            return
          </CharString>
          <CharString index="7">
            587 -25 rmoveto
            15 12 100 79 hvcurveto
            -63 callgsubr
            27 vlineto
            -1 67 -2 53 -5 55 -4 42 rcurveline
            -8 81 -2 94 95 23 0 22 22 3 0 -31 callsubr
            -1 13 2 12 13 vvcurveto
            -1 63 rlineto
            4 -23 callsubr
            vhcurveto
            -26 callsubr
            -265 4 rlineto
            -8 -8 -1 -9 hhcurveto
            -68 hlineto
            -7 -17 callgsubr
            -130 -1 rlineto
            -28 vlineto
            -135 -8 -148 -128 vvcurveto
            -3 -214 rlineto
            -3 -52 callsubr
            -7 -6 4 callsubr
            19 -16 rlineto
            -1 56 59 -1 57 hhcurveto
            12 1 14 3 13 2 rrcurveto
            return
          </CharString>
          <CharString index="8">
            1542 122 rmoveto
            -10 51 -25 180 23 304 -295 93 rlinecurve
            178 85 108 111 173 vvcurveto
            238 -157 138 -299 8 vhcurveto
            3 -62 -61 1 -62 -107 -107 -3 -107 hhcurveto
            -138 -2 rlineto
            -42 -44 1 -41 hhcurveto
            -61 hlineto
            -24 -24 1 -16 hhcurveto
            -32 -25 -1 -7 hvcurveto
            -108 -4 -106 -105 -79 3 -74 -74 -13 -1 -10 -11 vvcurveto
            -1 -259 rlineto
            -26 -1 -25 -24 vvcurveto
            -73 vlineto
            -139 -4 -138 -138 -10 1 -10 -10 vvcurveto
            -2 -90 rlineto
            -2 3 1 -1 2 hhcurveto
            0 19 callsubr
            2 -1 -1 3 vhcurveto
            192 3 191 -5 192 7 7 1 6 5 2 6 rrcurveto
            183 vlineto
            11 -1 11 10 vvcurveto
            304 53 vlineto
            4 5 1 4 hhcurveto
            110 42 -35 -151 6 hvcurveto
            5 -43 rlineto
            -111 13 28 -184 25 hhcurveto
            6 hlineto
            -3 65 59 -2 66 hhcurveto
            128 117 3 8 124 hvcurveto
            4 3 -12 40 -8 45 -8 45 rlinecurve
            34 -127 rmoveto
            -3 27 callgsubr
            hvcurveto
            -2 vlineto
            0 vmoveto
            -1 hlineto
            -8 callsubr
            vhcurveto
            -642 1187 rmoveto
            49 -23 40 -36 -72 vvcurveto
            -178 -177 -35 -136 -3 vhcurveto
            -5 52 0 120 83 vvcurveto
            62 1 41 10 15 vhcurveto
            58 hlineto
            54 55 -4 -22 51 hvcurveto
            return
          </CharString>
          <CharString index="9">
            -20 -97 callgsubr
            return
          </CharString>
          <CharString index="10">
            833 1178 rmoveto
            194 21 -231 -159 -30 callgsubr
            hvcurveto
            -164 8 -33 211 153 -71 callgsubr
            627 -948 -45 callsubr
            83 -12 116 -26 82 vhcurveto
            -30 104 -51 78 -72 90 rrcurveto
            174 -131 -272 49 -157 -79 callsubr
            251 -163 vhcurveto
            -91 139 153 -29 177 -48 callsubr
            return
          </CharString>
          <CharString index="11">
            -1 4 -17 callsubr
            160 300 75 175 111 -36 callgsubr
            41 70 23 73 8 81 rrcurveto
            -369 hlineto
            -42 -44 3 -42 hhcurveto
            -34 -32 0 -10 -36 hvcurveto
            -2 -10 -12 -61 -16 -82 -77 -16 rlinecurve
            -21 6 -15 7 -16 17 -11 21 -23 callgsubr
            -26 48 -17 22 106 vvcurveto
            18 -1 19 -5 19 vhcurveto
            33 824 vlineto
            -1 24 0 31 10 vvcurveto
            -574 67 rmoveto
            -130 hlineto
            -31 -55 -2 -2 -32 hvcurveto
            106 11 44 144 79 hhcurveto
            95 25 -147 -86 15 hvcurveto
            return
          </CharString>
          <CharString index="12">
            -13 callsubr
            -101 callgsubr
            return
          </CharString>
          <CharString index="13">
            -24 42 callsubr
            1 -4 -5 -32 -7 -9 hhcurveto
            -33 -3 -78 -7 -72 -4 -74 -18 rlinecurve
            -173 -42 -53 -118 -138 vvcurveto
            -233 207 -130 215 43 52 14 5 36 vhcurveto
            15 2 67 9 75 38 68 33 rlinecurve
            21 54 62 34 16 hvcurveto
            18 -64 25 -66 18 -34 rrcurveto
            1 21 19 0 21 13 11 -1 12 hhcurveto
            452 hlineto
            -10 22 rlineto
            return
          </CharString>
          <CharString index="14">
            -60 -3 -198 -7 -281 -73 -87 -212 rlinecurve
            1 vlineto
            -18 -49 -13 -45 -4 -59 rrcurveto
            516 hlineto
            31 13 -2 -1 12 hvcurveto
            4 -1 rlineto
            2 1 1 4 7 hvcurveto
            2 3 rlineto
            47 6 116 90 vhcurveto
            5 hlineto
            53 43 -50 -51 -10 1 -9 5 -8 hvcurveto
            -138 -88 -11 -92 -6 vhcurveto
            -54 -7 rlineto
            -4 -15 -22 -1 -16 hhcurveto
            return
          </CharString>
          <CharString index="15">
            -77 callgsubr
            -93 callgsubr
            return
          </CharString>
          <CharString index="16">
            rmoveto
            19 63 11 32 10 31 9 31 rlinecurve
            17 56 25 82 27 79 27 81 rlinecurve
            4 vlineto
            9 -67 callsubr
            -23 0 -2 -17 hvcurveto
            -31 -22 -95 -487 -33 -137 19 -20 rcurveline
            -34 callgsubr
            93 95 4 13 16 hvcurveto
            2 4 21 58 23 62 18 60 rlinecurve
            endchar
          </CharString>
          <CharString index="17">
            1267 1224 rmoveto
            282 vlineto
            -1 2 -3 3 -2 1 -357 -1 -435 -7 -353 -6 rrcurveto
            2 -4 -2 1 -1 hhcurveto
            -1 -14 6 -173 -76 vvcurveto
            -1 -145 rlineto
            -333 -6 -369 -367 vvcurveto
            -35 vlineto
            5 -5 10 -9 4 -5 4 callgsubr
            3 -2 86 1 86 3 86 2 rlinecurve
            164 4 rlineto
            return
          </CharString>
          <CharString index="18">
            2 -23 -22 2 -22 hhcurveto
            -33 -42 -3 -6 -37 hvcurveto
            -14 -4 1 1 -19 -8 -34 -7 -23 -4 rlinecurve
            -24 -7 -16 callgsubr
            -278 -83 -187 -214 -287 vvcurveto
            -15 20 callgsubr
            27 callsubr
            -8 0 -9 2 -9 vhcurveto
            -1 -5 -1 -8 -6 vvcurveto
            -29 13 -34 6 -44 vhcurveto
            40 -197 155 -157 199 -58 return
          </CharString>
          <CharString index="19">
            33 callsubr
            -100 callsubr
            return
          </CharString>
          <CharString index="20">
            289 -54 318 -424 56 vhcurveto
            -16 2 -15 -2 -14 2 -29 4 rcurveline
            3 -21 -23 4 -19 -12 -17 -2 -16 hhcurveto
            -13 hlineto
            2 -4 -4 1 -4 -95 callsubr
            return
          </CharString>
          <CharString index="21">
            -19 56 -10 59 65 vvcurveto
            -586 131 rmoveto
            -36 -21 -45 -18 -30 hhcurveto
            -63 -42 61 67 113 114 -2 83 45 hvcurveto
            8 -46 0 -25 -25 -10 -1 -11 -11 vvcurveto
            -30 vlineto
            -23 -1 -19 -20 vvcurveto
            return
          </CharString>
          <CharString index="22">
            47 49 -1 -1 47 hvcurveto
            24 3 2 14 28 vvcurveto
            40 -1 48 -1 43 vhcurveto
            46 36 callsubr
            5 hhcurveto
            41 hlineto
            22 3 21 66 hvcurveto
            78 -5 74 19 vvcurveto
            -725 7 rmoveto
            0 -7 12 -3 5 -11 callgsubr
            -7 17 rlineto
            0 -2 3 1 vvcurveto
            114 204 11 20 13 23 12 21 rlinecurve
            53 93 -1 -1 2 4 6 5 7 4 rlinecurve
            26 -6 4 -111 -92 -48 -2 -44 -18 vvcurveto
            -49 vlineto
            -4 1 -6 -4 vvcurveto
            -3 -10 -7 -9 -11 -6 rrcurveto
            -67 -65 -3 -62 hhcurveto
            endchar
          </CharString>
          <CharString index="23">
            -81 callsubr
            hintmask 10001100
            -102 callgsubr
            hintmask 10010100
            -91 callgsubr
          </CharString>
          <CharString index="24">
            -81 callsubr
            -102 callgsubr
            -91 callgsubr
          </CharString>
          <CharString index="25">
            -65 callsubr
            -75 callsubr
            return
          </CharString>
          <CharString index="26">
            rmoveto
            6 -2 -31 2 -31 -64 -47 -3 -59 hhcurveto
            -37 -30 1 2 -37 hvcurveto
            -18 -19 -6 -257 -68 vvcurveto
            return
          </CharString>
          <CharString index="27">
            -65 callgsubr
            -1 -7 rcurveline
            -77 callsubr
            return
          </CharString>
          <CharString index="28">
            hhcurveto
            -299 -277 -121 -255 -147 hvcurveto
            -67 -125 -18 -148 -12 -129 rrcurveto
            -10 -2 -8 -4 vvcurveto
            -251 59 -276 return
          </CharString>
          <CharString index="29">
            -78 callgsubr
            -85 callgsubr
            -62 callgsubr
          </CharString>
          <CharString index="30">
            -53 callgsubr
            -57 callsubr
            -54 callsubr
            return
          </CharString>
          <CharString index="31">
            289 -54 318 -424 56 vhcurveto
            -16 2 -15 -2 -14 2 -29 4 rcurveline
            3 -21 -23 4 -19 -12 -17 -2 -16 hhcurveto
            -13 hlineto
            return
          </CharString>
          <CharString index="32">
            -61 callgsubr
            -42 4 rcurveline
            -69 callsubr
            return
          </CharString>
          <CharString index="33">
            rmoveto
            -182 -85 -149 -137 -17 hvcurveto
            -1 -2 -23 callsubr
            vvcurveto
            -135 21 100 -143 175 hhcurveto
            145 138 119 165 163 -141 119 -152 hvcurveto
            4 -147 rmoveto
            67 67 -46 -89 -90 -64 -45 -67 -62 -82 49 99 hvcurveto
            80 15 63 42 63 hhcurveto
            endchar
          </CharString>
          <CharString index="34">
            -104 callsubr
            hintmask 00100000
            return
          </CharString>
          <CharString index="35">
            -72 callgsubr
            -92 callgsubr
            return
          </CharString>
          <CharString index="36">
            832 1568 rmoveto
            2 -117 -126 1 -117 hhcurveto
            -60 -80 -5 -33 -46 hvcurveto
            -81 -71 -43 -145 -91 vvcurveto
            -13 1 -13 2 -10 vhcurveto
            -1 -6 0 -5 -6 vvcurveto
            -38 -118 -150 vlineto
            -53 1 -44 -54 vvcurveto
            114 -834 hlineto
            -1 101 97 -1 97 return
          </CharString>
          <CharString index="37">
            -82 -126 -71 -109 -56 -142 rrcurveto
            -5 -76 0 -74 -110 vvcurveto
            -30 17 20 3 41 30 36 2 29 hhcurveto
            183 2 rlineto
            9 29 48 11 30 hhcurveto
            21 13 -3 -12 hvcurveto
            -25 vlineto
            -41 -3 -42 -49 vvcurveto
            27 -30 rlineto
            5 80 77 0 79 hhcurveto
            return
          </CharString>
          <CharString index="38">
            -89 callsubr
            -77 callgsubr
            return
          </CharString>
          <CharString index="39">
            72 62 1 75 hhcurveto
            834 163 307 vlineto
            1 -15 -13 0 -13 -15 -15 0 -15 hhcurveto
            -23 -24 1 5 -27 hvcurveto
            28 vlineto
            1 1 10 callsubr
            4 -1 3 callgsubr
            vhcurveto
            59 3 78 76 29 vhcurveto
            -1 16 19 0 17 hhcurveto
            34 hlineto
            return
          </CharString>
          <CharString index="40">
            -65 3 -72 -34 -33 -1 -1 -30 -11 callsubr
            -1 -18 -25 0 -12 hhcurveto
            -158 hlineto
            -18 return
          </CharString>
          <CharString index="41">
            rmoveto
            8 1 0 5 7 vvcurveto
            13 vlineto
            49 4 48 41 vvcurveto
            64 -10 46 -55 vhcurveto
            -118 -129 -5 -110 hhcurveto
            34 34 15 14 5 3 8 5 rcurveline
            -25 callgsubr
            175 113 175 133 210 vvcurveto
            226 -225 93 -238 -192 -208 -59 -182 -52 vhcurveto
            -12 -40 -4 -41 -2 -39 rrcurveto
            -2 4 8 0 8 hhcurveto
            59 hlineto
            11 11 -1 11 hhcurveto
            179 hlineto
            23 16 0 1 25 hvcurveto
            return
          </CharString>
          <CharString index="42">
            1426 645 rmoveto
            38 -8 39 -11 39 vhcurveto
            -5 29 -8 27 rlineto
            38 -80 117 -26 31 vhcurveto
            return
          </CharString>
          <CharString index="43">
            -8 hlineto
            -10 -13 0 -3 -14 hvcurveto
            3 -10 -7 0 -8 hhcurveto
            -9 -9 0 -2 -14 hvcurveto
            1 -57 0 -61 -57 vvcurveto
            -114 vlineto
            -3 35 callsubr
            -7 vlineto
            -1 -4 0 -7 -4 vvcurveto
            -5 0 -3 2 -6 vhcurveto
            19 -51 rlineto
            21 hlineto
            5 6 1 1 4 hvcurveto
            9 17 -1 -1 15 hvcurveto
            7 hlineto
            -1 10 9 -1 6 14 10 3 15 21 18 -3 22 hhcurveto
            8 6 0 2 7 hvcurveto
            return
          </CharString>
          <CharString index="44">
            rmoveto
            -516 -247 -412 -388 -38 hvcurveto
            -5 -6 rlineto
            -382 40 274 -397 509 -56 callsubr
            hvcurveto
            endchar
          </CharString>
          <CharString index="45">
            6 10 1 5 8 hvcurveto
            -2 12 3 0 5 hhcurveto
            9 hlineto
            -20 callsubr
            23 hlineto
            return
          </CharString>
          <CharString index="46">
            -53 callsubr
            -34 callsubr
            return
          </CharString>
          <CharString index="47">
            -61 callsubr
            -51 callgsubr
            return
          </CharString>
          <CharString index="48">
            -35 hlineto
            -10 48 -9 63 -8 49 -11 68 -23 callgsubr
            -11 67 rlineto
            -266 hlineto
            -92 -80 -1 -94 hhcurveto
            -601 vlineto
            -201 1 -192 -204 vvcurveto
            355 hlineto
            return
          </CharString>
          <CharString index="49">
            -139 33 115 9 -54 hvcurveto
            -46 hlineto
            -68 -77 0 -3 -62 hvcurveto
            1 -9 -12 0 -11 hhcurveto
            -10 hlineto
            -1 -23 -38 0 -20 hhcurveto
            -53 hlineto
            -1 -4 -6 0 -3 -16 -16 3 -6 hhcurveto
            -1 -1 -3 -1 hvcurveto
            13 -121 38 -113 115 -92 rrcurveto
            1046 901 rmoveto
            10 -12 8 12 rlineto
            -7 -13 rmoveto
            -2 -1 rlineto
            return
          </CharString>
          <CharString index="50">
            47 -162 rlineto
            560 hlineto
            397 -1 401 397 vvcurveto
            -326 hlineto
            return
          </CharString>
          <CharString index="51">
            hhcurveto
            -55 callgsubr
            -423 return
          </CharString>
          <CharString index="52">
            32 32 -32 91 107 hhcurveto
            59 30 -41 -52 -108 -62 -29 -82 hvcurveto
            -44 hlineto
            -5 -4 1 -4 hhcurveto
            -20 0 -52 -76 -45 2 -20 39 3 3 0 2 7 hvcurveto
            80 98 -12 -116 -57 -34 -45 -69 -77 -26 43 71 -7 hvcurveto
            -2 vlineto
            3 -1 -2 3 -4 hhcurveto
            return
          </CharString>
          <CharString index="53">
            -108 -109 -1 -112 hhcurveto
            -724 vlineto
            -30 1 -78 -62 vhcurveto
            return
          </CharString>
          <CharString index="54">
            1475 199 rmoveto
            21 vlineto
            3 1 -31 callsubr
            return
          </CharString>
          <CharString index="55">
            -108 -1 -105 -114 vvcurveto
            -45 25 callgsubr
            return
          </CharString>
          <CharString index="56">
            rmoveto
            -3 -6 -3 -4 -3 -4 -22 callgsubr
            -16 -25 -16 -27 -31 -41 -54 99 rcurveline
            -33 57 -23 9 -48 1 rrcurveto
            -12 hlineto
            return
          </CharString>
          <CharString index="57">
            64 -109 -124 25 -136 hhcurveto
            -6 -4 0 -4 -4 hvcurveto
            return
          </CharString>
          <CharString index="58">
            222 112 rmoveto
            101 -75 202 -21 121 -5 rrcurveto
            293 22 365 60 403 vvcurveto
            307 -334 83 -197 48 vhcurveto
            -41 12 rlineto
            -36 25 -140 -2 75 vvcurveto
            59 103 8 17 99 26 -15 -37 19 vhcurveto
            return
          </CharString>
          <CharString index="59">
            hhcurveto
            202 3 265 70 133 154 rrcurveto
            return
          </CharString>
          <CharString index="60">
            -58 callgsubr
            -24 callsubr
            return
          </CharString>
          <CharString index="61">
            -17 32 -18 26 -18 23 return
          </CharString>
          <CharString index="62">
            rmoveto
            110 140 38 198 208 vvcurveto
            return
          </CharString>
          <CharString index="63">
            24 24 -23 94 100 hhcurveto
            50 35 -31 -53 -76 -70 -75 -47 -42 hvcurveto
            -57 -51 -50 -37 -64 -45 -166 -112 rcurveline
            -62 -42 -22 -13 -7 -68 -3 -50 -88 vvcurveto
            -28 2 -28 9 -7 vhcurveto
            7 -8 rlineto
            return
          </CharString>
          <CharString index="64">
            -32 callsubr
            hstemhm
            return
          </CharString>
          <CharString index="65">
            5 -7 5 -6 5 -5 rrcurveto
            70 hlineto
            return
          </CharString>
          <CharString index="66">
            -177 -3 -295 -5 -12 -2 -34 -55 rlinecurve
            -22 -35 -60 -79 -57 -80 -53 -77 rlinecurve
            -11 -17 rlineto
            -1 -4 0 -1 -1 vvcurveto
            -9 30 -3 27 vhcurveto
            17 16 3 16 hhcurveto
            11 hlineto
            endchar
          </CharString>
          <CharString index="67">
            rmoveto
            318 hlineto
            32 29 2 12 9 -18 29 -13 20 hvcurveto
            -1 1 -2 3 1 vvcurveto
            -9 11 -40 60 -114 203 -28 21 rlinecurve
            -3 -1 40 callsubr
            -30 hlineto
            return
          </CharString>
          <CharString index="68">
            9 0 6 -1 2 vhcurveto
            116 vlineto
            return
          </CharString>
          <CharString index="69">
            928 370 rmoveto
            -137 -3 35 78 hvcurveto
            6 1 5 4 vvcurveto
            404 163 142 vlineto
            51 -1 40 52 vvcurveto
            -167 hlineto
            -1 330 rlineto
            return
          </CharString>
          <CharString index="70">
            rmoveto
            2 -41 0 -52 -44 vvcurveto
            616 hlineto
            93 -1 87 94 vvcurveto
            -206 -191 -2 -221 hhcurveto
            -46 1 -45 -44 vvcurveto
            -11 135 rmoveto
            10 hlineto
            return
          </CharString>
          <CharString index="71">
            -107 -99 -1 -103 hhcurveto
            -309 -331 -115 -143 hlineto
            -50 1 -39 -51 vvcurveto
            118 -554 hlineto
            -149 2 -150 203 -50 vhcurveto
            return
          </CharString>
          <CharString index="72">
            -38 callgsubr
            978 -20 return
          </CharString>
          <CharString index="73">
            5 0 4 -3 5 vhcurveto
            9 vlineto
            return
          </CharString>
          <CharString index="74">
            146 821 rmoveto
            82 hlineto
            82 70 -2 76 hhcurveto
            56 hlineto
            -202 -326 -81 -131 -106 -158 -86 -135 rlinecurve
            -11 -17 return
          </CharString>
          <CharString index="75">
            -20 21 -20 return
          </CharString>
          <CharString index="76">
            3 3 vvcurveto
            return
          </CharString>
          <CharString index="77">
            4 16 2 14 hhcurveto
            547 hlineto
            127 -1 119 127 vvcurveto
            -2 -8 -9 -1 -10 -10 -9 29 callgsubr
            return
          </CharString>
          <CharString index="78">
            -20 54 367 -352 -21 hstemhm
            return
          </CharString>
          <CharString index="79">
            -12 callsubr
            -61 callsubr
            return
          </CharString>
          <CharString index="80">
            -1 5 callgsubr
            return
          </CharString>
          <CharString index="81">
            -2 -10 callsubr
            hhcurveto
            return
          </CharString>
          <CharString index="82">
            -20 21 -20 callgsubr
            return
          </CharString>
          <CharString index="83">
            -110 -102 -1 -106 hhcurveto
            return
          </CharString>
          <CharString index="84">
            -1 1 -1 return
          </CharString>
          <CharString index="85">
            164 hvcurveto
            1 3 callgsubr
            hhcurveto
            3 0 18 20 hvcurveto
            4 -1 5 4 vvcurveto
            endchar
          </CharString>
          <CharString index="86">
            -10 -19 0 1 -18 9 callsubr
            return
          </CharString>
          <CharString index="87">
            3 5 callsubr
            hhcurveto
            return
          </CharString>
          <CharString index="88">
            1 0 1 return
          </CharString>
          <CharString index="89">
            -12 callgsubr
            -13 callsubr
            return
          </CharString>
          <CharString index="90">
            6 -1 6 hhcurveto
            return
          </CharString>
          <CharString index="91">
            rrcurveto
            1 hlineto
            return
          </CharString>
          <CharString index="92">
            -4 -3 41 callgsubr
            -26 hlineto
            return
          </CharString>
          <CharString index="93">
            -21 1547 -20 return
          </CharString>
          <CharString index="94">
            -9 -14 -3 -9 hhcurveto
            return
          </CharString>
          <CharString index="95">
            hstemhm
            hintmask 10000000
            return
          </CharString>
          <CharString index="96">
            vhcurveto
            1 hlineto
            return
          </CharString>
          <CharString index="97">
            -2 -1 -1 return
          </CharString>
          <CharString index="98">
            -20 13 callgsubr
            return
          </CharString>
          <CharString index="99">
            -1 11 callgsubr
            return
          </CharString>
          <CharString index="100">
            -254 hvcurveto
            -22 hlineto
            -2 1 -1 -1 hhcurveto
            0 -23 callsubr
            vhcurveto
            return
          </CharString>
          <CharString index="101">
            349 -349 485 665 471 -369 369 hstemhm
            return
          </CharString>
          <CharString index="102">
            13 -16 9 -13 14 -15 rrcurveto
            8 callgsubr
            2 hvcurveto
            endchar
          </CharString>
          <CharString index="103">
            -4 rlineto
            -1 return
          </CharString>
          <CharString index="104">
            -7 -12 hvcurveto
            -286 vlineto
            -8 -1 -8 -7 vvcurveto
            -164 vlineto
            return
          </CharString>
          <CharString index="105">
            rmoveto
            -3 50 1 56 -1 46 -3 153 rcurveline
            8 -41 1 return
          </CharString>
          <CharString index="106">
            21 507 324 676 -20 return
          </CharString>
          <CharString index="107">
            175 -286 return
          </CharString>
          <CharString index="108">
            7 9 1 return
          </CharString>
          <CharString index="109">
            -5 -5 vvcurveto
            return
          </CharString>
          <CharString index="110">
            32 callgsubr
            125 -20 hstemhm
            331 401 return
          </CharString>
          <CharString index="111">
            vvcurveto
            -13 vlineto
            return
          </CharString>
          <CharString index="112">
            3 1 3 return
          </CharString>
          <CharString index="113">
            -339 -455 -457 374 -334 422 return
          </CharString>
          <CharString index="114">
            -1 20 callsubr
            return
          </CharString>
          <CharString index="115">
            0 0 1 return
          </CharString>
          <CharString index="116">
            hvcurveto
            1 hlineto
            return
          </CharString>
          <CharString index="117">
            2 2 vvcurveto
            return
          </CharString>
          <CharString index="118">
            380 rmoveto
            0 0 28 callgsubr
            vhcurveto
            14 -2 return
          </CharString>
          <CharString index="119">
            -21 22 -31 callgsubr
            return
          </CharString>
          <CharString index="120">
            -1 -5 hhcurveto
            return
          </CharString>
          <CharString index="121">
            193 endchar
          </CharString>
          <CharString index="122">
            vhcurveto
            hintmask 10000000
            -8 -8 -1 -7 hhcurveto
            -46 hlineto
            return
          </CharString>
          <CharString index="123">
            -2 11 15 -1 13 25 34 4 22 hhcurveto
            return
          </CharString>
          <CharString index="124">
            406 -225 263 return
          </CharString>
          <CharString index="125">
            -890 -21 671 -20 return
          </CharString>
          <CharString index="126">
            1 42 callgsubr
            return
          </CharString>
          <CharString index="127">
            -1 0 -1 return
          </CharString>
          <CharString index="128">
            hlineto
            7 7 return
          </CharString>
          <CharString index="129">
            2 -1 1 return
          </CharString>
          <CharString index="130">
            -88 4 -181 -123 vvcurveto
            -114 return
          </CharString>
          <CharString index="131">
            vlineto
            -69 -2 -77 -76 vvcurveto
            -156 vlineto
            return
          </CharString>
          <CharString index="132">
            -1 4 hhcurveto
            return
          </CharString>
          <CharString index="133">
            115 rrcurveto
            return
          </CharString>
          <CharString index="134">
            -9 -8 vvcurveto
            return
          </CharString>
          <CharString index="135">
            2 vhcurveto
            -1 return
          </CharString>
          <CharString index="136">
            -2 7 4 0 6 hhcurveto
            11 hlineto
            return
          </CharString>
          <CharString index="137">
            19 -31 callgsubr
            834 302 return
          </CharString>
          <CharString index="138">
            -5 37 callsubr
            return
          </CharString>
          <CharString index="139">
            5 5 -1 6 hhcurveto
            return
          </CharString>
          <CharString index="140">
            hstemhm
            hintmask 11000000
            return
          </CharString>
          <CharString index="141">
            1 22 callsubr
            return
          </CharString>
          <CharString index="142">
            -1 -3 -4 vvcurveto
            return
          </CharString>
          <CharString index="143">
            hlineto
            14 callgsubr
            return
          </CharString>
          <CharString index="144">
            1 2 callsubr
            return
          </CharString>
          <CharString index="145">
            0 0 -1 return
          </CharString>
          <CharString index="146">
            -1 1 rlineto
            return
          </CharString>
          <CharString index="147">
            -1 -2 hhcurveto
            return
          </CharString>
          <CharString index="148">
            -7 -6 vvcurveto
            return
          </CharString>
          <CharString index="149">
            hlineto
            -3 -3 return
          </CharString>
        <CharString name=".notdef">
          -808 endchar
        </CharString>
        <CharString name="A">
          99 -14 -21 22 -21 247 321 978 -98 callsubr
          endchar
        </CharString>
        <CharString name="AE">
          843 -14 -31 callgsubr
          23 405 -181 321 34 350 205 393 hstemhm
          hintmask 10101100
          1546 -24 rmoveto
          51 hlineto
          48 31 0 8 17 hvcurveto
          3 98 99 2 104 111 112 -3 109 hhcurveto
          5 1 5 -31 callsubr
          28 -20 47 -9 31 vhcurveto
          -81 278 rlineto
          12 -13 -33 5 -22 -176 -176 -17 -182 hhcurveto
          -56 191 rlineto
          57 hlineto
          159 160 7 8 155 hvcurveto
          -40 137 -16 callgsubr
          -16 47 -17 50 -13 48 -7 32 rcurveline
          24 -12 -37 6 -78 hhcurveto
          -40 -41 -1 -1 -41 hvcurveto
          -296 -7 -11 43 -8 39 -6 39 rlinecurve
          -1 vlineto
          -4 24 -8 37 -4 24 rrcurveto
          -5 166 184 -3 164 hhcurveto
          7 hlineto
          21 25 1 5 5 hvcurveto
          -17 69 -20 67 -20 70 -52 178 rcurveline
          -3 4 -7 5 -4 2 rrcurveto
          -235 -227 -4 -4 -231 hvcurveto
          3 -10 -11 1 -12 -29 -29 -5 -21 hhcurveto
          -96 5 rlineto
          -122 -116 -5 -117 hhcurveto
          -167 hlineto
          -2 -2 -1 -3 -1 -4 -153 -495 -183 -505 -149 -515 -42 callsubr
          hintmask 01011100
          9 8 1 10 hhcurveto
          31 hlineto
          87 86 6 87 hhcurveto
          59 hlineto
          8 7 -28 callgsubr
          44 42 1 9 10 hvcurveto
          18 74 22 80 18 74 369 4 rcurveline
          71 1 25 -134 10 -65 -22 callgsubr
          6 -23 2 -6 2 -5 3 -1 rlinecurve
          -2 hlineto
          62 -4 65 -3 63 -1 149 2 rcurveline
          11 14 -1 15 hhcurveto
          27 34 1 1 23 hvcurveto
          560 608 rmoveto
          -2 -3 40 callsubr
          3 -9 rlineto
          3 vlineto
          3 4 1 4 vhcurveto
          0 -1 1 -3 2 vhcurveto
          -828 -613 rmoveto
          -13 -16 5 -4 14 15 rlineto
          -422 1180 rmoveto
          19 -89 19 -88 22 -88 38 -171 rcurveline
          8 -38 14 -38 -39 vvcurveto
          -54 -4 -141 -7 -93 -16 -14 1 -11 hhcurveto
          -39 hlineto
          -39 66 45 174 72 421 74 -41 callgsubr
          endchar
        </CharString>
        <CharString name="Aacute">
          -35 callsubr
          170 374 10 -98 callsubr
          hintmask 00000100
          -168 891 -52 callgsubr
        </CharString>
        <CharString name="Acircumflex">
          99 461 286 65 15 callgsubr
        </CharString>
        <CharString name="Adieresis">
          99 498 227 65 200 endchar
        </CharString>
        <CharString name="Agrave">
          99 586 227 65 14 callsubr
        </CharString>
        <CharString name="Aring">
          -35 callsubr
          174 149 270 147 hstemhm
          727 192 41 155 -105 callsubr
          hintmask 00001111
          -40 1077 -74 callsubr
        </CharString>
        <CharString name="Atilde">
          -35 callsubr
          186 371 -298 298 -97 callgsubr
          hintmask 00000100
          141 870 -89 callgsubr
          hintmask 00001000
          -73 callgsubr
        </CharString>
        <CharString name="B">
          31 -24 303 -291 -21 1546 -9 callsubr
          1329 62 rmoveto
          121 70 87 109 173 vvcurveto
          175 -109 124 -199 54 vhcurveto
          164 86 100 99 171 vvcurveto
          107 -50 120 -76 64 vhcurveto
          71 -113 -149 28 -135 hhcurveto
          -466 hlineto
          -116 -111 -8 -6 -112 hvcurveto
          -54 -3 2 -2 rlineto
          -3 -100 -2 -101 -95 vvcurveto
          -62 vlineto
          -7 1 41 callsubr
          -4 -219 -1 -211 -218 vvcurveto
          -115 3 -118 3 -115 vhcurveto
          1 -64 3 -52 18 -37 rrcurveto
          hintmask 10100000
          5 177 161 4 174 99 99 -4 100 hhcurveto
          133 133 19 71 121 hvcurveto
          -631 590 rmoveto
          29 hlineto
          108 -4 155 -5 -170 vvcurveto
          -174 -132 -20 -127 vhcurveto
          -37 hlineto
          -21 15 0 69 50 vvcurveto
          61 3 63 4 59 vhcurveto
          286 445 rmoveto
          -154 -122 -30 -92 -11 vhcurveto
          -49 -6 -29 5 -14 15 -1 25 rlinecurve
          -2 53 rlineto
          -3 67 -2 83 69 vvcurveto
          42 28 18 50 100 136 -31 -145 vhcurveto
          endchar
        </CharString>
        <CharString name="C">
          16 -65 411 797 395 hstem
          1521 1033 rmoveto
          287 -27 -197 218 -438 hhcurveto
          -279 -300 -94 -294 -148 hvcurveto
          -53 -113 -14 -114 -14 -107 rrcurveto
          -9 -2 -7 -3 vvcurveto
          -358 112 -504 651 333 359 153 408 31 vhcurveto
          3 33 -3 11 -6 9 -8 1 rlinecurve
          -40 hlineto
          -20 -20 1 -19 hhcurveto
          -58 hlineto
          -32 -31 1 -32 -16 -17 -1 -16 hhcurveto
          -162 hlineto
          -16 -16 1 -14 hhcurveto
          -38 hlineto
          -8 -12 -7 -21 -6 -22 -22 callgsubr
          -67 -22 -13 -85 -92 hhcurveto
          -137 5 -19 161 116 41 4 32 28 vvcurveto
          24 vlineto
          164 -1 226 183 vhcurveto
          144 -52 -217 64 hhcurveto
          20 hlineto
          1 callsubr
          8 25 29 -2 33 hhcurveto
          13 hlineto
          47 64 -2 48 hhcurveto
          105 97 4 12 13 hvcurveto
          endchar
        </CharString>
        <CharString name="CR">
          -858 endchar
        </CharString>
        <CharString name="Ccedilla">
          16 476 0 67 203 endchar
        </CharString>
        <CharString name="D">
          108 -12 -21 1548 -20 hstem
          878 -27 rmoveto
          4 4 rlineto
          389 4 354 275 503 vvcurveto
          370 -192 183 -37 35 vhcurveto
          1 -1 -9 7 rlineto
          143 -175 -304 19 -208 -63 -54 -3 -70 hhcurveto
          -114 hlineto
          -57 -226 -3 callsubr
          -65 1 -60 1 -63 vhcurveto
          -366 24 callsubr
          -12 -1 -12 -12 vvcurveto
          -27 3 -28 16 -30 23 callgsubr
          89 85 -3 92 hhcurveto
          78 1200 rmoveto
          119 23 callsubr
          -6 -297 -191 -68 vhcurveto
          -46 -10 -57 -3 -56 -1 -24 4 -12 11 -4 22 -6 289 rcurveline
          -4 148 -4 171 150 vvcurveto
          56 vlineto
          18 37 5 11 9 14 10 15 rlinecurve
          82 -6 86 14 77 -51 rrcurveto
          endchar
        </CharString>
        <CharString name="E">
          -46 callgsubr
          -103 callsubr
          endchar
        </CharString>
        <CharString name="Eacute">
          -46 callgsubr
          361 374 10 -20 -103 callsubr
          hintmask 00000100
          -733 1033 -52 callgsubr
        </CharString>
        <CharString name="Ecircumflex">
          322 274 69 15 callgsubr
        </CharString>
        <CharString name="Edieresis">
          -46 callgsubr
          130 -29 callsubr
          226 361 hintmask 10110000
          -90 callsubr
          hintmask 10101000
          -101 callsubr
          hintmask 01000101
          -113 811 -81 callsubr
          hintmask 01000011
          -102 callgsubr
          hintmask 01000101
          -91 callgsubr
        </CharString>
        <CharString name="Egrave">
          376 255 69 14 callsubr
        </CharString>
        <CharString name="Eth">
          105 -12 -21 679 211 658 -20 hstem
          875 -27 rmoveto
          4 4 rlineto
          391 4 352 275 503 vvcurveto
          373 -188 177 -41 37 -11 callsubr
          -9 7 rlineto
          141 -169 -304 21 -214 -64 -59 -3 -62 hhcurveto
          -116 hlineto
          -55 -228 -3 callsubr
          -48 0 -68 1 -47 vhcurveto
          -149 hlineto
          -13 -2 -23 -22 hvcurveto
          -13 2 -14 -14 vvcurveto
          -11 vlineto
          -26 -2 -29 -27 vvcurveto
          -16 vlineto
          -6 -1 -3 -5 vvcurveto
          6 -4 9 -7 9 -4 rrcurveto
          31 86 0 1 25 hvcurveto
          -168 24 callsubr
          -14 -1 -14 -15 vvcurveto
          -24 3 -26 18 -28 23 callgsubr
          90 88 -3 86 hhcurveto
          79 1200 rmoveto
          120 23 callsubr
          -7 -298 -192 -67 vhcurveto
          -45 -10 -56 -3 -58 -1 rrcurveto
          -38 5 -6 54 53 24 1 24 19 vvcurveto
          -3 179 rlineto
          121 hlineto
          6 -17 callsubr
          15 13 4 27 hvcurveto
          52 vlineto
          8 1 10 10 vvcurveto
          41 -4 50 -12 10 vhcurveto
          -66 hlineto
          -13 -15 1 -14 hhcurveto
          -50 35 hlineto
          -1 56 -1 81 53 vvcurveto
          57 vlineto
          20 37 -40 callgsubr
          5 11 9 14 10 15 78 -6 87 15 79 -52 rrcurveto
          endchar
        </CharString>
        <CharString name="Euro">
          -96 -69 311 223 220 95 214 110 417 -332 332 hstemhm
          hintmask 11101000
          927 419 rmoveto
          -83 -7 -8 -94 -74 hhcurveto
          -98 -35 136 86 -11 hvcurveto
          239 hlineto
          55 210 rlineto
          1 1 8 callsubr
          vvcurveto
          6 -5 4 -7 1 vhcurveto
          -1 -26 -36 -1 -25 hhcurveto
          -52 hlineto
          -6 -5 1 -5 hhcurveto
          -41 -61 -4 -3 -41 hvcurveto
          103 vlineto
          -1 41 61 -1 41 hhcurveto
          63 62 3 3 64 hvcurveto
          1 1 -1 3 hhcurveto
          8 41 171 28 10 hvcurveto
          -1 7 -2 3 -7 1 rrcurveto
          -61 -63 -1 -62 hhcurveto
          -197 hlineto
          2 35 rlineto
          64 16 21 96 119 hhcurveto
          hintmask 11110000
          104 11 -52 -33 42 hvcurveto
          468 hlineto
          1 2 2 3 2 vhcurveto
          -3 14 -12 73 -12 75 -73 55 rlinecurve
          157 -140 -173 38 -192 hhcurveto
          -59 -111 -7 -17 -70 9 callsubr
          -59 -19 -10 callgsubr
          -210 -65 -139 -214 -54 -209 -100 -3 rcurveline
          -1 -1 -2 0 hvcurveto
          -56 -194 rlineto
          -4 6 21 -1 22 hhcurveto
          77 -74 hlineto
          -9 -1 -19 -7 vvcurveto
          -64 hlineto
          -13 -13 -23 -79 -15 -58 -12 -46 rcurveline
          -8 2 20 -2 20 13 12 1 8 hhcurveto
          79 hlineto
          50 -168 76 -188 168 -85 13 -9 rcurveline
          -1 1 60 -36 1 -1 31 -9 rlinecurve
          61 -22 -10 callgsubr
          57 -19 96 -4 60 -3 204 8 253 49 122 188 54 70 10 73 12 101 -3 8 -7 8 -9 2 -509 8 rcurveline
          0 vmoveto
          21 19 rlineto
          -9 -17 0 -1 -19 hvcurveto
          -4 -17 rlineto
          93 342 rmoveto
          -26 callgsubr
          -2 -1 vvcurveto
          22 -2 rlineto
          38 vlineto
          endchar
        </CharString>
        <CharString name="F">
          -275 -12 -21 563 421 165 394 4 -20 hstemhm
          hintmask 11100000
          1269 1370 rmoveto
          31 1 31 31 vvcurveto
          26 -6 22 -41 vhcurveto
          -5 -6 -1 -4 hhcurveto
          -34 hlineto
          hintmask 11010000
          -123 -104 4 -116 -158 -162 -5 -163 hhcurveto
          -68 hlineto
          hintmask 11100000
          -9 -8 29 callgsubr
          -66 -70 -2 -11 hvcurveto
          -6 -1391 rlineto
          -11 2 -68 2 -33 vhcurveto
          10 -16 3 -5 1 -3 1 -3 rlinecurve
          189 185 5 198 hhcurveto
          16 2 2 9 21 vvcurveto
          94 vlineto
          11 1 12 11 126 -7 137 135 vvcurveto
          127 3 143 5 127 7 rrcurveto
          17 25 -2 12 hhcurveto
          13 hlineto
          32 21 8 47 hvcurveto
          335 vlineto
          10 -15 -45 8 -44 hhcurveto
          -152 -107 -8 -13 -155 hvcurveto
          -4 44 1 -1 25 31 2 29 28 vvcurveto
          29 vlineto
          231 1 rlineto
          107 108 1 9 105 hvcurveto
          3 80 1 81 83 vvcurveto
          endchar
        </CharString>
        <CharString name="G">
          141 -62 394 188 334 303 382 hstem
          1614 54 rmoveto
          1 -1 1 2 vvcurveto
          14 vlineto
          238 12 265 256 vvcurveto
          21 -23 -101 2 -79 -8 -8 -1 -7 hhcurveto
          -60 hlineto
          -53 -47 1 1 -49 hvcurveto
          -10 hlineto
          1 -54 -72 1 -69 hhcurveto
          -67 hlineto
          -17 -12 -7 -10 -12 vvcurveto
          -224 vlineto
          -17 0 -20 2 -17 vhcurveto
          25 -26 rlineto
          4 5 1 3 hhcurveto
          104 hlineto
          10 5 72 -6 -5 -158 rlineto
          -24 -72 -62 -5 -74 hhcurveto
          -245 4 209 128 hvcurveto
          23 vlineto
          125 -18 340 247 101 17 -55 -44 11 vhcurveto
          2 -9 rlineto
          3 vlineto
          3 -12 2 -12 5 -3 rrcurveto
          170 165 -9 173 hhcurveto
          18 20 2 13 5 hvcurveto
          -8 52 -3 57 -8 54 9 callgsubr
          -30 129 -104 108 -131 54 -16 callsubr
          40 -121 -173 15 -80 hhcurveto
          -342 -535 -125 -666 -512 294 -298 565 32 28 3 2 32 hvcurveto
          51 3 rlineto
          -1 8 10 0 9 hhcurveto
          141 321 45 51 68 hvcurveto
          34 callsubr
          1 2 4 callgsubr
          endchar
        </CharString>
        <CharString name="H">
          114 -12 -21 559 450 544 -20 hstem
          1562 497 rmoveto
          1 13 1 14 15 210 -5 208 220 vvcurveto
          155 vlineto
          17 1 18 17 7 -1 9 8 vvcurveto
          71 vlineto
          34 -135 7 -123 -71 -67 -3 -2 -41 -11 callsubr
          -1 -17 -15 0 -6 hhcurveto
          -65 hlineto
          -7 -6 1 -7 hhcurveto
          -29 -5 -3 -82 hvcurveto
          -51 vlineto
          -5 1 -6 -5 vvcurveto
          -69 vlineto
          -25 -1 -25 -24 vvcurveto
          -237 vlineto
          -5 -33 -30 -2 -27 hhcurveto
          -80 hlineto
          -9 -8 29 callgsubr
          -62 hlineto
          -3 36 0 12 10 70 6 70 58 vvcurveto
          47 vlineto
          49 3 40 36 vvcurveto
          75 -25 25 -187 vhcurveto
          -38 hlineto
          -33 -48 -2 -40 hhcurveto
          -112 hlineto
          -35 -29 1 1 -33 hvcurveto
          -5 hlineto
          -14 -30 5 -138 -3 -50 rrcurveto
          -48 vlineto
          -3 -277 -7 -310 -309 -63 -6 -81 -77 vvcurveto
          -73 4 -64 15 -5 vhcurveto
          -2 hlineto
          -6 93 88 0 118 hhcurveto
          48 hlineto
          115 123 2 14 13 hvcurveto
          132 2 106 149 vvcurveto
          140 vlineto
          9 55 46 0 49 hhcurveto
          14 hlineto
          66 5 0 -61 hvcurveto
          -107 -2 -82 -118 vvcurveto
          -160 vlineto
          6 -8 6 -9 7 -8 rrcurveto
          -5 137 83 -1 199 hhcurveto
          81 83 4 15 11 hvcurveto
          -1 101 -1 132 97 vvcurveto
          1 8 0 8 10 vvcurveto
          23 vlineto
          -1 26 -1 34 24 vvcurveto
          endchar
        </CharString>
        <CharString name="I">
          -698 -24 callgsubr
          hstem
          716 -104 callsubr
          endchar
        </CharString>
        <CharString name="Iacute">
          -708 -24 callgsubr
          179 374 10 -20 33 callsubr
          715 -104 callsubr
          hintmask 00010000
          -322 871 -82 callgsubr
        </CharString>
        <CharString name="Icircumflex">
          -697 -24 callgsubr
          184 376 3 -20 33 callsubr
          713 -73 callsubr
          -333 503 -48 callgsubr
          hintmask 00010000
          -29 42 -34 53 -20 8 rrcurveto
          hintmask 00100000
          -41 callsubr
        </CharString>
        <CharString name="Idieresis">
          -711 -24 callgsubr
          157 -29 callsubr
          4 361 hintmask 01100000
          707 -104 callsubr
          hintmask 10010100
          225 858 -84 callsubr
        </CharString>
        <CharString name="Igrave">
          -711 -24 callgsubr
          186 375 -354 -21 393 -20 33 callsubr
          711 -73 callsubr
          -330 498 -40 callsubr
          hintmask 00011000
          -35 callgsubr
          hintmask 00100000
          -5 callsubr
        </CharString>
        <CharString name="J">
          -157 -58 404 1163 -25 callsubr
          1297 1401 rmoveto
          6 1 6 5 vvcurveto
          16 vlineto
          20 0 25 2 22 vhcurveto
          6 -3 -5 3 -4 hhcurveto
          -98 hlineto
          hintmask 11000000
          -25 -24 -1 -24 hhcurveto
          -366 hlineto
          hintmask 10100000
          -17 -16 1 -16 hhcurveto
          -13 -2 rlineto
          -5 -3 -1 -2 -7 vvcurveto
          1 -1 rlineto
          -4 -117 -1 -115 -117 vvcurveto
          1 -154 0 -153 4 -149 4 -142 rcurveline
          3 -26 hlineto
          -73 -6 -103 -88 -131 97 139 9 -96 -11 callsubr
          -170 3 rlineto
          -3 -5 13 callsubr
          -35 hlineto
          -12 -15 1 1 -10 hvcurveto
          -1 -25 -36 0 -22 -45 -45 4 -39 hhcurveto
          -10 -2 -20 -19 hvcurveto
          -4 1 -4 -4 vvcurveto
          -26 vlineto
          -276 209 -133 148 -38 vhcurveto
          -29 96 94 -6 94 hhcurveto
          249 403 106 417 4 hvcurveto
          1 70 0 67 74 vvcurveto
          110 vlineto
          194 0 180 7 190 vhcurveto
          endchar
        </CharString>
        <CharString name="K">
          106 -12 -21 22 -21 1547 -20 callgsubr
          1222 788 rmoveto
          145 239 130 239 130 235 rrcurveto
          -136 -129 7 -141 hhcurveto
          -71 -59 0 -1 -70 hvcurveto
          -33 -41 -35 -81 -22 -56 -28 -71 -29 -53 -29 -64 -11 -24 rcurveline
          -31 -66 -44 -76 -25 -66 -35 6 rcurveline
          194 1 191 4 195 vhcurveto
          14 -14 -63 6 -50 hhcurveto
          -36 -31 -2 -1 -13 hvcurveto
          -141 2 rlineto
          1 -55 -55 0 -52 hhcurveto
          -29 -15 0 -1 -27 hvcurveto
          -10 -12 -1 -26 -30 -24 3 -36 -26 vvcurveto
          -3 -495 rlineto
          -565 vlineto
          -52 -2 -49 -56 vvcurveto
          -152 vlineto
          3 -3 rlineto
          -15 8 5 -6 27 hhcurveto
          92 hlineto
          74 113 2 96 hhcurveto
          54 33 callgsubr
          7 7 -4 callgsubr
          49 46 3 15 10 hvcurveto
          59 -2 120 48 vvcurveto
          13 vlineto
          4 76 7 177 13 125 107 -217 119 -232 94 -176 rrcurveto
          449 hlineto
          1 28 44 1 26 hhcurveto
          30 25 -1 -1 28 hvcurveto
          6 hlineto
          3 4 3 4 5 vvcurveto
          15 -26 43 -18 30 vhcurveto
          -24 39 -118 192 -102 189 -116 191 rlinecurve
          -11 17 -15 22 -17 21 rrcurveto
          endchar
        </CharString>
        <CharString name="L">
          -275 -34 435 1118 -20 hstem
          1269 11 callsubr
          -47 3 -61 hhcurveto
          -209 -71 -3 -8 -132 hvcurveto
          -40 23 4 416 rlineto
          4 1 6 callgsubr
          3 293 rlineto
          122 8 111 116 vvcurveto
          30 -24 -143 6 -149 -58 -54 -2 -56 hhcurveto
          -48 hlineto
          -23 -12 0 1 -20 hvcurveto
          -14 -25 -7 -70 -70 -50 3 -52 -42 vvcurveto
          -11 vlineto
          2 -74 0 -34 -50 -103 -1 -101 -99 vvcurveto
          -188 vlineto
          -71 -1 -71 -48 vvcurveto
          -227 vlineto
          -21 -2 -24 -20 vvcurveto
          -40 2 -33 14 -26 vhcurveto
          -1 52 46 -1 51 24 callgsubr
          -3 vlineto
          1 82 0 72 82 -5 callgsubr
          endchar
        </CharString>
        <CharString name="Lslash">
          -276 -34 435 1118 -20 hstem
          1270 11 callsubr
          -49 3 -61 hhcurveto
          -207 -71 -3 -8 -132 hvcurveto
          -42 23 rlineto
          378 vlineto
          9 26 294 106 rlineto
          -1 hlineto
          9 4 3 -31 callsubr
          13 -11 21 -3 9 vhcurveto
          -2 7 -21 59 -22 59 -28 58 rlinecurve
          -16 -30 -11 -11 -31 hvcurveto
          -6 -2 -5 -1 -6 -3 -3 -1 rlinecurve
          1 1 -122 -45 rlineto
          48 vlineto
          118 9 111 119 vvcurveto
          31 -26 -142 6 -150 -58 -59 -2 -51 hhcurveto
          -46 hlineto
          -25 -11 0 1 -19 hvcurveto
          -13 -26 -10 -71 -68 -51 5 -50 -43 vvcurveto
          -11 vlineto
          1 -32 1 -27 -21 -16 -1 -17 -15 vvcurveto
          -198 vlineto
          -103 -34 1 1 -26 -9 rlineto
          -20 -7 -41 -11 -13 vvcurveto
          -33 16 -44 13 -39 1 callgsubr
          15 -34 24 -77 9 -5 8 -4 12 -2 rlinecurve
          38 15 7 3 19 8 6 1 rlinecurve
          21 2 rlineto
          -459 vlineto
          -21 -3 -25 -19 vvcurveto
          -40 3 -33 14 -26 vhcurveto
          -1 50 47 -1 52 24 callgsubr
          1 81 0 71 81 -5 callgsubr
          0 vmoveto
          16 -8 -2 1 3 -1 10 8 -7 17 rlineto
          -6 -6 -4 -8 -5 39 callgsubr
          endchar
        </CharString>
        <CharString name="M">
          653 -13 -31 callgsubr
          1546 -43 callsubr
          134 486 hintmask 01011000
          1908 -33 rmoveto
          52 hlineto
          27 26 1 1 27 hvcurveto
          45 2 20 1 17 0 3 13 rlinecurve
          4 118 2 138 123 vvcurveto
          -5 245 -6 245 -6 242 -10 378 rcurveline
          -1 24 -3 10 -6 3 rrcurveto
          -112 hlineto
          -13 -14 1 -12 -218 -208 -6 -225 hhcurveto
          -4 hlineto
          -8 -11 -10 -84 -9 -47 -3 -16 rcurveline
          -8 -2 -5 -2 vvcurveto
          -127 -649 rlineto
          -35 hlineto
          -71 358 -31 155 -28 142 -27 159 rlinecurve
          -182 91 16 -487 hhcurveto
          hintmask 10101000
          -31 -25 -1 -24 hhcurveto
          -137 hlineto
          -9 -9 -2 -6 -6 -32 2 -31 -31 vvcurveto
          -50 vlineto
          -17 1 -17 -18 vvcurveto
          -2 -376 2 -364 -4 -377 rrcurveto
          -48 2 -84 3 -43 vhcurveto
          -1 -1 -2 -1 vvcurveto
          -6 vlineto
          -2 -8 -2 -7 -2 vvcurveto
          1 2 17 0 17 119 116 3 120 9 8 -28 callgsubr
          73 hlineto
          8 callgsubr
          hvcurveto
          -1 103 0 165 96 vvcurveto
          172 5 177 7 165 vhcurveto
          37 2 75 -324 2 -50 20 -50 12 -50 rlinecurve
          91 -397 39 callsubr
          -24 9 38 3 32 27 27 1 25 hhcurveto
          47 hlineto
          19 22 1 20 37 37 -3 38 hhcurveto
          13 hlineto
          46 48 0 14 12 hvcurveto
          18 75 15 81 17 75 9 40 rcurveline
          38 169 44 205 45 165 38 -7 rcurveline
          1 -51 0 -60 -47 vvcurveto
          -81 vlineto
          -90 -2 -96 -128 vvcurveto
          -113 1 -125 34 -30 vhcurveto
          hintmask 01011000
          96 93 0 1 97 hvcurveto
          endchar
        </CharString>
        <CharString name="N">
          187 -13 -21 1545 -20 hstem
          1149 478 vstem
          1626 288 rmoveto
          345 vlineto
          23 1 22 22 vvcurveto
          268 -1 251 -6 284 vhcurveto
          -74 hlineto
          -57 -103 5 -91 hhcurveto
          -79 -67 -1 -7 hvcurveto
          -255 -4 -287 -273 vvcurveto
          -34 -2 -29 81 -32 78 -30 78 rlinecurve
          -1 vlineto
          -65 169 -71 188 -61 174 -6 20 rcurveline
          -3 vlineto
          -6 20 -6 20 -6 4 rrcurveto
          -105 -1 -584 -5 -10 vvcurveto
          -2 -83 rlineto
          -12 -329 0 -317 -325 vvcurveto
          -5 -390 rlineto
          -6 -1 -8 -6 vvcurveto
          -18 vlineto
          -16 18 -15 15 -14 vhcurveto
          3 -2 rlineto
          24 27 2 21 hhcurveto
          20 hlineto
          42 63 4 46 hhcurveto
          31 hlineto
          59 64 -1 -2 66 hvcurveto
          21 3 -1 21 23 vvcurveto
          112 vlineto
          85 -4 94 92 vvcurveto
          271 vlineto
          31 1 41 30 vvcurveto
          36 5 191 -507 23 -67 67 -203 19 -21 rlinecurve
          -1 98 97 0 103 100 103 4 111 hhcurveto
          26 hlineto
          21 23 1 7 5 hvcurveto
          12 -1 16 19 vvcurveto
          50 vlineto
          50 -2 72 54 9 0 8 8 vvcurveto
          endchar
        </CharString>
        <CharString name="NULL">
          -1540 endchar
        </CharString>
        <CharString name="Ntilde">
          187 526 463 78 196 endchar
        </CharString>
        <CharString name="O">
          -29 callgsubr
          hstem
          -97 callsubr
          endchar
        </CharString>
        <CharString name="OE">
          452 -14 292 -292 390 -380 -21 565 407 143 413 -314 314 8 -43 callsubr
          hintmask 10010001
          1985 1112 rmoveto
          -1 127 -3 130 -1 129 -1 8 -6 5 -8 1 -832 -18 rcurveline
          hintmask 01010010
          9 -87 -88 8 -85 hhcurveto
          -141 -160 -19 -48 -137 hvcurveto
          2 hlineto
          -102 -58 -126 -63 -81 -160 -52 -142 rlinecurve
          -25 -90 -10 -132 -85 vvcurveto
          -274 131 -284 261 -100 vhcurveto
          -67 129 134 -12 137 hhcurveto
          69 70 3 1 71 hvcurveto
          927 10 rlineto
          -1 37 callgsubr
          hhcurveto
          4 379 -3 22 callgsubr
          -2 2 rlinecurve
          -2 -16 -21 0 -14 hhcurveto
          -219 hlineto
          -24 -26 1 -25 hhcurveto
          -34 -52 0 -1 -34 hvcurveto
          164 vlineto
          -2 124 139 -2 100 hhcurveto
          48 hlineto
          4 2 3 4 2 5 rrcurveto
          82 vlineto
          85 2 92 91 vvcurveto
          48 -6 7 -44 -72 -172 -2 -3 -124 vhcurveto
          hintmask 00111000
          3 143 152 -2 147 1 145 -4 rlinecurve
          25 -1100 rmoveto
          -1 -2 2 3 -6 hvcurveto
          -9 vlineto
          -2 -2 -2 -2 vvcurveto
          -1010 337 rmoveto
          hintmask 10010100
          -21 -51 -40 -13 -51 hhcurveto
          -274 60 344 114 -17 hvcurveto
          155 9 298 219 8 10 0 -1 6 21 callgsubr
          -8 callsubr
          2 hhcurveto
          8 hlineto
          32 -7 78 -23 2 -24 rrcurveto
          -274 8 -251 11 -257 vhcurveto
          -136 32 rmoveto
          8 -33 rlineto
          19 5 3 8 8 hvcurveto
          -11 33 rlineto
          endchar
        </CharString>
        <CharString name="Oacute">
          -29 callgsubr
          129 374 10 -20 -90 callgsubr
          hintmask 00010000
          -734 1896 -82 callgsubr
        </CharString>
        <CharString name="Ocircumflex">
          105 473 283 79 15 callgsubr
        </CharString>
        <CharString name="Odieresis">
          105 498 463 79 200 endchar
        </CharString>
        <CharString name="Ograve">
          105 513 267 79 14 callsubr
        </CharString>
        <CharString name="Oslash">
          105 -163 -21 126 357 879 374 80 -20 hstem
          1460 230 -45 callsubr
          235 -77 253 -211 156 vhcurveto
          49 72 65 98 18 vvcurveto
          9 -49 15 -1 vhcurveto
          1 1 2 2 3 vhcurveto
          -119 -187 rlineto
          75 -145 -155 26 -111 -79 callsubr
          257 -167 vhcurveto
          13 -12 -85 -136 -10 callgsubr
          -19 -49 -10 callgsubr
          -13 -34 rlineto
          -3 7 8 -4 5 hhcurveto
          19 -6 20 4 46 67 36 59 rlinecurve
          41 68 rlineto
          -54 129 121 -18 135 -48 callsubr
          -581 1009 rmoveto
          88 52 -52 -74 37 hvcurveto
          -383 -596 rlineto
          -15 86 -7 72 57 -71 callgsubr
          204 -209 rmoveto
          8 -89 3 -54 -38 vvcurveto
          -30 callgsubr
          vhcurveto
          -53 3 -47 27 -36 51 rrcurveto
          endchar
        </CharString>
        <CharString name="Otilde">
          -29 callgsubr
          126 371 -298 298 -90 callgsubr
          hintmask 00010000
          -419 1856 -89 callgsubr
          hintmask 00100000
          -73 callgsubr
        </CharString>
        <CharString name="P">
          -13 -34 -20 54 21 462 290 751 -21 hstem
          405 1499 rmoveto
          -24 -26 -1 -1 -24 hvcurveto
          -124 -5 -25 -4 -58 3 -5 -2 rlinecurve
          -417 vlineto
          -140 -2 -115 -156 vvcurveto
          -541 vlineto
          -58 -1 -45 18 -51 vhcurveto
          571 9 7 3 6 8 2 8 rlinecurve
          81 vlineto
          10 -1 10 11 vvcurveto
          114 5 139 5 120 vhcurveto
          216 9 rlineto
          -1 hlineto
          234 22 353 77 418 vvcurveto
          324 -3 callgsubr
          3 -43 -44 2 -45 -103 -104 -7 -87 hhcurveto
          428 -409 rmoveto
          11 -20 4 -28 -35 vvcurveto
          -183 -160 -48 -150 -3 vhcurveto
          -3 60 2 75 rlineto
          110 1 1 185 13 hhcurveto
          109 130 -1 -113 42 hvcurveto
          endchar
        </CharString>
        <CharString name="Q">
          102 -70 357 -317 398 -79 1263 7 callgsubr
          1594 368 rmoveto
          -23 -20 -2 -22 hhcurveto
          -55 hlineto
          89 122 54 161 138 34 callgsubr
          429 -273 336 -475 -410 -410 -219 -586 -168 32 -174 91 -142 vhcurveto
          14 -14 rlineto
          1 9 1 4 vhcurveto
          -196 127 182 -125 294 hhcurveto
          hintmask 01000000
          182 169 40 204 hhcurveto
          116 125 -11 -5 40 hvcurveto
          12 6 8 7 3 10 rrcurveto
          28 vlineto
          6 -1 5 6 12 1 12 11 vvcurveto
          49 vlineto
          9 1 9 8 vvcurveto
          -1 97 rlineto
          5 -1 6 callgsubr
          37 vlineto
          5 0 12 1 7 vhcurveto
          10 vlineto
          4 1 4 3 vvcurveto
          22 -9 19 -59 3 vhcurveto
          hintmask 10100000
          -766 -79 rmoveto
          -4 -6 40 callsubr
          -209 -2 287 152 188 31 284 197 196 20 -220 -167 hvcurveto
          -48 -3 -40 -42 vvcurveto
          -18 vlineto
          -126 -4 -8 -251 -168 -8 -5 2 -7 hhcurveto
          endchar
        </CharString>
        <CharString name="R">
          -1 callsubr
          hstem
          -99 callsubr
          endchar
        </CharString>
        <CharString name="S">
          -56 -63 -6 callsubr
          hintmask 10010000
          -1 callgsubr
          hintmask 10100000
          -64 callgsubr
          hintmask 01100000
          -59 callgsubr
          endchar
        </CharString>
        <CharString name="Scaron">
          -54 -58 344 -344 480 668 468 -369 369 300 381 1 -20 hstemhm
          hintmask 10011000
          1185 24 rmoveto
          165 71 122 136 247 vvcurveto
          341 -347 98 -243 56 vhcurveto
          -69 10 -197 34 79 vvcurveto
          75 141 18 10 vhcurveto
          hintmask 10101000
          125 -45 -95 -4 59 hvcurveto
          -4 51 50 -1 51 hhcurveto
          89 85 2 5 84 hvcurveto
          92 5 23 24 -11 118 -18 103 -165 113 rlinecurve
          -1 2 rlineto
          71 -117 -173 30 -155 hhcurveto
          -332 -393 -130 -407 -237 152 -130 385 -82 hvcurveto
          -1 2 4 -1 1 hhcurveto
          56 -13 rlineto
          104 -32 143 -9 -104 vvcurveto
          -87 -76 -39 -71 vhcurveto
          hintmask 01101000
          -154 31 136 -52 -180 -163 -9 -173 hhcurveto
          -6 -8 0 1 -7 hvcurveto
          2 -19 9 -90 8 -53 63 -89 rlinecurve
          -164 83 265 -57 227 hhcurveto
          146 183 18 64 145 hvcurveto
          -443 2070 rmoveto
          -20 30 -18 26 -9 19 9 callgsubr
          64 -33 -52 7 -86 hhcurveto
          -162 hlineto
          hintmask 10100100
          -10 -10 1 -13 hhcurveto
          -25 -23 -1 -11 -12 19 -28 18 -27 hvcurveto
          -1 1 19 -27 3 -4 4 -7 3 -3 rlinecurve
          9 -15 14 -23 27 -43 22 -31 rlinecurve
          -2 hlineto
          16 -25 rlineto
          hintmask 10101000
          28 -45 27 -54 42 -27 rrcurveto
          3 102 98 2 102 hhcurveto
          43 39 1 5 31 hvcurveto
          73 11 47 82 45 78 9 callgsubr
          6 12 11 21 13 21 14 23 rlinecurve
          22 28 41 55 6 26 -4 6 rcurveline
          -275 hlineto
          -30 -25 1 -33 hhcurveto
          -30 -52 rlineto
          7 callsubr
          0 vvcurveto
          -16 -29 -19 -28 -21 -28 rrcurveto
          467 -630 rmoveto
          1 -6 rlineto
          -1 34 callsubr
          hhcurveto
          -415 727 rmoveto
          1 8 callgsubr
          vvcurveto
          endchar
        </CharString>
        <CharString name="T">
          -222 -8 -21 1120 414 hstem
          -83 callgsubr
          endchar
        </CharString>
        <CharString name="Thorn">
          -13 -13 -21 385 289 429 300 253 -20 hstem
          719 106 rmoveto
          3 78 3 85 4 78 216 9 rcurveline
          -1 hlineto
          234 20 353 77 420 vvcurveto
          322 -3 callgsubr
          -82 7 -101 2 -83 1 -3 106 rcurveline
          10 1 10 10 vvcurveto
          81 vlineto
          -2 11 -4 6 -8 2 -572 9 rcurveline
          -18 -52 1 -47 -55 vvcurveto
          -107 vlineto
          -27 callsubr
          vvcurveto
          1 -420 rlineto
          -140 -2 -114 -157 vvcurveto
          -407 vlineto
          -58 -1 -45 18 -51 vhcurveto
          572 9 8 2 4 6 2 10 rlinecurve
          82 vlineto
          10 -1 10 11 vvcurveto
          273 851 rmoveto
          11 -22 4 -28 -32 vvcurveto
          -185 -140 -46 -130 -4 vhcurveto
          -41 59 rlineto
          96 -5 246 -5 28 vhcurveto
          119 144 1 -113 43 hvcurveto
          endchar
        </CharString>
        <CharString name="U">
          -21 callgsubr
          hstem
          -103 callgsubr
          endchar
        </CharString>
        <CharString name="Uacute">
          -21 callgsubr
          179 374 10 -20 33 callsubr
          -103 callgsubr
          hintmask 00010000
          -138 2120 -82 callgsubr
        </CharString>
        <CharString name="Ucircumflex">
          75 462 277 85 15 callgsubr
        </CharString>
        <CharString name="Udieresis">
          -21 callgsubr
          380 -29 callsubr
          379 361 hintmask 10100000
          -103 callgsubr
          hintmask 01010100
          474 2330 -81 callsubr
          hintmask 01001100
          -102 callgsubr
          hintmask 01010100
          -91 callgsubr
        </CharString>
        <CharString name="Ugrave">
          75 538 252 85 14 callsubr
        </CharString>
        <CharString name="V">
          15 -10 -21 1541 -20 hstem
          942 -22 rmoveto
          43 38 -3 45 hhcurveto
          5 hlineto
          -1 29 27 -1 29 hhcurveto
          43 27 75 298 44 187 47 184 -23 callgsubr
          6 32 11 37 9 33 201 727 rcurveline
          -2 4 -4 4 -9 5 rrcurveto
          -45 hlineto
          -176 -295 -2 -10 -38 hvcurveto
          -18 -92 -17 -99 -20 -93 -24 -113 rcurveline
          -42 -209 -43 -211 -33 -209 -9 -52 rcurveline
          -40 hlineto
          -8 53 -59 330 -64 366 -55 326 rlinecurve
          14 -11 -8 -1 -9 hhcurveto
          -90 -496 -2 -6 hvcurveto
          43 -208 75 -238 60 -210 30 -106 rcurveline
          45 -160 66 -203 31 -151 18 -91 31 -134 34 -30 rrcurveto
          3 126 123 2 127 hhcurveto
          27 28 1 3 24 hvcurveto
          endchar
        </CharString>
        <CharString name="W">
          590 -14 -21 1552 -20 hstem
          2032 760 rmoveto
          53 245 59 238 49 227 -2 10 -4 11 -2 2 rrcurveto
          4 -33 -184 14 -252 hhcurveto
          -75 18 -39 -38 -6 hvcurveto
          -4 -23 -38 -248 -37 -254 -23 -259 rlinecurve
          -38 hlineto
          -8 54 -25 171 -36 219 -24 177 rlinecurve
          -36 234 rlineto
          1 -1 -2 1 -3 hhcurveto
          -389 hlineto
          -58 -56 -1 -60 hhcurveto
          -12 -12 0 1 -11 hvcurveto
          -26 -39 -23 -206 -30 vvcurveto
          -26 -179 -27 -181 -29 -182 -39 1 rcurveline
          -7 57 rlineto
          190 -27 -52 574 -42 hhcurveto
          -14 hlineto
          1 -12 -11 1 -10 hhcurveto
          -63 hlineto
          3 -37 -34 0 -34 -44 -47 -3 -47 hhcurveto
          -95 -3 rlineto
          -4 -4 0 -4 hhcurveto
          -17 -17 1 2 -15 hvcurveto
          -8 -4 -5 -4 -1 -6 34 -169 44 -193 37 -172 21 -97 rcurveline
          53 -246 58 -253 47 -245 6 -39 rcurveline
          7 -45 11 -55 26 -21 rrcurveto
          4 120 120 3 121 hhcurveto
          87 87 -2 -3 86 hvcurveto
          28 4 10 60 5 51 23 221 32 257 46 236 37 -1 rcurveline
          20 -147 22 -153 22 -143 9 -50 rcurveline
          -39 7 33 -288 11 hhcurveto
          3 70 66 1 70 18 18 -1 18 hhcurveto
          156 hlineto
          70 73 0 4 70 hvcurveto
          5 -2 11 64 13 63 13 64 rlinecurve
          32 157 70 317 -1 21 17 32 6 25 rlinecurve
          endchar
        </CharString>
        <CharString name="X">
          60 1511 -20 hstem
          1167 740 rmoveto
          172 273 19 30 20 28 17 31 rlinecurve
          236 378 rlineto
          28 callgsubr
          4 vvcurveto
          13 -3 7 -6 3 vhcurveto
          -143 -191 -7 -5 -139 hvcurveto
          -114 -4 -5 3 -27 -31 -116 -259 -29 -71 rlinecurve
          -31 -70 -34 67 -15 40 -40 callgsubr
          -39 95 -85 199 -33 32 rrcurveto
          -1 -49 -43 0 -49 hhcurveto
          7 -102 -108 1 -102 -56 -53 0 -50 hhcurveto
          -2 1 -2 0 vhcurveto
          0 38 callsubr
          1 vhcurveto
          140 -231 73 -121 70 -121 70 -125 rlinecurve
          92 -151 -376 -589 -3 -8 -4 -4 -3 -3 rlinecurve
          -42 -62 -54 -79 -30 vvcurveto
          -2 3 -3 2 -1 vhcurveto
          187 hlineto
          21 21 1 23 hhcurveto
          114 105 -1 -3 114 hvcurveto
          38 37 69 139 49 106 9 callgsubr
          6 15 23 46 36 73 14 25 rlinecurve
          161 -337 15 -32 18 -32 13 -31 rlinecurve
          -11 18 34 -3 31 167 173 4 173 hhcurveto
          30 2 20 3 12 vvcurveto
          3 -1 2 -2 2 vhcurveto
          -90 143 -40 callgsubr
          -180 278 -40 callgsubr
          -15 23 -19 26 -14 24 -24 42 rcurveline
          1 -1 -87 132 -31 43 rlineto
          461 -708 rmoveto
          -2 3 rlineto
          -3 vlineto
          -1 6 rmoveto
          -1 0 -23 callsubr
          vhcurveto
          endchar
        </CharString>
        <CharString name="Y">
          -16 -16 -21 hstem
          1070 396 rmoveto
          33 0 35 2 34 vhcurveto
          61 124 62 127 64 123 34 65 -23 callgsubr
          55 120 72 128 63 116 65 125 -23 callgsubr
          30 59 -4 15 -5 7 -6 3 rlinecurve
          -10 -12 -1 -11 hhcurveto
          -173 hlineto
          2 -31 -22 0 -24 hhcurveto
          -128 hlineto
          -68 -79 0 -8 -1 hvcurveto
          -55 -167 -81 -265 -79 -206 -45 159 rcurveline
          -50 177 -92 299 -25 5 rrcurveto
          3 -108 -107 0 -106 hhcurveto
          -257 hlineto
          -17 -15 -1 -4 -35 44 -72 36 -55 39 callgsubr
          6 -11 36 -65 21 -44 26 -49 rlinecurve
          149 -298 rlineto
          89 -183 85 -175 -231 vvcurveto
          -1 -73 rlineto
          -10 -1 -9 -11 vvcurveto
          -29 vlineto
          -41 -2 -42 -42 vvcurveto
          -21 3 -19 19 -24 vhcurveto
          195 181 4 197 hhcurveto
          10 7 7 9 3 hvcurveto
          endchar
        </CharString>
        <CharString name="Yacute">
          -16 420 236 89 194 endchar
        </CharString>
        <CharString name="Ydieresis">
          -16 440 223 89 200 endchar
        </CharString>
        <CharString name="Z">
          -145 -35 414 737 387 hstem
          729 371 rmoveto
          114 139 67 82 75 89 67 79 rlinecurve
          77 84 91 99 114 131 14 92 rlinecurve
          13 vlineto
          48 3 57 95 vvcurveto
          10 vlineto
          20 2 16 20 vvcurveto
          53 -27 7 -39 1 vhcurveto
          -217 -3 -319 -5 -369 -6 -321 1 rlinecurve
          3 -5 -3 1 -1 hhcurveto
          0 -1 -2 -4 -26 9 -117 -86 vvcurveto
          -59 vlineto
          -3 -1 -3 -2 vvcurveto
          -19 vlineto
          3 -27 -7 -34 14 -7 rrcurveto
          75 71 1 2 73 hvcurveto
          74 2 rlineto
          65 142 3 88 hhcurveto
          -156 -187 -174 -217 -151 -189 -141 -171 rcurveline
          -16 -13 rlineto
          7 -67 0 -246 -27 vvcurveto
          -31 21 16 -3 34 399 398 10 402 hhcurveto
          26 hlineto
          38 19 3 46 hvcurveto
          26 -2 18 21 vvcurveto
          112 vlineto
          80 -2 98 -13 vhcurveto
          -193 -307 -8 -80 hhcurveto
          endchar
        </CharString>
        <CharString name="Zcaron">
          -145 342 243 90 207 endchar
        </CharString>
        <CharString name="a">
          35 -15 -21 994 277 5 -25 callsubr
          -60 callsubr
          hintmask 10010000
          -18 callsubr
          hintmask 11000000
          -101 callgsubr
          endchar
        </CharString>
        <CharString name="aacute">
          35 199 -20 141 244 -28 callsubr
          hintmask 01000000
          -13 callgsubr
          -39 callsubr
          -45 callgsubr
          hintmask 10000000
          -87 callsubr
          -229 1454 -78 callsubr
        </CharString>
        <CharString name="acircumflex">
          35 428 0 97 15 callgsubr
        </CharString>
        <CharString name="acute">
          -899 1410 374 10 31 callgsubr
          262 1794 -78 callgsubr
          hintmask 10000000
          -85 callgsubr
          hintmask 01000000
          -62 callgsubr
        </CharString>
        <CharString name="adieresis">
          35 435 0 97 200 endchar
        </CharString>
        <CharString name="ae">
          560 40 373 -353 -21 24 12 callsubr
          23 -21 22 12 callsubr
          23 -21 25 -21 203 304 1 326 143 365 3 -43 callsubr
          hintmask 0000000000111100
          1323 1038 rmoveto
          -5 40 36 0 39 13 14 1 15 hhcurveto
          213 -2 rlineto
          4 5 25 callsubr
          14 hlineto
          -1 3 3 0 3 hhcurveto
          3 4 0 1 4 hvcurveto
          7 6 -65 213 -13 42 -22 99 -23 6 rlinecurve
          -196 hlineto
          -8 -8 -1 -9 hhcurveto
          -53 hlineto
          -126 -93 -1 -3 -82 hvcurveto
          3 -26 -29 2 -37 hhcurveto
          -16 hlineto
          -27 -26 1 -26 hhcurveto
          -35 hlineto
          -13 -13 29 callgsubr
          -101 hlineto
          hintmask 0000000000111010
          -10 -15 0 1 -9 hvcurveto
          -147 hlineto
          hintmask 0000000000111001
          -38 -34 0 1 -36 hvcurveto
          -1 -3 -3 -5 -3 -4 -1 -3 rlinecurve
          1 hlineto
          -26 -84 -25 -80 -34 -87 -21 -61 rcurveline
          -62 -188 -77 -225 -62 -188 -16 callsubr
          -24 -79 -21 -63 -22 -65 -21 -58 rlinecurve
          1 hlineto
          -16 -26 -3 -27 -8 -26 -23 -70 rcurveline
          1 -1 1 -2 -1 vvcurveto
          hintmask 0100000000011100
          16 -16 rlineto
          hintmask 1000000000001100
          3 3 1 2 hhcurveto
          209 hlineto
          hintmask 0001000000011100
          39 42 0 3 44 hvcurveto
          71 hlineto
          hintmask 0010000000011100
          12 callgsubr
          43 42 4 13 8 hvcurveto
          26 111 7 29 11 38 7 21 rlinecurve
          334 hlineto
          44 0 0 -41 9 39 callgsubr
          hintmask 0001000000011100
          41 -154 rlineto
          -16 2 33 -3 31 hhcurveto
          hintmask 0000001000011100
          20 15 2 19 hhcurveto
          62 hlineto
          hintmask 0001000000011100
          -4 vlineto
          hintmask 0000001000011100
          88 4 rlineto
          hintmask 0000010000011100
          -1 21 18 0 20 hhcurveto
          hintmask 0000001000011100
          28 41 0 1 28 hvcurveto
          97 hlineto
          hintmask 0000000001011100
          16 12 0 4 8 hvcurveto
          hintmask 0000000010011100
          -1 80 81 -1 79 hhcurveto
          51 hlineto
          hintmask 0000000100011100
          3 2 -1 3 hhcurveto
          92 hlineto
          hintmask 0000001000011100
          12 callgsubr
          50 hlineto
          hintmask 0000100000011100
          25 21 -3 23 hhcurveto
          14 hlineto
          hintmask 0000000010011100
          7 2 3 2 hvcurveto
          hintmask 0000000100011100
          2 -2 9 -3 9 vhcurveto
          -7 24 rlineto
          14 -8 2 -2 13 vhcurveto
          -54 180 1 -1 -11 28 -22 71 rlineto
          7 -16 -25 9 -23 hhcurveto
          hintmask 1000000000001100
          -134 -3 rlineto
          -99 -103 -7 -99 hhcurveto
          -15 hlineto
          -3 -13 1 -2 hhcurveto
          -31 107 rlineto
          -4 7 -1 3 6 vvcurveto
          -9 36 rlineto
          -1 22 41 -2 20 hhcurveto
          110 hlineto
          108 69 8 92 hhcurveto
          -25 72 -8 23 -9 32 -15 51 rcurveline
          -7 13 4 8 -10 15 -11 39 rcurveline
          30 -17 16 35 -51 -131 -118 -6 -124 hhcurveto
          -46 hlineto
          -4 -12 1 -2 hhcurveto
          -22 88 rlineto
          18 -11 5 47 vvcurveto
          -1 17 45 -3 15 hhcurveto
          -738 -432 rmoveto
          10 2 7 2 7 -11 callgsubr
          10 5 9 10 vvcurveto
          17 71 18 75 16 78 6 23 rcurveline
          1 5 1 4 4 9 9 49 rcurveline
          14 62 22 85 36 13 18 -8 14 -17 5 -20 18 -80 rcurveline
          3 vlineto
          2 -7 1 -8 4 -6 15 -78 rcurveline
          3 -18 3 -15 4 -16 28 -126 rcurveline
          -7 3 -9 3 -9 vhcurveto
          8 -30 rlineto
          3 vlineto
          7 -26 8 -26 -27 vvcurveto
          hintmask 0000100000011100
          -43 -26 0 -35 vhcurveto
          -5 hlineto
          -26 callsubr
          -161 5 rlineto
          -1 -15 -34 -1 -11 hhcurveto
          -640 -499 rmoveto
          -4 -4 -3 -4 -2 -4 rrcurveto
          2 hlineto
          -2 hlineto
          -3 -7 -2 -8 -8 vvcurveto
          -10 3 -10 5 -5 vhcurveto
          11 27 rlineto
          hintmask 0100000000011100
          3 1 1 2 4 vvcurveto
          hintmask 0000000000111100
          -1 -2 17 -3 vhcurveto
          0 0 0 -2 vvcurveto
          -11 hlineto
          4 5 2 1 hvcurveto
          1 3 rlineto
          hintmask 0000100000011100
          hintmask 0001000000011001
          1197 -16 rmoveto
          -9 16 10 -26 rlineto
          603 1000 rmoveto
          4 -1 1 -2 7 callsubr
          -2 vhcurveto
          2 -3 5 -1 0 vvcurveto
          96 -463 rmoveto
          39 callsubr
          -8 callsubr
          vhcurveto
          2 -5 rlineto
          2 vlineto
          -19 callsubr
          4 1 vhcurveto
          -1449 834 rmoveto
          -7 -3 rlineto
          endchar
        </CharString>
        <CharString name="agrave">
          35 553 0 97 14 callsubr
        </CharString>
        <CharString name="ampersand">
          275 -72 273 1125 225 hstem
          17 485 465 421 vstem
          1682 788 rmoveto
          -27 -27 0 2 -27 9 callsubr
          1 -27 -27 1 -26 hhcurveto
          -41 -40 0 -1 -43 hvcurveto
          -80 -6 20 -55 -11 -34 -8 -25 -16 -33 -30 -41 -108 103 -23 callgsubr
          -23 19 -40 39 -19 19 rrcurveto
          177 129 128 120 165 vvcurveto
          84 -33 95 -93 66 vhcurveto
          90 -129 -204 26 -169 hhcurveto
          -226 -186 -74 -70 -75 hvcurveto
          -62 -58 -40 -86 -88 vvcurveto
          -141 113 -137 133 -86 vhcurveto
          -226 -83 -174 -136 -222 vvcurveto
          -251 284 -191 404 vhcurveto
          89 3 117 7 139 44 101 38 rlinecurve
          53 27 39 -33 19 -19 20 -14 20 -11 rlinecurve
          -3 75 65 -1 74 hhcurveto
          259 hlineto
          13 17 -1 17 hhcurveto
          31 29 3 13 hvcurveto
          -1 10 -17 21 -18 17 -20 19 rcurveline
          -15 20 -16 18 -16 17 -195 202 rcurveline
          123 123 66 163 13 145 5 35 rcurveline
          -4 9 -5 7 -5 3 rrcurveto
          -2 -27 -40 0 -26 hhcurveto
          -934 -587 rmoveto
          -107 -141 60 135 83 74 100 69 33 hvcurveto
          21 -1 32 -26 28 -27 9 -9 rcurveline
          9 -10 3 -19 17 1 151 -144 rcurveline
          22 -22 21 -31 54 -43 rrcurveto
          -45 -85 -89 -35 -88 hhcurveto
          12 774 rmoveto
          -67 41 -91 64 -9 89 rrcurveto
          101 88 56 89 77 118 -31 -112 -90 -88 -69 -66 -51 vhcurveto
          -5 -11 -8 0 -7 hhcurveto
          -9 -9 3 5 -8 hvcurveto
          endchar
        </CharString>
        <CharString name="approxequal">
          -217 176 265 -99 99 -99 253 54 268 -95 95 -95 251 hstemhm
          hintmask 10001000
          1115 1072 rmoveto
          -99 -73 -70 -56 -73 hhcurveto
          -100 -97 105 38 -128 9 callsubr
          hintmask 10000100
          10 -42 -35 3 -33 hhcurveto
          -170 -135 -99 -161 -99 hvcurveto
          145 -147 rlineto
          2 -2 11 callgsubr
          vvcurveto
          4 1 19 25 24 24 19 19 rcurveline
          61 53 68 28 52 hhcurveto
          hintmask 01010000
          154 150 -173 164 hhcurveto
          157 125 119 127 93 hvcurveto
          3 7 3 6 2 vvcurveto
          -4 8 -49 51 -44 48 -49 51 rlinecurve
          -1117 -253 rmoveto
          -9 0 -4 22 vhcurveto
          -1 13 rlineto
          1060 -219 rmoveto
          -84 -65 -70 -71 -79 hhcurveto
          hintmask 00110000
          -139 -123 154 -174 hhcurveto
          -166 -151 -121 -132 -92 hvcurveto
          150 -150 rlineto
          2 -2 11 callgsubr
          vvcurveto
          1 21 23 25 23 hvcurveto
          18 19 rlineto
          63 55 62 22 55 hhcurveto
          hintmask 10010000
          171 123 -166 191 hhcurveto
          152 127 123 128 86 hvcurveto
          2 28 callgsubr
          3 vvcurveto
          4 -23 callsubr
          4 vhcurveto
          -143 147 rlineto
          -1097 -250 rmoveto
          hintmask 01010000
          37 callgsubr
          vvcurveto
          -1 2 rlineto
          endchar
        </CharString>
        <CharString name="aring">
          35 199 138 -94 279 hstemhm
          695 192 586 1 hintmask 10110000
          -53 callsubr
          hintmask 01110000
          -34 callsubr
          -13 callgsubr
          hintmask 10110000
          -39 callsubr
          hintmask 01110000
          -45 callgsubr
          -70 callgsubr
          -94 callsubr
          hintmask 10110000
          -86 callsubr
          -101 1637 -74 callsubr
        </CharString>
        <CharString name="asciicircum">
          -265 780 -21 778 -20 hstem
          647 1218 rmoveto
          32 -62 48 -101 27 -60 40 -82 rcurveline
          -47 23 44 -107 21 hhcurveto
          22 hlineto
          29 37 -3 37 hhcurveto
          86 56 6 20 9 hvcurveto
          -124 245 -130 246 -124 245 -2 12 0 5 -2 2 rrcurveto
          -1 -6 -6 0 -7 hhcurveto
          -76 -76 0 1 -81 hvcurveto
          -2 -2 -45 -95 -48 -97 -45 -95 rlinecurve
          -77 -161 -50 -105 -54 -107 -48 -106 rlinecurve
          1 2 6 1 7 9 11 -1 7 71 69 2 72 hhcurveto
          20 hlineto
          3 2 4 4 3 3 rrcurveto
          -294 -20 rmoveto
          6 hlineto
          2 6 rlineto
          8 callsubr
          1 vhcurveto
          -17 1 rlineto
          -1 vmoveto
          -3 3 -1 -3 rlineto
          21 -1 rmoveto
          -3 -6 rlineto
          2 42 callgsubr
          4 vvcurveto
          1 2 rmoveto
          20 callsubr
          0 10 callgsubr
          endchar
        </CharString>
        <CharString name="asciitilde">
          -237 315 281 -142 298 9 31 callgsubr
          1050 766 rmoveto
          1 -7 2 -6 2 -6 1 -2 rcurveline
          -4 -6 rlineto
          -52 -41 -57 -71 -64 hhcurveto
          -61 -75 38 27 -54 hvcurveto
          -3 1 -9 5 -4 1 -33 18 rcurveline
          33 -73 -67 33 -84 hhcurveto
          -125 -89 -77 -127 -73 hvcurveto
          -2 27 callgsubr
          -2 vvcurveto
          -49 26 -73 21 -56 vhcurveto
          -1 1 3 -11 5 -9 3 -8 rlinecurve
          1 vlineto
          hintmask 10100000
          16 -44 69 -10 rlineto
          82 45 45 46 77 hhcurveto
          80 61 -31 -32 63 hvcurveto
          24 -12 4 -3 5 -2 6 -1 rlinecurve
          -30 61 61 -27 78 hhcurveto
          123 87 81 104 75 hvcurveto
          5 vlineto
          1 4 0 6 3 vvcurveto
          58 -71 205 -25 vhcurveto
          -10 -1 -10 10 rlineto
          endchar
        </CharString>
        <CharString name="asterisk">
          -610 790 -21 300 189 280 -20 hstem
          262 834 rmoveto
          14 -8 rlineto
          -30 30 65 -27 11 hhcurveto
          8 31 62 42 21 10 callgsubr
          42 81 26 -49 69 -121 11 -8 rlinecurve
          -1 -1 39 21 -1 -2 129 83 -5 15 -13 22 -6 8 rlinecurve
          -14 23 -8 23 -9 15 -12 22 rlinecurve
          1 hlineto
          -42 65 rlineto
          82 124 1 3 hvcurveto
          58 vlineto
          7 37 -1 37 19 vvcurveto
          31 -5 3 -45 vhcurveto
          -13 hlineto
          -31 -29 0 -6 -30 hvcurveto
          -66 -6 37 82 26 39 19 26 rlinecurve
          4 6 rlineto
          13 20 7 11 17 vvcurveto
          14 -101 47 -49 23 vhcurveto
          -13 6 -16 -15 -21 -49 -13 -24 rlinecurve
          -10 -19 -10 callgsubr
          -18 -42 1 2 -17 -67 -61 112 rlineto
          45 -25 -28 57 -3 hhcurveto
          -36 -82 -63 -13 -16 hvcurveto
          -16 -6 -21 -8 -2 -4 5 -28 27 -48 20 -31 56 -87 rcurveline
          3 -51 -102 3 -47 hhcurveto
          -13 -12 -6 -35 -42 vvcurveto
          -127 14 6 76 vhcurveto
          14 hlineto
          10 68 2 19 hhcurveto
          -22 -45 -24 -38 -41 -67 -6 -25 rlinecurve
          8 -2 rlineto
          553 7 rmoveto
          -1 1 -7 -1 vvcurveto
          -17 vlineto
          41 -8 rlineto
          14 -7 18 -12 15 vhcurveto
          -586 -17 rmoveto
          -23 callsubr
          -1 vvcurveto
          0 0 42 callgsubr
          vhcurveto
          -4 2 rmoveto
          -1 -19 callsubr
          vhcurveto
          endchar
        </CharString>
        <CharString name="at">
          131 -12 130 231 138 463 147 297 128 hstem
          79 156 210 175 438 118 310 132 vstem
          445 647 rmoveto
          -166 139 -132 161 142 77 61 89 71 vhcurveto
          33 hlineto
          44 -116 63 -49 70 -5 rrcurveto
          183 21 190 275 294 vvcurveto
          381 -363 222 -382 -402 -392 -296 -495 -425 351 -318 397 121 111 13 34 100 vhcurveto
          -23 71 -5 15 0 5 -6 20 rlinecurve
          -21 -74 -77 -7 -85 hhcurveto
          -339 -315 236 362 448 316 230 341 306 288 -137 -430 -140 -47 -177 -153 -65 hvcurveto
          -91 -19 63 72 44 9 56 6 23 hvcurveto
          68 382 -84 3 -11 -43 -16 -54 -11 -41 rlinecurve
          -10 -36 -72 107 rlineto
          49 -51 -75 27 -80 hhcurveto
          -255 -149 -213 -202 hvcurveto
          576 197 rmoveto
          23 -31 14 -40 -50 vvcurveto
          -137 -107 -134 -174 vhcurveto
          -85 3 -72 75 138 vvcurveto
          128 18 84 119 154 hhcurveto
          59 49 -23 -48 37 hvcurveto
          endchar
        </CharString>
        <CharString name="atilde">
          35 453 780 -780 785 hstemhm
          hintmask 10000000
          -60 callsubr
          -12 callgsubr
          hhcurveto
          hintmask 01000000
          -95 callsubr
          80 1411 -89 callgsubr
          -73 callgsubr
        </CharString>
        <CharString name="b">
          -16 -36 313 -282 282 605 357 318 -20 hstemhm
          hintmask 01110000
          1478 659 rmoveto
          4 -2 3 11 vvcurveto
          1 10 0 6 10 vvcurveto
          43 -10 62 -8 34 -11 callgsubr
          -20 74 -33 81 -44 58 -10 8 -23 callgsubr
          -12 10 -7 20 -20 20 -7 6 rcurveline
          -3 1 -2 3 -2 2 rrcurveto
          82 -82 -101 34 -104 hhcurveto
          -120 -138 -60 -99 -117 hvcurveto
          1 59 1 99 58 vvcurveto
          94 0 73 -2 94 vhcurveto
          -205 -189 0 -2 -205 hvcurveto
          -780 vlineto
          -262 1 -253 -265 vvcurveto
          512 hlineto
          43 84 46 32 rlineto
          hintmask 10110000
          -85 90 105 -62 125 hhcurveto
          414 100 339 299 3 hvcurveto
          1 51 rlineto
          -620 -94 rmoveto
          -13 vlineto
          -3 0 -4 -1 -4 vhcurveto
          -2 vlineto
          1 -3 0 -6 -2 vvcurveto
          -78 -32 -167 -94 -83 -46 164 83 66 2 74 13 63 vhcurveto
          52 11 33 103 67 hhcurveto
          104 25 -217 -106 hvcurveto
          endchar
        </CharString>
        <CharString name="backslash">
          -731 -53 -21 1637 -20 22 -20 24 -20 callgsubr
          860 -57 rmoveto
          -2 3 -1 7 3 vvcurveto
          -86 234 -87 232 -86 234 -58 157 -23 callgsubr
          -88 233 -96 262 -88 237 rrcurveto
          -1 5 0 4 3 5 1 2 1 vvcurveto
          0 20 callsubr
          1 vhcurveto
          hintmask 11000000
          -1 -24 -31 -1 -23 hhcurveto
          hintmask 10010000
          -73 -65 2 4 -70 hvcurveto
          hintmask 10100000
          -6 -4 152 -446 149 -451 147 -446 rlinecurve
          99 -296 rlineto
          3 21 29 -1 29 hhcurveto
          28 hlineto
          10 11 -1 10 hhcurveto
          117 21 callsubr
          1 8 hhcurveto
          40 hlineto
          13 8 7 9 hvcurveto
          endchar
        </CharString>
        <CharString name="bar">
          -1048 1571 -20 hstem
          109 293 vstem
          385 -9 callgsubr
          -44 -56 -27 callgsubr
          -2 -179 -1 -186 -4 -189 -3 -148 rcurveline
          -6 -291 -5 -308 -274 vvcurveto
          4 -4 3 -4 5 -3 11 -12 rcurveline
          -6 35 36 1 37 hhcurveto
          74 hlineto
          55 49 3 21 10 hvcurveto
          -5 340 -6 282 -4 321 -3 276 rlinecurve
          endchar
        </CharString>
        <CharString name="braceleft">
          -508 -317 340 -327 -21 1489 368 2 -20 hstemhm
          254 464 hintmask 10011000
          905 1531 rmoveto
          -8 hlineto
          -27 -23 3 -29 hhcurveto
          hintmask 10101000
          -128 -2 rlineto
          -203 -3 -233 -25 -316 vvcurveto
          -25 vlineto
          -3 1 -3 -2 vvcurveto
          2 -269 -9 -96 -105 -13 -77 -1 rlinecurve
          -9 -9 -3 -26 -23 vvcurveto
          -100 2 -93 4 -98 vhcurveto
          -2 24 -2 25 -3 vhcurveto
          35 -4 145 -23 -38 -50 12 -386 rlinecurve
          -253 13 219 -21 226 hhcurveto
          hintmask 01101000
          184 -8 rlineto
          12 13 1 95 88 12 -1 11 10 vvcurveto
          80 vlineto
          4 1 6 callgsubr
          22 vlineto
          hintmask 10101000
          5 -4 -11 0 -14 hhcurveto
          -14 hlineto
          -143 -14 47 115 hvcurveto
          18 vlineto
          20 2 19 17 vvcurveto
          36 vlineto
          155 -17 69 -98 46 -11 callsubr
          -86 32 rlineto
          97 33 104 68 103 vvcurveto
          58 0 52 2 54 vhcurveto
          3 80 rlineto
          97 7 39 22 72 hhcurveto
          48 hlineto
          7 -17 callsubr
          16 3 28 28 hvcurveto
          16 -1 16 11 vvcurveto
          83 vlineto
          56 1 47 60 vvcurveto
          endchar
        </CharString>
        <CharString name="braceright">
          -505 -332 363 -344 -21 1504 343 hstemhm
          315 470 hintmask 10110000
          776 1128 rmoveto
          382 -16 -204 3 -193 hhcurveto
          -98 hlineto
          -1 -2 -1 -4 hhcurveto
          -19 hlineto
          -3 -2 1 -2 hhcurveto
          -27 hlineto
          -31 -22 0 2 -30 hvcurveto
          -6 -14 -2 -32 -30 -23 2 -24 -17 vvcurveto
          -60 vlineto
          -47 -2 -47 -47 vvcurveto
          -4 11 0 21 134 35 -31 -100 vhcurveto
          -37 -3 -77 -60 vvcurveto
          -148 46 -65 167 -51 vhcurveto
          -177 -61 -39 -57 -5 -179 rrcurveto
          -38 1 -33 1 -28 1 callgsubr
          1 -18 0 -19 -11 vvcurveto
          -112 -58 -15 -75 vhcurveto
          -55 hlineto
          -16 -7 -1 -74 -53 -17 1 -16 -11 vvcurveto
          -3 -155 8 -10 -10 callgsubr
          hintmask 01110000
          7 -8 2 -5 7 -10 rrcurveto
          1 4 3 0 5 8 0 callgsubr
          66 hlineto
          hintmask 10110000
          10 10 2 9 hhcurveto
          126 1 rlineto
          32 callsubr
          46 hlineto
          180 161 69 328 45 -2 41 -2 41 hvcurveto
          -3 68 -40 callgsubr
          -1 16 -1 24 15 vvcurveto
          140 175 -60 23 33 vhcurveto
          11 -1 20 13 vvcurveto
          128 vlineto
          14 1 14 14 vvcurveto
          119 vlineto
          6 -1 5 -6 28 callsubr
          -10 callsubr
          hhcurveto
          -79 -114 6 116 hvcurveto
          59 6 59 70 vvcurveto
          8 vlineto
          endchar
        </CharString>
        <CharString name="bracketleft">
          -505 -330 361 -349 -21 1531 345 hstemhm
          198 443 hintmask 01110000
          988 1403 rmoveto
          91 -17 43 -95 vhcurveto
          -206 -90 -8 -200 hhcurveto
          -38 hlineto
          -34 -40 2 -40 hhcurveto
          -17 -13 -1 -7 hvcurveto
          -23 -491 0 -495 -488 vvcurveto
          -134 vlineto
          -10 -1 -8 -9 vvcurveto
          -77 vlineto
          -19 -2 -19 -19 vvcurveto
          -29 4 -28 21 -22 vhcurveto
          13 -14 rlineto
          hintmask 10110000
          250 253 9 256 hhcurveto
          23 3 0 35 26 8 -2 11 10 vvcurveto
          25 vlineto
          24 2 32 44 vvcurveto
          62 -5 67 -14 14 vhcurveto
          -37 hlineto
          -94 -95 -4 -101 hhcurveto
          -5 167 0 192 178 vvcurveto
          208 3 223 3 209 vhcurveto
          -6 75 92 -6 76 hhcurveto
          27 39 1 1 29 hvcurveto
          3 15 -1 143 1 51 rrcurveto
          -3 -210 rmoveto
          3 -2 0 1 1 hvcurveto
          endchar
        </CharString>
        <CharString name="bracketright">
          -504 -324 349 -334 -21 1500 367 8 -20 22 -20 hstemhm
          402 454 hintmask 10100100
          856 -214 rmoveto
          222 10 222 222 vvcurveto
          4 176 rlineto
          4 205 5 205 204 vvcurveto
          175 vlineto
          16 1 16 17 vvcurveto
          29 vlineto
          13 0 14 15 vvcurveto
          hintmask 10001100
          -81 -88 10 -78 -25 -24 -1 -24 hhcurveto
          -70 hlineto
          hintmask 10010100
          -40 -64 -1 -38 hhcurveto
          hintmask 10001100
          -65 -52 2 -73 hhcurveto
          -82 hlineto
          -10 -12 -2 -21 -22 -4 1 -5 -4 vvcurveto
          -32 vlineto
          -18 -1 -17 -18 vvcurveto
          -199 vlineto
          hintmask 10100100
          7 -11 9 -7 6 -7 rrcurveto
          55 55 3 56 hhcurveto
          150 hlineto
          7 -342 7 -350 -341 vvcurveto
          -115 vlineto
          -3 -87 -110 0 -88 hhcurveto
          -32 hlineto
          -20 -7 -5 -55 -86 2 -91 3 -84 hvcurveto
          -3 vlineto
          1 -10 1 -10 8 -2 rrcurveto
          -2 hlineto
          92 -2 92 0 93 -1 rrcurveto
          hintmask 01100100
          303 -3 rlineto
          11 11 0 11 hhcurveto
          51 45 1 3 51 hvcurveto
          10 11 1 9 13 vvcurveto
          24 1830 rmoveto
          10 hlineto
          hintmask 10001100
          -10 10 rlineto
          endchar
        </CharString>
        <CharString name="breve">
          -857 1388 257 -257 375 20 -20 hstem
          -112 1756 rmoveto
          15 -68 26 -82 38 -63 rrcurveto
          -118 77 157 -57 146 hhcurveto
          149 169 76 137 81 hvcurveto
          25 49 18 68 13 56 rrcurveto
          28 -2 -17 2 -22 -4 -2 40 callsubr
          -133 2 -52 1 -51 0 -52 3 rlinecurve
          -19 -13 -8 -22 -7 -20 -16 callsubr
          -31 -10 -13 -37 -53 hhcurveto
          -47 -19 30 32 -9 hvcurveto
          -21 71 6 -10 -134 6 rrcurveto
          -5 hlineto
          -22 1 -25 1 -20 1 -91 4 rcurveline
          -6 -3 -2 -4 hhcurveto
          -12 hlineto
          -6 -5 0 4 -10 hvcurveto
          -3 vmoveto
          2 -3 hlineto
          -2 2 rlineto
          endchar
        </CharString>
        <CharString name="brokenbar">
          -1046 1571 -20 hstem
          100 296 vstem
          386 -9 callgsubr
          -43 -57 -27 callgsubr
          -78 -10 -304 -340 -19 callgsubr
          21 8 hvcurveto
          -6 364 rlineto
          -739 vmoveto
          -2 5 0 8 9 13 1 13 9 5 -1 4 3 vvcurveto
          42 callgsubr
          0 vhcurveto
          2 -72 -72 1 -69 hhcurveto
          -36 -31 -5 -22 hvcurveto
          -18 vlineto
          -3 1 -3 -3 -92 -10 -324 -369 -19 callgsubr
          20 8 hvcurveto
          -4 338 -2 16 rlineto
          endchar
        </CharString>
        <CharString name="bullet">
          -397 368 -21 794 -20 hstem
          578 1141 rmoveto
          -257 -126 -210 -197 -19 hvcurveto
          -3 -3 rlineto
          -188 22 138 -196 253 hhcurveto
          212 188 167 229 228 -197 170 -211 hvcurveto
          -429 -410 rmoveto
          15 -10 9 10 rlineto
          13 vlineto
          -17 4 rlineto
          endchar
        </CharString>
        <CharString name="c">
          -20 -36 380 -358 -21 927 348 -8 callgsubr
          764 1240 rmoveto
          -44 -183 -10 -44 -120 hvcurveto
          -135 -72 -199 -106 -82 -243 -1 -188 rlinecurve
          -14 2 -18 2 -16 vhcurveto
          3 -21 14 -100 35 -118 64 -83 rlinecurve
          18 -21 80 -94 131 -63 129 -30 rlinecurve
          13 -4 rlineto
          -9 30 32 -8 33 hhcurveto
          -5 21 64 -9 35 35 17 5 28 hhcurveto
          hintmask 01100000
          -4 5 7 0 7 hhcurveto
          91 114 28 33 86 hvcurveto
          38 18 15 7 19 9 21 7 rlinecurve
          181 89 102 159 20 206 rrcurveto
          -62 -72 1 -59 hhcurveto
          -96 hlineto
          -35 -36 1 -25 hhcurveto
          -38 hlineto
          -75 -80 0 -4 -77 hvcurveto
          hintmask 10100000
          -53 -18 -122 -68 -65 -20 114 41 -3 vhcurveto
          11 hlineto
          -10 10 rlineto
          -2 -5 81 26 vvcurveto
          10 29 -16 241 108 8 4 -4 4 -2 4 -1 8 -5 rcurveline
          37 -37 10 -65 7 -51 5 -37 rcurveline
          626 hlineto
          23 -8 -12 87 -19 66 -36 73 rlinecurve
          -2 7 -86 159 -181 93 -169 42 rlinecurve
          -15 4 rlineto
          -1 -1 0 0 -1 8 callsubr
          hvcurveto
          -20 6 rlineto
          17 -56 -66 5 -62 hhcurveto
          endchar
        </CharString>
        <CharString name="caron">
          -830 1395 378 -358 -21 388 19 callgsubr
          436 1713 -51 callsubr
          hintmask 01100000
          -54 callgsubr
          hintmask 10000000
          40 41 2 37 hhcurveto
          hintmask 01100000
          -74 callgsubr
        </CharString>
        <CharString name="ccedilla">
          -20 457 0 99 203 endchar
        </CharString>
        <CharString name="cedilla">
          -935 -535 414 120 -20 82 -21 hstem
          353 261 vstem
          272 -2 rmoveto
          -17 42 callsubr
          1 -2 hhcurveto
          -5 hlineto
          -5 -1 -8 -3 -2 -2 -35 -62 -35 -66 -36 -62 rrcurveto
          -30 23 -17 21 -12 21 callgsubr
          22 -14 39 callsubr
          -9 13 10 -8 13 hhcurveto
          22 7 15 3 12 3 5 2 rlinecurve
          18 60 -1 -43 -63 -97 0 -13 -39 -38 10 14 -38 9 callsubr
          -22 7 -16 8 -22 8 -9 -5 -5 -9 -4 -12 -22 callgsubr
          -1 -4 -3 -5 -1 -4 -13 -29 rcurveline
          -15 -26 -14 -30 -15 vvcurveto
          -41 176 -25 112 168 154 80 153 105 -87 76 -165 vhcurveto
          35 65 24 19 22 vvcurveto
          6 -4 4 -7 1 vhcurveto
          -189 -282 rmoveto
          -7 -2 2 -19 5 1 rlineto
          endchar
        </CharString>
        <CharString name="cent">
          -43 -265 -21 951 420 hstem
          628 330 vstem
          929 1095 rmoveto
          4 78 -1 71 2 71 rrcurveto
          7 vlineto
          7 -12 -24 1 -38 hhcurveto
          -62 -170 2 -15 hvcurveto
          -58 2 -55 -61 vvcurveto
          -55 vlineto
          -241 -71 -246 -144 -337 vvcurveto
          -64 11 -66 17 -65 vhcurveto
          11 -125 78 -93 81 -68 75 -64 107 -25 103 -26 -3 -192 rcurveline
          25 -29 rlineto
          -4 74 70 -1 73 hhcurveto
          71 hlineto
          22 2 0 21 32 vvcurveto
          54 -2 71 -3 53 vhcurveto
          146 44 143 51 72 109 52 60 8 80 6 80 rrcurveto
          7 -2 -5 8 -5 hhcurveto
          -155 -135 0 3 -155 hvcurveto
          -6 -24 rlineto
          -57 -14 -18 -86 -110 hhcurveto
          -104 -10 107 68 hvcurveto
          7 vlineto
          -5 35 -1 39 44 vvcurveto
          90 5 217 138 4 vhcurveto
          96 2 -98 -60 hvcurveto
          -3 vlineto
          -4 8 20 -3 18 75 69 3 72 hhcurveto
          58 hlineto
          11 11 -1 11 hhcurveto
          48 53 1 5 10 hvcurveto
          -28 275 -167 124 -227 13 rrcurveto
          endchar
        </CharString>
        <CharString name="circumflex">
          -830 1399 376 3 19 callgsubr
          259 1410 -48 callgsubr
          hintmask 01000000
          -29 42 -34 53 -20 8 rrcurveto
          hintmask 10000000
          -41 callsubr
        </CharString>
        <CharString name="colon">
          -769 -35 453 -431 -21 660 453 -8 callgsubr
          645 218 rmoveto
          188 vlineto
          9 -11 -49 3 -44 hhcurveto
          -152 hlineto
          -16 -19 1 -21 hhcurveto
          -80 -118 -1 -10 hvcurveto
          -7 -125 -4 -131 -117 vvcurveto
          -33 vlineto
          -12 15 -12 8 -13 vhcurveto
          hintmask 01100000
          1 25 24 0 25 hhcurveto
          39 hlineto
          hintmask 10100000
          18 21 -1 24 hhcurveto
          119 189 4 19 17 hvcurveto
          -1 21 0 22 21 vvcurveto
          72 vlineto
          5 671 rmoveto
          -5 136 rlineto
          3 0 3 2 12 1 11 12 vvcurveto
          31 -1 32 -1 31 vhcurveto
          11 -80 0 -55 vhcurveto
          -39 -39 -1 -37 hhcurveto
          -69 hlineto
          -24 -23 -1 -25 hhcurveto
          -38 -34 0 1 -38 hvcurveto
          -13 -14 -2 -118 -79 vvcurveto
          -60 vlineto
          -27 -2 -18 -25 vvcurveto
          -20 vlineto
          -20 0 -15 1 -20 vhcurveto
          23 -36 rlineto
          163 162 6 9 165 hvcurveto
          10 2 15 17 28 -2 18 -7 29 hvcurveto
          endchar
        </CharString>
        <CharString name="comma">
          -805 -228 -21 671 -20 hstem
          526 -49 rmoveto
          19 63 10 32 12 30 8 32 rlinecurve
          13 43 26 87 28 83 29 86 rlinecurve
          4 vlineto
          8 -67 callsubr
          -20 0 -2 -18 hvcurveto
          -25 -26 -58 -270 -43 -187 -8 -35 rcurveline
          -12 -54 -6 -49 -8 -25 4 -6 rcurveline
          2 -3 9 -9 3 -2 rrcurveto
          -34 callgsubr
          94 94 3 12 15 hvcurveto
          3 10 21 57 23 61 18 58 rlinecurve
          endchar
        </CharString>
        <CharString name="copyright">
          106 -66 207 153 222 -222 356 346 204 156 202 hstemhm
          264 106 42 249 617 117 41 219 hintmask 1011111110000000
          1475 241 rmoveto
          111 133 65 181 4 178 rrcurveto
          464 -22 -370 361 -436 hhcurveto
          -338 -455 -237 -576 -22 hvcurveto
          28 -217 97 -306 262 -163 -22 callgsubr
          -79 141 163 -47 140 hhcurveto
          252 219 121 187 161 hvcurveto
          -632 1114 rmoveto
          316 -5 277 -249 -324 vvcurveto
          -362 -288 -275 -326 -324 -275 292 325 vhcurveto
          21 161 30 115 117 126 rrcurveto
          121 112 157 75 169 hhcurveto
          33 -156 rmoveto
          -217 -216 -185 -258 -17 hvcurveto
          -218 6 131 -245 322 hhcurveto
          176 147 149 188 43 hvcurveto
          17 -6 -23 3 -24 hhcurveto
          -13 hlineto
          -4 -5 13 callsubr
          -80 hlineto
          -28 -18 0 -2 -27 hvcurveto
          hintmask 1101111110000000
          -63 -66 26 -69 -126 hhcurveto
          -125 -52 116 116 103 41 145 149 79 46 -44 -70 23 hvcurveto
          8 -8 rlineto
          149 21 callsubr
          -1 9 hhcurveto
          25 19 2 7 3 hvcurveto
          181 -40 -113 137 -211 hhcurveto
          365 -317 rmoveto
          0 20 callsubr
          vvcurveto
          1 -1 rlineto
          endchar
        </CharString>
        <CharString name="currency">
          -62 38 263 643 239 80 -20 hstem
          249 229 571 246 vstem
          306 353 rmoveto
          -1 hlineto
          13 -40 18 -34 31 -39 -57 -60 rcurveline
          -33 -35 -31 -40 -25 -44 7 -4 10 -5 10 -2 14 -11 rcurveline
          -1 1 2 0 3 hhcurveto
          18 30 32 38 33 hvcurveto
          71 76 112 -95 117 -16 103 -12 rlinecurve
          3 7 -2 5 hhcurveto
          45 1 115 11 120 30 109 109 rlinecurve
          96 -102 rlineto
          -37 34 29 -33 19 hhcurveto
          3 3 1 1 2 hvcurveto
          -3 -1 17 10 12 3 4 2 9 6 rlinecurve
          -25 47 -30 36 -35 37 -85 89 rcurveline
          60 96 29 109 111 vvcurveto
          124 -24 174 -92 121 vhcurveto
          53 57 rlineto
          -1 hlineto
          14 15 19 18 18 19 7 8 rcurveline
          44 45 45 45 2 14 -5 4 rcurveline
          1 -1 -10 8 -26 23 -9 3 rlinecurve
          -200 -210 -23 19 rlineto
          79 -85 -127 33 -136 hhcurveto
          -125 -99 -36 -66 -94 hvcurveto
          -170 182 rlineto
          -11 -2 -39 -25 -9 vvcurveto
          -14 66 -68 51 -52 vhcurveto
          53 -55 -114 -117 -27 -192 -2 -103 rlinecurve
          6 -110 8 -50 17 -47 14 -33 rlinecurve
          1035 877 rmoveto
          -39 callgsubr
          -1 vhcurveto
          2 3 -7 -3 rlineto
          -1056 3 rmoveto
          3 -3 rlineto
          1 34 callsubr
          hhcurveto
          201 -628 rmoveto
          259 152 51 104 vhcurveto
          35 hlineto
          127 153 -11 -321 -302 -182 -9 -100 hvcurveto
          -25 42 callsubr
          41 callgsubr
          -30 -34 5 24 -30 hvcurveto
          -91 39 -70 75 191 vvcurveto
          endchar
        </CharString>
        <CharString name="d">
          -12 -36 311 605 359 315 -43 callsubr
          hintmask 11100000
          874 1554 rmoveto
          -265 vlineto
          -60 -3 -26 -15 vvcurveto
          -6 vlineto
          -6 1 -5 5 -16 vhcurveto
          2 -8 2 -11 5 -16 2 -8 rlinecurve
          -31 -14 -12 13 -8 3 -9 6 rlinecurve
          1 -1 -21 13 rlineto
          52 -76 -111 55 -90 -28 -22 -6 -35 -5 -5 1 -5 hhcurveto
          -197 -21 -115 -209 -49 -169 rrcurveto
          -23 -90 -14 -116 -102 vvcurveto
          -335 210 -228 261 175 97 60 103 116 vhcurveto
          40 -70 9 -27 10 -17 12 -19 rlinecurve
          510 hlineto
          hintmask 11010000
          523 -1 515 523 vvcurveto
          hintmask 11100000
          -99 -103 -1 -98 hhcurveto
          -264 -1011 rmoveto
          -32 -8 -192 -97 -39 -11 callsubr
          -4 -6 -8 -1 -7 hhcurveto
          -51 -50 96 27 -6 hvcurveto
          1 -1 rlineto
          -12 33 -9 45 35 vvcurveto
          3 0 4 2 6 vhcurveto
          -1 3 callgsubr
          4 vvcurveto
          7 0 8 2 6 vhcurveto
          -1 5 0 10 4 vvcurveto
          91 39 216 86 56 48 -110 -68 10 vhcurveto
          6 -45 5 -60 1 -54 rrcurveto
          endchar
        </CharString>
        <CharString name="dagger">
          -24 -14 -21 891 355 314 -20 hstem
          556 442 vstem
          1069 865 rmoveto
          -4 50 45 -5 48 hhcurveto
          70 hlineto
          22 24 2 11 6 hvcurveto
          32 vlineto
          95 -4 94 99 vvcurveto
          4 vlineto
          12 0 6 -30 vhcurveto
          -103 -108 -6 -100 hhcurveto
          147 vlineto
          12 1 11 11 vvcurveto
          67 vlineto
          61 -17 11 -25 vhcurveto
          -16 -22 -3 -21 hhcurveto
          -327 3 -4 -6 -2 -13 -1 -10 rlinecurve
          -16 vlineto
          -4 1 -4 -3 vvcurveto
          -7 vlineto
          -83 -4 -82 -85 vvcurveto
          -7 -25 -11 0 -11 -94 -93 7 -93 hhcurveto
          -20 -3 -63 -78 -27 1 -27 1 -27 39 callgsubr
          1 -15 1 -17 -15 4 callsubr
          -13 -1 -11 -10 vvcurveto
          -27 5 -17 40 vhcurveto
          211 hlineto
          26 37 -1 24 hhcurveto
          -47 vlineto
          -261 -7 -249 -257 vvcurveto
          -40 5 -13 19 -20 vhcurveto
          4 72 70 1 74 16 17 -1 18 hhcurveto
          150 21 callsubr
          10 8 2 hvcurveto
          296 -4 269 267 vvcurveto
          5 13 -1 -1 9 34 rlineto
          endchar
        </CharString>
        <CharString name="daggerdbl">
          -24 -13 -21 261 346 371 329 254 -20 hstem
          573 405 vstem
          1341 289 rmoveto
          4 -1 5 4 vvcurveto
          54 vlineto
          6 -1 7 7 vvcurveto
          20 vlineto
          -1 13 0 22 14 vvcurveto
          101 vlineto
          25 -10 2 -15 vhcurveto
          -83 hlineto
          -15 -15 -1 -14 hhcurveto
          -43 hlineto
          -46 -65 3 3 -46 hvcurveto
          110 -3 137 -5 112 vhcurveto
          42 8 rlineto
          24 25 -1 24 hhcurveto
          209 hlineto
          14 11 2 5 5 hvcurveto
          87 -2 151 -3 86 vhcurveto
          -2 -19 vlineto
          -105 -121 0 -1 -107 hvcurveto
          23 2 43 26 vvcurveto
          21 vlineto
          8 1 7 6 vvcurveto
          1 63 rlineto
          5 callsubr
          4 vvcurveto
          33 -1 10 -28 vhcurveto
          -73 -65 5 -79 hhcurveto
          -38 -47 -1 -5 -49 hvcurveto
          -22 -2 -5 -5 -21 -73 -3 -72 -81 vvcurveto
          -112 -142 7 -95 hhcurveto
          -2 -2 -2 -3 -4 vvcurveto
          -306 vlineto
          -14 47 -2 43 vhcurveto
          7 8 1 7 hhcurveto
          60 hlineto
          -4 3 -1 4 vhcurveto
          37 35 3 37 hhcurveto
          65 hlineto
          -5 -69 -2 -91 -70 vvcurveto
          -141 vlineto
          -120 -116 4 -109 hhcurveto
          -12 -5 -2 -42 -37 -17 1 -16 -11 -35 -3 -45 -36 vvcurveto
          -43 4 -49 13 -12 vhcurveto
          116 108 -4 110 hhcurveto
          1 -147 rlineto
          -45 1 -27 26 -39 vhcurveto
          82 hlineto
          11 11 1 10 hhcurveto
          117 hlineto
          38 33 -1 24 hhcurveto
          73 10 5 63 hvcurveto
          45 -2 45 48 vvcurveto
          54 vlineto
          4 57 76 3 58 hhcurveto
          78 hlineto
          24 24 1 1 25 hvcurveto
          -3 hlineto
          13 3 1 24 28 vvcurveto
          -961 631 rmoveto
          7 4 3 7 3 0 3 -1 4 hvcurveto
          -10 hlineto
          endchar
        </CharString>
        <CharString name="degree">
          -662 975 -21 614 -20 hstem
          748 1265 rmoveto
          180 -149 123 -156 -190 -100 -144 -154 -29 vhcurveto
          -223 2 183 -93 151 hhcurveto
          155 130 150 147 3 hvcurveto
          endchar
        </CharString>
        <CharString name="dieresis">
          -881 1412 -29 callsubr
          -108 361 hintmask 11010000
          820 1805 -81 callsubr
          hintmask 10110000
          -102 callgsubr
          hintmask 11010000
          -91 callgsubr
        </CharString>
        <CharString name="divide">
          -258 -24 293 116 287 123 287 hstem
          517 296 vstem
          469 672 rmoveto
          3 -92 -88 0 -90 hhcurveto
          -59 hlineto
          -29 -26 -7 -141 -85 vvcurveto
          -20 3 -18 13 -18 vhcurveto
          95 1 89 5 91 3 254 9 rcurveline
          4 51 57 4 57 hhcurveto
          25 hlineto
          104 114 3 3 104 hvcurveto
          38 callsubr
          -2 19 9 1 6 4 vhcurveto
          4 -1 2 5 vvcurveto
          46 vlineto
          62 9 58 83 vvcurveto
          1 -1 1 -2 vhcurveto
          -2 -97 -110 -1 -97 hhcurveto
          -143 -137 4 4 -143 hvcurveto
          327 -608 rmoveto
          6 18 5 18 24 vvcurveto
          91 -77 54 -76 -78 -65 -65 -91 -94 84 -43 65 58 56 34 55 22 vhcurveto
          -17 787 rmoveto
          21 29 13 25 37 vvcurveto
          88 -77 51 -73 -75 -71 -54 -90 -88 65 -55 74 44 52 21 36 27 vhcurveto
          endchar
        </CharString>
        <CharString name="dollar">
          -96 -248 -21 1349 471 211 -20 hstem
          574 314 vstem
          613 1120 rmoveto
          2 59 58 15 51 12 26 6 rcurveline
          83 -1 33 -38 14 -50 rrcurveto
          -37 10 1 -6 50 hhcurveto
          79 79 2 3 79 hvcurveto
          60 2 rlineto
          2 56 65 1 57 1 1 25 callsubr
          1 2 rlineto
          356 -277 85 -262 19 vhcurveto
          39 4 44 45 vvcurveto
          44 -3 39 -19 vhcurveto
          -70 -65 -3 -73 hhcurveto
          -28 -22 1 1 -28 hvcurveto
          -4 -8 -2 -22 -20 vvcurveto
          -59 2 -57 3 -41 vhcurveto
          -227 -50 -289 -92 -370 vvcurveto
          -156 68 -141 170 -76 vhcurveto
          83 -41 154 -39 111 -29 38 -10 rcurveline
          55 -15 43 -19 18 -1 rrcurveto
          47 -3 57 -28 -56 vvcurveto
          -85 -73 -40 -78 -156 41 148 16 -37 vhcurveto
          -478 hlineto
          -16 -17 2 -15 hhcurveto
          -25 -23 -3 -13 -2 hvcurveto
          23 -239 121 -202 296 -50 rrcurveto
          67 -11 27 -8 -119 vvcurveto
          -25 0 -12 -1 -24 vhcurveto
          28 -26 rlineto
          -4 100 98 -2 102 hhcurveto
          14 8 7 11 1 hvcurveto
          6 -1 6 5 vvcurveto
          -3 174 rlineto
          280 54 299 123 336 vvcurveto
          157 -63 139 -126 95 vhcurveto
          1 -1 -82 49 -130 41 -102 27 rlinecurve
          1 hlineto
          -153 34 -91 20 -126 27 -3 79 rlinecurve
          endchar
        </CharString>
        <CharString name="dotaccent">
          -885 1140 372 -356 -21 hstemhm
          158 361 hintmask 10100000
          167 1512 rmoveto
          -16 -11 5 -148 -4 -65 -3 -51 rcurveline
          -1 -23 -3 -18 -23 vvcurveto
          -1 2 -3 0 vhcurveto
          11 -16 rlineto
          hintmask 01100000
          4 -8 -1 -2 8 -8 211 6 rcurveline
          hintmask 10100000
          12 callgsubr
          39 hlineto
          43 42 1 12 3 hvcurveto
          -3 vlineto
          1 25 0 20 25 vvcurveto
          31 vlineto
          -1 21 0 46 -1 32 -3 121 rcurveline
          3 1 -31 callsubr
          12 0 11 -4 2 vhcurveto
          3 -88 -92 4 -92 hhcurveto
          endchar
        </CharString>
        <CharString name="dotlessi">
          -14 callgsubr
          hstem
          -100 callsubr
          endchar
        </CharString>
        <CharString name="e">
          -65 -33 474 -456 -21 616 132 246 281 hstemhm
          hintmask 01110000
          -82 callsubr
          -62 callsubr
          hintmask 10110000
          -96 callsubr
          endchar
        </CharString>
        <CharString name="eacute">
          -65 645 -20 377 229 -47 callgsubr
          rrcurveto
          hintmask 10000000
          -42 4 rlineto
          -86 callgsubr
          -261 1069 -78 callsubr
        </CharString>
        <CharString name="ecircumflex">
          -65 378 0 101 15 callgsubr
        </CharString>
        <CharString name="edieresis">
          -65 -2 6 1019 -21 410 -20 hstemhm
          -11 435 hintmask 10110000
          -65 callsubr
          hintmask 01110000
          -61 callgsubr
          -42 4 rcurveline
          -89 callsubr
          rrcurveto
          hintmask 10110000
          -92 callsubr
          332 1080 -83 callsubr
        </CharString>
        <CharString name="egrave">
          -65 503 0 101 14 callsubr
        </CharString>
        <CharString name="eight">
          -89 -59 301 404 235 381 306 hstem
          84 489 321 492 vstem
          1388 209 rmoveto
          26 55 17 63 66 vvcurveto
          91 -27 84 -59 74 vhcurveto
          -41 51 -78 40 -86 43 rrcurveto
          158 56 88 106 150 vvcurveto
          353 -340 127 -323 -285 -354 -120 -357 -141 71 -116 152 -70 vhcurveto
          -186 -93 -70 -131 -14 -149 rrcurveto
          -222 26 126 -228 514 hhcurveto
          106 132 2 28 115 hvcurveto
          148 36 134 91 50 111 rrcurveto
          -656 437 rmoveto
          127 57 -82 -135 -109 -66 -78 -117 -114 -60 80 114 -13 hvcurveto
          114 74 96 112 vhcurveto
          -4 616 rmoveto
          127 39 -79 -109 -97 -41 -96 -117 -131 -32 95 95 75 44 116 111 hvcurveto
          endchar
        </CharString>
        <CharString name="ellipsis">
          535 -33 448 -427 -31 callgsubr
          454 -20 hstemhm
          hintmask 00110000
          2016 198 rmoveto
          19 -1 19 18 vvcurveto
          153 vlineto
          -25 10 -97 -1 -39 3 rrcurveto
          -84 -52 3 -67 hhcurveto
          -59 -89 -1 -12 hvcurveto
          -7 -113 -4 -113 -113 vvcurveto
          -23 1 -19 1 -22 vhcurveto
          -6 vlineto
          11 -19 rlineto
          -2 hlineto
          4 -3 4 -6 5 -6 rrcurveto
          32 30 2 29 hhcurveto
          8 hlineto
          23 50 -2 61 hhcurveto
          hintmask 01010000
          111 144 3 19 13 hvcurveto
          -1 48 -1 50 49 vvcurveto
          30 35 callgsubr
          6 vvcurveto
          -513 -202 rmoveto
          3 -4 -4 1 -3 hhcurveto
          -4 -2 -3 -6 hvcurveto
          -176 181 rmoveto
          250 vlineto
          9 -11 -49 3 -44 hhcurveto
          -105 hlineto
          -12 -14 1 -16 hhcurveto
          -105 -156 -1 -9 hvcurveto
          -5 -117 -5 -122 -116 vvcurveto
          -23 0 -14 1 -20 vhcurveto
          23 -32 rlineto
          29 31 1 29 hhcurveto
          26 hlineto
          15 22 -1 25 hhcurveto
          113 185 7 19 28 hvcurveto
          -5 52 0 57 56 vvcurveto
          -698 -55 -2 callsubr
          -40 15 callsubr
          -122 -115 -6 callgsubr
          -4 -33 -33 vvcurveto
          -8 0 -7 2 -9 vhcurveto
          23 -36 rlineto
          169 161 8 10 -22 callsubr
        </CharString>
        <CharString name="emdash">
          506 364 370 -354 -21 30 345 4 -43 callsubr
          hintmask 01001000
          2097 526 rmoveto
          20 1 37 1 15 -11 callgsubr
          1 32 1 45 39 vvcurveto
          12 -2 11 -5 3 vhcurveto
          hintmask 01010000
          -33 -65 -1 -32 hhcurveto
          -779 -3 rlineto
          -2 -265 -266 -4 -264 hhcurveto
          -398 hlineto
          hintmask 10000000
          3 -7 -4 2 -5 hhcurveto
          7 -10 -1 -231 -102 vvcurveto
          3 -8 5 -6 3 -3 rrcurveto
          hintmask 01100000
          11 -15 rlineto
          22 24 1 1 22 hvcurveto
          hintmask 10000000
          74 3 rlineto
          hintmask 01100000
          12 372 397 13 373 hhcurveto
          47 hlineto
          260 240 -1 -7 249 hvcurveto
          3 1 5 3 2 2 rrcurveto
          endchar
        </CharString>
        <CharString name="endash">
          -486 359 379 3 31 callgsubr
          1066 378 rmoveto
          13 2 13 14 108 -3 109 -4 108 hvcurveto
          6 -5 -22 5 -16 -19 -27 -2 -13 hhcurveto
          hintmask 10000000
          -45 -1 rlineto
          -4 -158 -179 -1 -155 -142 -154 4 -139 hhcurveto
          -11 -2 -48 -54 hvcurveto
          -28 1 -30 -26 vvcurveto
          -18 0 -15 -1 -12 1 callgsubr
          -1 -31 -1 -30 -31 vvcurveto
          -35 9 -9 15 -12 -11 callsubr
          289 282 16 280 hhcurveto
          202 3 rlineto
          endchar
        </CharString>
        <CharString name="equal">
          -267 105 298 -298 326 192 306 -277 277 4 -20 callgsubr
          1175 124 rmoveto
          11 2 18 18 hvcurveto
          4 -1 4 5 vvcurveto
          103 vlineto
          58 -1 63 -8 14 vhcurveto
          -84 -6 -86 1 -79 -2 -38 -1 rcurveline
          hintmask 01100000
          -254 -250 12 16 -7 callsubr
          -9 -20 -3 -29 -27 vvcurveto
          -15 vlineto
          31 callsubr
          -25 vlineto
          -6 -1 -7 -7 vvcurveto
          -19 vlineto
          -1 -12 0 -11 -11 vvcurveto
          -36 1 -28 2 -32 vhcurveto
          21 -26 rlineto
          4 262 241 11 269 hhcurveto
          295 666 rmoveto
          57 -1 72 -6 14 vhcurveto
          hintmask 10001000
          -340 -308 4 -321 hhcurveto
          -102 hlineto
          -10 -2 -26 -32 hvcurveto
          -12 vlineto
          -4 37 callsubr
          -24 vlineto
          -9 -1 -10 -9 vvcurveto
          -84 vlineto
          -21 1 -17 1 -19 vhcurveto
          -6 vlineto
          hintmask 10100000
          21 -27 rlineto
          hintmask 10010000
          262 12 255 5 263 12 286 10 rcurveline
          -1 8 callsubr
          vhcurveto
          10 -11 rmoveto
          0 -5 4 -5 7 vhcurveto
          -22 vlineto
          endchar
        </CharString>
        <CharString name="eth">
          -87 61 -21 23 -21 24 -31 callgsubr
          609 214 hstemhm
          hintmask 00011000
          799 46 rmoveto
          6 -3 rlineto
          280 14 344 198 473 vvcurveto
          268 -116 150 -43 53 vhcurveto
          187 -139 -318 16 -221 hhcurveto
          -134 hlineto
          -108 -95 -2 -12 -109 9 callsubr
          -3 -12 -10 -1 -14 hhcurveto
          -11 hlineto
          -5 -4 -1 -2 -1 hvcurveto
          5 -4 rlineto
          -46 vlineto
          -63 4 -74 4 -66 vhcurveto
          -163 vlineto
          3 -49 rlineto
          -11 0 -12 3 -24 vhcurveto
          -119 hlineto
          -13 -2 -25 -22 hvcurveto
          -13 2 -15 -13 vvcurveto
          -11 vlineto
          -27 -2 -28 -29 vvcurveto
          -16 vlineto
          -6 -1 -2 -5 vvcurveto
          8 -6 6 -5 10 -4 rrcurveto
          33 46 0 1 31 hvcurveto
          -24 -1 -36 -24 vvcurveto
          -66 vlineto
          -86 0 -81 -2 -83 vhcurveto
          -137 vlineto
          hintmask 10001000
          -20 1 -17 15 -29 vhcurveto
          hintmask 00011000
          90 153 6 106 hhcurveto
          hintmask 00101000
          9 7 -28 callgsubr
          111 hlineto
          hintmask 01001000
          -3 37 33 0 36 hhcurveto
          11 21 1 1 12 hvcurveto
          hintmask 00011000
          -129 284 rmoveto
          -27 15 -4 72 78 vvcurveto
          22 vlineto
          8 1 9 10 vvcurveto
          43 vlineto
          6 -1 5 4 vvcurveto
          55 vlineto
          1 33 53 0 33 hhcurveto
          10 2 15 13 hvcurveto
          53 vlineto
          10 1 9 10 vvcurveto
          46 -2 57 -11 vhcurveto
          -56 hlineto
          -6 -17 callgsubr
          -49 31 hlineto
          24 2 10 17 vvcurveto
          60 vlineto
          4 -1 6 callgsubr
          11 vlineto
          -1 8 0 17 12 vvcurveto
          14 23 rlineto
          -2 vlineto
          11 37 rlineto
          27 hlineto
          113 144 -30 -239 13 hvcurveto
          1 -17 1 -15 3 -17 rrcurveto
          -81 vlineto
          -130 -5 0 -273 -251 hhcurveto
          endchar
        </CharString>
        <CharString name="exclam">
          -748 -34 362 1200 -20 hstem
          622 562 rmoveto
          28 250 21 255 21 251 14 188 rcurveline
          18 -2 -32 4 -39 hhcurveto
          -87 -1 -83 0 -75 -6 -64 -5 rcurveline
          -56 hlineto
          1 -162 -2 -14 hvcurveto
          -42 7 -43 -36 vvcurveto
          27 -396 2 -42 5 -46 3 -42 rlinecurve
          10 -130 6 -59 -15 -102 46 -21 rlinecurve
          39 36 callsubr
          5 hhcurveto
          31 hlineto
          28 30 1 26 hhcurveto
          40 hlineto
          13 14 1 14 7 6 -4 callgsubr
          60 hlineto
          51 41 3 16 2 hvcurveto
          33 -409 rmoveto
          45 0 42 -1 45 vhcurveto
          6 0 9 1 5 40 callgsubr
          42 callgsubr
          2 vvcurveto
          17 -53 0 -457 -5 -14 -230 -101 vhcurveto
          17 -16 10 -15 rlineto
          27 25 1 1 27 hvcurveto
          8 hlineto
          60 63 4 79 hhcurveto
          20 hlineto
          83 3 100 2 13 12 rrcurveto
          -4 52 0 55 57 vvcurveto
          endchar
        </CharString>
        <CharString name="exclamdown">
          -756 -394 -21 1286 355 -1 -20 callgsubr
          692 -253 rmoveto
          -17 242 -24 259 -23 240 -8 57 rcurveline
          132 -22 49 18 -183 hhcurveto
          -167 hlineto
          -7 -29 1 -26 hhcurveto
          -23 -21 -1 -3 -2 hvcurveto
          -31 -27 -20 -489 -22 -175 -11 -87 -11 -91 -4 -82 -13 -138 rcurveline
          1 -1 1 -2 0 vvcurveto
          20 -15 512 9 rlineto
          -20 callsubr
          -1 hlineto
          32 2 41 0 8 18 rrcurveto
          12 -1 18 -1 12 vhcurveto
          -3 47 rlineto
          -36 1303 rmoveto
          93 -2 107 -9 18 vhcurveto
          hintmask 11000000
          -15 -19 1 -21 hhcurveto
          -169 hlineto
          -71 -71 -2 -70 hhcurveto
          -69 hlineto
          -5 -3 -79 -60 hvcurveto
          -15 vlineto
          -8 -1 -7 -8 vvcurveto
          -5 -154 7 -10 8 -9 10 -10 rlinecurve
          64 93 7 74 hhcurveto
          87 hlineto
          12 12 -1 12 hhcurveto
          71 68 3 15 12 hvcurveto
          1 2 rmoveto
          7 callsubr
          0 vvcurveto
          -2 vlineto
          endchar
        </CharString>
        <CharString name="f">
          -647 30 callsubr
          436 -20 hstemhm
          161 504 hintmask 10111000
          -71 callsubr
          hhcurveto
          hintmask 01111000
          -68 callsubr
          endchar
        </CharString>
        <CharString name="fi">
          325 16 -21 838 302 169 267 15 -20 hstemhm
          161 504 hintmask 11101000
          -71 callsubr
          -68 callsubr
          351 86 -37 callsubr
          hintmask 11011000
          10 vlineto
          -76 callgsubr
        </CharString>
        <CharString name="five">
          -71 -60 356 -356 466 291 310 152 371 10 -20 hstemhm
          129 480 hintmask 10110100
          631 624 rmoveto
          47 11 26 26 58 hhcurveto
          110 9 -112 -94 -78 -12 -117 -112 hvcurveto
          hintmask 01110100
          -88 18 93 17 -25 hvcurveto
          -111 -75 5 -89 hhcurveto
          -167 hlineto
          -7 -8 29 callgsubr
          -40 -40 -4 -12 -5 hvcurveto
          14 -89 24 -90 41 -62 rrcurveto
          -168 131 244 -47 204 hhcurveto
          323 355 146 439 278 -189 204 -299 -97 -121 -34 -65 -97 hvcurveto
          6 1 26 8 vvcurveto
          7 96 2 35 -3 45 10 35 rlinecurve
          3 216 225 1 216 hhcurveto
          19 hlineto
          26 -1 8 150 hvcurveto
          195 vlineto
          10 -6 -21 4 -18 -5 -5 13 callsubr
          -984 9 rlineto
          hintmask 10101100
          -48 -39 0 2 -49 hvcurveto
          -14 -21 -4 -33 -28 vvcurveto
          -36 vlineto
          -2 -29 0 -26 -28 vvcurveto
          -192 vlineto
          -65 1 -66 1 -67 vhcurveto
          3 -220 rlineto
          -5 -1 -5 -4 vvcurveto
          -42 vlineto
          -31 -2 -66 39 vhcurveto
          11 12 0 11 hhcurveto
          196 hlineto
          68 68 0 -3 71 hvcurveto
          28 3 -8 19 6 28 rrcurveto
          1 2 rmoveto
          7 callsubr
          vvcurveto
          18 -7 rlineto
          endchar
        </CharString>
        <CharString name="fl">
          706 30 callsubr
          435 -43 callsubr
          161 504 hintmask 10101100
          -71 callsubr
          hhcurveto
          hintmask 01101100
          -68 callsubr
          963 214 16 callgsubr
          hintmask 01110100
          -18 callgsubr
        </CharString>
        <CharString name="florin">
          -43 -430 -21 2012 -20 hstem
          1315 1485 rmoveto
          1 10 3 7 1 12 -34 47 -262 -3 -28 3 -257 -3 -162 -120 -69 -443 -8 -62 rcurveline
          -80 -9 -93 -11 -84 -8 rrcurveto
          -27 -17 -3 -82 -84 vvcurveto
          -41 1 -40 1 -32 1 callgsubr
          3 -53 4 -7 16 -18 1 -1 rcurveline
          -1 17 16 0 19 hhcurveto
          19 21 callsubr
          -1 9 hhcurveto
          24 hlineto
          -3 12 12 -2 8 hhcurveto
          50 1 -10 -55 -13 -73 -8 -57 rlinecurve
          -6 -43 -13 -90 -14 -88 -16 -86 rlinecurve
          -79 -15 -36 -48 -61 hhcurveto
          -15 -18 3 11 -27 hvcurveto
          -6 -6 rlineto
          11 -11 -8 4 -3 hhcurveto
          -21 -16 -15 -182 -15 -74 -2 -15 rcurveline
          -4 -11 -3 -12 -11 vvcurveto
          -46 296 -13 17 151 151 51 142 83 vhcurveto
          48 93 29 162 18 130 4 29 rcurveline
          6 41 4 42 6 32 48 264 rcurveline
          98 11 94 -5 97 11 rrcurveto
          1 3 0 13 14 vvcurveto
          81 -4 69 -3 73 vhcurveto
          84 vlineto
          1 -1 -3 0 -4 hhcurveto
          -16 hlineto
          -3 -4 40 callsubr
          -68 12 -37 -2 -87 18 4 36 21 103 15 51 rrcurveto
          -1 -1 -7 callgsubr
          vvcurveto
          77 17 30 25 41 hhcurveto
          14 hlineto
          4 15 -1 2 hhcurveto
          -11 vlineto
          -7 27 38 -8 13 hhcurveto
          11 9 rlineto
          -1088 -1266 rmoveto
          1 hlineto
          1 6 -2 1 hhcurveto
          17 21 -8 -1 21 21 -41 25 rcurveline
          -9 -52 rlineto
          1007 1235 rmoveto
          2 2 6 1 9 vhcurveto
          10 vlineto
          -2 -12 1 -2 hhcurveto
          -21 hlineto
          16 -28 rlineto
          -77 -29 rmoveto
          -3 -7 -4 -8 -4 hvcurveto
          15 -10 6 5 rlineto
          179 61 rmoveto
          -3 0 -2 3 vhcurveto
          7 -3 -9 12 rlineto
          -2 5 callgsubr
          vvcurveto
          endchar
        </CharString>
        <CharString name="four">
          -107 -13 -21 255 338 -338 398 -364 304 965 -20 hstemhm
          781 487 hintmask 11001100
          1421 619 rmoveto
          -8 -7 -1 -7 hhcurveto
          -65 hlineto
          -55 -11 50 49 hvcurveto
          16 2 25 14 vvcurveto
          24 vlineto
          27 -1 44 25 194 7 189 195 vvcurveto
          48 vlineto
          -1 0 1 0 9 callsubr
          -17 5 rlineto
          -185 hlineto
          -112 -107 -3 -4 -114 hvcurveto
          -90 -3 -16 callgsubr
          -29 -3 -78 6 -14 -14 -74 -121 -74 -111 -58 -89 -8 -13 -9 -18 -9 -12 -22 callgsubr
          -121 -183 -93 -147 -82 -205 rrcurveto
          -5 -115 -1 -84 -162 vvcurveto
          -28 18 30 1 28 hhcurveto
          41 -1 41 4 38 1 286 3 rcurveline
          hintmask 10011100
          16 40 71 15 47 hhcurveto
          41 28 -9 -34 hvcurveto
          -36 vlineto
          -55 -2 -56 -67 vvcurveto
          9 -11 4 -4 2 -4 1 -2 rlinecurve
          8 -12 rlineto
          38 callsubr
          0 vhcurveto
          8 callsubr
          1 vvcurveto
          0 8 callsubr
          -1 vhcurveto
          6 101 93 0 97 hhcurveto
          37 hlineto
          68 67 -1 -1 67 hvcurveto
          19 2 1 16 26 vvcurveto
          62 -1 83 -2 62 vhcurveto
          85 hlineto
          hintmask 11001100
          8 7 1 8 hhcurveto
          58 hlineto
          13 1 28 78 hvcurveto
          115 -6 109 28 vvcurveto
          4 4 rlineto
          hintmask 10101100
          31 -2 -8 5 -23 hhcurveto
          33 -36 rmoveto
          -2 14 vlineto
          -5 12 rlineto
          8 -18 rmoveto
          5 callsubr
          3 hvcurveto
          -7 hlineto
          hintmask 11001100
          -1048 -22 rmoveto
          -22 22 rlineto
          26 vlineto
          -13 27 34 63 37 66 35 61 rlinecurve
          56 98 27 47 26 49 27 48 rlinecurve
          51 91 7 10 13 11 14 8 rlinecurve
          63 -5 6 -193 -143 -62 -3 -52 -20 vvcurveto
          -50 vlineto
          -7 1 -7 -8 vvcurveto
          -21 vlineto
          -4 -26 -12 -14 -31 -14 rrcurveto
          -97 -94 -5 -89 hhcurveto
          endchar
        </CharString>
        <CharString name="foursuperior">
          -233 -24 17 callsubr
          633 -20 hstemhm
          651 18 callgsubr
          hintmask 10101000
          1202 417 rmoveto
          -7 -9 -1 -1 -6 hvcurveto
          25 -3 -9 1 -24 -5 -6 13 callsubr
          -45 hlineto
          -29 -4 27 29 7 0 11 1 7 hvcurveto
          12 vlineto
          4 1 6 3 vvcurveto
          5 vlineto
          -1 24 0 34 24 132 5 127 131 vvcurveto
          37 vlineto
          2 -1 -2 10 -23 5 rlineto
          -145 hlineto
          -74 -74 -1 -4 -72 hvcurveto
          -66 -2 -27 -4 -34 2 -24 -2 rlinecurve
          -9 -10 2 2 -53 -86 -42 -67 -39 -61 rlinecurve
          1 vlineto
          -10 -15 -12 -16 -9 -15 1 1 rcurveline
          hintmask 01101000
          -70 callsubr
          hintmask 10110000
          -85 callsubr
        </CharString>
        <CharString name="fraction">
          -989 -63 -21 1647 -32 callsubr
          hstem
          838 1578 rmoveto
          -1 vlineto
          3 -7 -8 3 -5 hhcurveto
          -109 hlineto
          -18 -19 1 -18 hhcurveto
          -54 hlineto
          -18 -26 -44 -35 -15 hvcurveto
          -7 -16 rlineto
          2 vlineto
          -52 -94 -45 -82 -46 -87 -43 -85 rlinecurve
          -138 -262 -55 -105 -55 -106 -55 -101 rlinecurve
          -154 -295 -14 -28 -18 -30 -14 -26 rlinecurve
          -27 -49 -29 -53 -31 -52 -27 -54 rlinecurve
          9 -32 8 -21 14 -35 rrcurveto
          118 hlineto
          13 14 1 15 3 3 callgsubr
          hhcurveto
          25 hlineto
          19 2 11 12 8 12 293 553 251 529 279 512 31 59 rcurveline
          -1 2 -1 2 hvcurveto
          -3 hlineto
          endchar
        </CharString>
        <CharString name="g">
          59 -461 357 -357 498 -476 -21 503 -21 33 -21 110 250 578 224 -224 268 hstemhm
          hintmask 10001110
          854 192 rmoveto
          20 6 36 38 17 29 rrcurveto
          9 -66 0 -8 -7 vvcurveto
          -11 -1 -6 -1 -5 1 callgsubr
          -2 -10 0 -10 -17 vvcurveto
          -6 0 -8 2 -3 vhcurveto
          28 callgsubr
          2 vhcurveto
          -20 vlineto
          -69 -17 -128 -80 -68 -23 79 58 vhcurveto
          hintmask 01000110
          0 1 10 callsubr
          -443 hlineto
          hintmask 10001110
          -55 -54 -3 -55 hhcurveto
          -33 -29 0 2 -32 hvcurveto
          2 -9 41 -234 112 -109 180 -72 rlinecurve
          13 -6 33 -16 48 -13 39 -8 rlinecurve
          32 -7 rlineto
          -11 49 71 -12 39 hhcurveto
          11 12 1 2 6 hvcurveto
          30 hlineto
          hintmask 00110110
          -2 3 0 0 47 hhcurveto
          86 65 7 25 76 10 callgsubr
          24 9 33 -3 17 17 107 15 209 131 59 158 10 27 8 37 7 41 rrcurveto
          -2 vlineto
          4 13 rlineto
          1 3 1 4 1 vvcurveto
          -1 0 1 4 hvcurveto
          13 6 29 14 16 -2 20 17 vvcurveto
          11 vlineto
          18 0 23 1 19 vhcurveto
          4 vlineto
          1 18 1 18 17 vvcurveto
          -1 933 rlineto
          -88 -86 -1 -86 hhcurveto
          -259 -70 hlineto
          -14 -44 -33 22 -2 4 -4 5 rlinecurve
          -13 14 rlineto
          hintmask 10001101
          83 -100 -115 30 -124 hhcurveto
          -346 -221 -255 -323 -311 248 -207 296 81 109 12 36 82 hvcurveto
          107 490 rmoveto
          -4 -1 -4 -4 vvcurveto
          -32 vlineto
          -32 -7 -27 -8 -21 vhcurveto
          5 hlineto
          -98 -26 -35 -66 -49 hhcurveto
          -87 -51 140 97 hvcurveto
          6 vlineto
          2 1 3 2 vvcurveto
          9 vlineto
          5 0 3 callgsubr
          -11 callgsubr
          -2 4 0 4 17 vvcurveto
          53 13 231 120 114 10 -194 -96 4 vhcurveto
          endchar
        </CharString>
        <CharString name="germandbls">
          19 -66 317 -317 424 928 279 hstemhm
          1120 486 hintmask 10110000
          725 32 rmoveto
          -86 99 150 -12 122 hhcurveto
          212 298 100 298 180 -73 93 -126 78 10 callgsubr
          -24 23 -157 57 62 vvcurveto
          51 104 74 49 54 vhcurveto
          -25 callgsubr
          44 52 21 67 69 vvcurveto
          242 -246 85 -186 20 vhcurveto
          17 -88 -96 11 -96 hhcurveto
          -219 -205 -67 -115 -133 hvcurveto
          -67 -69 -27 -130 -3 -102 rrcurveto
          -3 -110 -1 -138 -113 -257 5 -241 -241 vvcurveto
          7 9 0 8 hhcurveto
          9 hlineto
          110 109 -4 118 hhcurveto
          51 48 1 3 50 hvcurveto
          -3 3 -1 101 54 vvcurveto
          71 vlineto
          38 2 17 -69 22 -62 52 -51 rlinecurve
          -126 978 rmoveto
          126 2 36 151 169 hhcurveto
          72 64 -25 -83 -62 -60 -44 -49 -35 hvcurveto
          -32 -23 -16 callgsubr
          -62 -55 -44 -77 -80 vvcurveto
          -171 191 -86 112 -89 vhcurveto
          39 callsubr
          53 -30 72 -44 -71 vvcurveto
          -9 -5 -19 -11 -29 vhcurveto
          -20 -1 rlineto
          -2 -7 -7 41 callgsubr
          -79 53 105 5 -40 hvcurveto
          hintmask 01110000
          -362 -3 -46 -45 rlineto
          365 vlineto
          108 0 109 -1 105 vhcurveto
          128 -970 rmoveto
          4 hlineto
          -1 0 1 -1 hhcurveto
          -9 1 -17 -20 17 -12 14 15 rlineto
          -650 -37 rmoveto
          37 callgsubr
          vvcurveto
          2 vlineto
          -2 27 callgsubr
          -2 hvcurveto
          4 hlineto
          1 0 -1 -2 hvcurveto
          endchar
        </CharString>
        <CharString name="grave">
          -907 1426 375 -354 -21 393 19 callgsubr
          214 1430 -40 callsubr
          hintmask 01100000
          -35 callgsubr
          hintmask 10000000
          -5 callsubr
        </CharString>
        <CharString name="greater">
          -271 -21 -21 1125 -20 hstem
          1196 404 rmoveto
          2 2 0 19 29 vvcurveto
          66 -2 121 -10 22 vhcurveto
          -122 50 -128 51 -173 66 -128 48 rlinecurve
          -24 9 -16 callgsubr
          -88 33 -139 52 -138 53 -137 55 rlinecurve
          -3 -2 0 3 -4 hvcurveto
          2 -17 1 -164 -19 vvcurveto
          -30 vlineto
          -3 35 callsubr
          -12 1 -13 3 -6 vhcurveto
          234 -82 221 -101 239 -97 -38 -16 -120 -46 -81 -29 -16 callsubr
          -33 -13 -189 -70 -229 -89 -13 -29 rlinecurve
          -7 -83 -3 -85 -80 vvcurveto
          31 -34 81 28 76 32 80 33 rlinecurve
          137 57 184 80 278 112 229 91 rlinecurve
          -3 hlineto
          3 3 rlineto
          -1087 691 rmoveto
          -2 1 2 -1 1 8 callgsubr
          hhcurveto
          endchar
        </CharString>
        <CharString name="greaterequal">
          -186 -71 277 -272 -21 1638 -20 callgsubr
          112 1514 rmoveto
          -26 -1 -48 -48 vvcurveto
          -69 2 -68 12 -8 21 callgsubr
          876 -348 -300 -109 -293 -124 -276 -150 rlinecurve
          -79 2 -81 -80 vvcurveto
          -2 0 5 callgsubr
          vhcurveto
          19 callsubr
          hhcurveto
          1128 502 rlineto
          33 1 47 45 vvcurveto
          126 vlineto
          -3 7 -1107 518 rlineto
          1111 -1598 rmoveto
          -4 241 -3 6 -5 4 -7 2 rlinecurve
          -431 -11 -342 6 -343 -15 -3 -236 rcurveline
          -1 0 -2 1 -2 vhcurveto
          hintmask 01100000
          1105 -32 rlineto
          -1115 608 rmoveto
          13 -5 rlineto
          15 vlineto
          -10 -7 9 12 -7 6 -15 -15 rlineto
          20 -582 rmoveto
          -20 hlineto
          -1 4 12 -9 3 hhcurveto
          -39 callgsubr
          vvcurveto
          1156 838 rmoveto
          -3 2 rlineto
          1 -2 -3 0 -2 hhcurveto
          -5 -5 -2 0 hvcurveto
          -1134 -586 rmoveto
          -27 callsubr
          -2 hhcurveto
          -8 callsubr
          2 hhcurveto
          2 85 rmoveto
          -39 callgsubr
          vvcurveto
          -2 hlineto
          -69 callgsubr
          4 2 rmoveto
          -1 -1 3 1 rlineto
          -3 -1 rmoveto
          -1 hlineto
          endchar
        </CharString>
        <CharString name="guillemotleft">
          -205 1045 -20 21 31 callgsubr
          1145 526 rmoveto
          53 106 56 120 51 111 79 172 rcurveline
          10 -3 -16 -1 -11 hhcurveto
          -28 hlineto
          -24 -24 2 -23 -73 -71 -3 -73 hhcurveto
          -22 hlineto
          -24 -26 -2 -4 -6 hvcurveto
          -105 -170 -120 -186 -100 -165 rrcurveto
          -5 -2 -5 -6 vvcurveto
          51 -87 53 -85 56 -85 37 -56 rcurveline
          -2 hlineto
          44 -69 42 -65 42 -67 rrcurveto
          -7 11 13 -3 11 hhcurveto
          204 hlineto
          22 24 1 23 hhcurveto
          41 hlineto
          5 6 -1 5 hhcurveto
          28 26 3 11 5 hvcurveto
          -28 64 -29 65 -32 69 -28 60 rcurveline
          -36 77 -35 85 -32 74 rrcurveto
          1 0 3 2 vvcurveto
          23 -3 rmoveto
          11 -21 0 0 vhcurveto
          2 -17 rlineto
          20 hlineto
          hintmask 10000000
          -442 564 rmoveto
          -131 hlineto
          -11 -10 -1 -11 hhcurveto
          -95 hlineto
          hintmask 01000000
          -44 -44 1 1 -46 hvcurveto
          -3 hlineto
          -5 -3 -5 -2 -4 -3 -137 -213 rcurveline
          1 hlineto
          -13 -21 -19 -27 -17 -25 -9 -13 rcurveline
          -56 -81 -76 -101 -6 -59 98 -149 98 -153 105 -154 38 -56 rcurveline
          -9 2 3 -2 5 hhcurveto
          65 61 2 3 68 -36 callgsubr
          53 4 142 -7 14 15 -73 170 -85 169 -79 190 139 306 rcurveline
          5 12 7 13 4 10 25 45 rcurveline
          26 46 30 60 2 30 rrcurveto
          -1 -1 38 callsubr
          hhcurveto
          hintmask 10000000
          -2 -4 3 -3 hhcurveto
          endchar
        </CharString>
        <CharString name="guillemotright">
          -208 -2 -31 callgsubr
          1074 -9 callsubr
          819 516 rmoveto
          -155 -378 -10 callgsubr
          -64 -158 rlineto
          -3 2 19 0 18 hhcurveto
          30 hlineto
          47 41 0 3 52 hvcurveto
          19 hlineto
          23 32 -2 32 hhcurveto
          47 47 2 7 13 hvcurveto
          78 116 59 115 77 112 22 32 rcurveline
          36 53 51 66 31 vvcurveto
          21 -44 65 -35 50 vhcurveto
          -29 47 -16 callgsubr
          -111 175 -66 109 -4 6 -4 7 -6 13 rlinecurve
          -1 vlineto
          37 -24 -20 6 -22 -30 -39 -3 -31 hhcurveto
          -219 hlineto
          -31 -30 -1 -5 -2 0 -2 1 -1 39 callgsubr
          207 -481 -5 -5 rlineto
          -261 -366 rmoveto
          29 49 32 53 32 50 4 callgsubr
          36 59 36 60 34 58 rrcurveto
          2 2 0 1 1 hhcurveto
          -58 91 -51 91 -56 90 -160 254 rcurveline
          -1 3 0 2 0 vvcurveto
          3 -117 -128 3 -123 hhcurveto
          -22 -19 -3 -6 hvcurveto
          -3 2 -3 -9 vvcurveto
          218 -521 -66 -155 -18 -37 -15 -38 -15 -35 rlinecurve
          -57 -132 rlineto
          -23 -44 -27 -57 -24 34 callgsubr
          -7 28 -1 26 67 59 2 5 67 vhcurveto
          65 1 rlineto
          10 11 0 11 hhcurveto
          32 34 1 8 13 hvcurveto
          342 523 rmoveto
          31 32 -2 7 rlineto
          -2 vlineto
          -1 5 rlineto
          -20 hlineto
          -334 -579 rmoveto
          -14 14 -3 -3 14 -14 rlineto
          302 539 rmoveto
          -2 4 1 -4 rlineto
          0 vmoveto
          -25 callgsubr
          endchar
        </CharString>
        <CharString name="guilsinglleft">
          -806 -13 -21 hstem
          523 524 rmoveto
          73 180 75 168 72 164 rrcurveto
          7 -7 -29 0 -26 hhcurveto
          -49 hlineto
          -99 -102 0 -4 -94 hvcurveto
          3 hlineto
          -34 -10 -71 -127 -50 -89 -73 -118 rcurveline
          1 1 -6 -10 rlineto
          -36 -55 -72 -88 -26 vvcurveto
          -52 101 -138 29 -35 vhcurveto
          6 -9 -10 callgsubr
          91 -149 10 -21 -10 callgsubr
          34 -64 35 -66 30 -19 rrcurveto
          14 hlineto
          3 119 97 9 116 4 5 -1 5 hhcurveto
          44 hlineto
          9 3 4 8 31 -36 67 -25 50 hvcurveto
          -29 57 -36 82 -31 70 -33 66 -26 67 rlinecurve
          2 8 rlineto
          endchar
        </CharString>
        <CharString name="guilsinglright">
          -810 1045 -20 hstem
          215 514 rmoveto
          -213 -530 rlineto
          7 callsubr
          -1 vvcurveto
          -4 35 -1 37 88 36 1 5 66 vhcurveto
          147 2 rlineto
          1 -1 1 2 hhcurveto
          8 4 264 423 -40 callgsubr
          4 12 2 -2 3 3 rrcurveto
          23 35 25 41 14 vvcurveto
          21 -43 59 -30 45 vhcurveto
          -28 42 -36 53 -33 59 -33 57 rlinecurve
          1 hlineto
          -28 44 -26 48 -30 43 -9 17 rcurveline
          39 -21 -21 7 -23 -30 -37 -3 -32 hhcurveto
          -228 hlineto
          -28 -26 0 -5 -48 66 -106 26 -65 hvcurveto
          121 -287 rlineto
          -6 hlineto
          -28 16 rmoveto
          -1 -2 -1 -2 -2 vvcurveto
          -5 4 -4 12 -1 vhcurveto
          14 hlineto
          -5 15 -1 -1 -4 14 -18 -3 rlineto
          241 -570 rmoveto
          -3 -5 20 -5 rlineto
          19 vlineto
          endchar
        </CharString>
        <CharString name="h">
          -102 20 -31 callgsubr
          802 437 331 -20 hstemhm
          hintmask 10110000
          1374 354 rmoveto
          85 -1 128 98 38 2 32 29 vvcurveto
          85 -47 151 -59 93 vhcurveto
          89 -70 -118 57 -100 hhcurveto
          -117 -148 -65 -108 -96 hvcurveto
          -1 504 rlineto
          -199 -179 0 -2 -201 hvcurveto
          -785 vlineto
          -264 1 -253 -267 vvcurveto
          285 hlineto
          hintmask 01110000
          98 89 1 100 hhcurveto
          422 vlineto
          15 -1 13 14 vvcurveto
          128 vlineto
          90 2 120 99 54 42 -53 -127 vhcurveto
          -43 -3 -48 -20 vvcurveto
          hintmask 10110000
          1 -512 rlineto
          568 hlineto
          58 -1 55 59 vvcurveto
          endchar
        </CharString>
        <CharString name="hungarumlaut">
          -766 1410 379 5 31 callgsubr
          -23 1794 rmoveto
          -17 -20 -17 -27 -13 -25 -22 callgsubr
          -4 -10 -167 -278 rlineto
          -1 2 -1 -1 vvcurveto
          17 -26 215 7 rlineto
          8 8 1 7 hhcurveto
          19 hlineto
          74 34 12 60 55 hvcurveto
          256 292 rlineto
          0 0 0 4 vvcurveto
          -7 callgsubr
          0 vhcurveto
          hintmask 10000000
          -101 -78 8 -85 hhcurveto
          -134 3 rlineto
          hintmask 01000000
          300 -385 rmoveto
          hintmask 10000000
          2 5 10 1 8 hhcurveto
          198 28 45 5 61 9 45 8 rlinecurve
          1 -11 5 -15 2 -7 9 12 11 18 12 14 55 66 rcurveline
          28 31 26 29 27 32 130 153 rcurveline
          -65 -79 3 1 -65 hvcurveto
          -210 4 rlineto
          -10 -16 0 1 -10 hvcurveto
          -12 hlineto
          -5 -2 1 -4 hhcurveto
          -14 -14 -18 -30 -13 -25 -22 callgsubr
          -5 -8 2 3 -11 -22 -53 -93 -50 -78 -55 -88 rlinecurve
          10 -17 -1 1 6 -10 39 callsubr
          191 397 rmoveto
          3 -18 rlineto
          11 11 11 11 11 hvcurveto
          157 -389 rmoveto
          0 -1 1 1 vvcurveto
          -6 -7 -3 -6 -2 vvcurveto
          -1 8 callsubr
          2 7 1 13 vhcurveto
          297 357 rmoveto
          1 hlineto
          1 0 -1 1 hhcurveto
          1 0 2 4 hvcurveto
          endchar
        </CharString>
        <CharString name="hyphen">
          -681 375 359 -358 -21 378 -9 callsubr
          811 393 rmoveto
          115 vlineto
          13 1 14 15 vvcurveto
          14 vlineto
          65 -1 90 -13 14 vhcurveto
          -68 hlineto
          hintmask 10000000
          -13 -12 1 -13 hhcurveto
          -34 hlineto
          -94 -112 -3 -98 -25 -24 1 -22 hhcurveto
          -221 hlineto
          -9 -2 -42 -42 hvcurveto
          -25 2 -22 -19 vvcurveto
          -15 vlineto
          -43 -2 -45 -42 vvcurveto
          -30 vlineto
          -11 -1 -8 -9 vvcurveto
          hintmask 01100000
          8 -10 7 -7 8 -7 rrcurveto
          hintmask 10000000
          246 240 20 245 hhcurveto
          4 2 7 11 1 hvcurveto
          endchar
        </CharString>
        <CharString name="i">
          -776 16 -21 1309 272 10 -20 33 callsubr
          63 1441 -37 callsubr
          hintmask 10100000
          10 vlineto
          hintmask 11000000
          -76 callgsubr
        </CharString>
        <CharString name="iacute">
          -14 callgsubr
          383 374 10 -20 -88 callsubr
          hintmask 00010000
          -84 1819 -82 callgsubr
        </CharString>
        <CharString name="icircumflex">
          -871 -24 0 245 15 callgsubr
        </CharString>
        <CharString name="idieresis">
          -14 callgsubr
          385 -29 callsubr
          -126 361 hintmask 01100000
          -100 callsubr
          hintmask 10010100
          509 1830 -84 callsubr
        </CharString>
        <CharString name="igrave">
          -871 100 0 245 14 callsubr
        </CharString>
        <CharString name="increment">
          160 15 256 1258 -20 hstem
          84 192 rmoveto
          -177 1558 20 vlineto
          57 0 53 -4 62 vhcurveto
          1 -2 -79 242 -94 223 -90 225 rlinecurve
          -36 90 -70 175 -75 181 -62 188 rlinecurve
          -179 -5 -176 -7 -179 -5 rrcurveto
          -104 -1174 rmoveto
          211 556 -1 -1 20 71 -40 callgsubr
          13 48 12 33 -1 -1 7 23 21 67 24 84 31 8 rlinecurve
          16 hlineto
          18 -2 12 -8 10 -9 51 -233 82 -207 81 -198 26 -64 rcurveline
          21 -53 24 -60 19 -51 rrcurveto
          -33 -7 -18 -38 -6 vhcurveto
          -8 -142 -144 -4 -141 hhcurveto
          -58 -69 1 2 -57 hvcurveto
          endchar
        </CharString>
        <CharString name="infinity">
          271 191 159 -155 -21 703 170 hstemhm
          105 152 1389 104 hintmask 10111000
          1751 625 rmoveto
          202 -22 -133 220 -242 hhcurveto
          -144 -172 -135 -190 -104 hvcurveto
          -113 192 -123 125 -177 3 rrcurveto
          -262 -154 -213 -219 -229 172 -190 241 13 15 0 1 12 hvcurveto
          -1 2 3 0 6 hhcurveto
          117 142 140 147 95 hvcurveto
          hintmask 01111000
          -171 98 129 -133 177 hhcurveto
          237 186 181 274 hvcurveto
          hintmask 10111000
          -397 -279 rmoveto
          -149 -132 112 170 -97 hvcurveto
          159 108 163 104 126 hhcurveto
          174 84 -145 -130 19 hvcurveto
          -3 -1 rlineto
          -163 -5 -125 -106 -163 hhcurveto
          -809 -1 rmoveto
          -31 hlineto
          -151 -105 120 140 138 97 130 162 hvcurveto
          133 -3 98 -90 95 -149 rrcurveto
          -155 -91 -113 -131 -94 hhcurveto
          endchar
        </CharString>
        <CharString name="integral">
          -553 -433 309 1550 -20 142 -20 86 320 hstemhm
          296 381 -330 375 hintmask 11111000
          981 1753 rmoveto
          4 2 7 4 vvcurveto
          3 27 4 33 4 25 3 34 rlinecurve
          42 -37 -77 5 -63 hhcurveto
          -341 -183 -224 -386 hvcurveto
          hintmask 11110100
          -305 39 -274 12 -298 vhcurveto
          -26 callgsubr
          -5 -10 -108 5 -26 -81 vvcurveto
          -149 -5 -191 -167 vhcurveto
          -44 -37 15 -25 hhcurveto
          -2 hlineto
          -10 -64 -9 -68 -8 -64 rrcurveto
          -4 -2 -4 -4 vvcurveto
          -11 -79 rlineto
          -24 14 142 -13 52 hhcurveto
          134 125 41 90 82 hvcurveto
          -25 callgsubr
          111 141 32 199 168 vvcurveto
          154 -10 158 -10 165 vhcurveto
          -2 31 rlineto
          hintmask 11111000
          -11 165 -12 189 174 vvcurveto
          23 2 114 11 55 vhcurveto
          -2 -4 -10 callsubr
          hhcurveto
          1 4 1 5 2 5 rrcurveto
          -5 hlineto
          6 6 rlineto
          74 20 29 90 100 hhcurveto
          29 26 -7 -10 33 hvcurveto
          3 1 -2 -7 rlineto
          1 1 0 -1 1 hvcurveto
          2 6 -1 -1 15 -2 4 -1 rlinecurve
          4 hlineto
          4 3 6 11 3 hvcurveto
          -2 vlineto
          -39 -35 rmoveto
          0 0 3 2 15 vhcurveto
          0 -1 0 1 vvcurveto
          6 vlineto
          -8 -4 rlineto
          -1 1 -7 callgsubr
          vvcurveto
          1 -1 -16 -6 rlineto
          -4 -2 -1 -16 -17 hvcurveto
          47 -17 rlineto
          -214 -86 rmoveto
          0 -23 -11 -12 vvcurveto
          23 2 rlineto
          231 143 rmoveto
          -1 -5 0 1 -6 hvcurveto
          -1 -4 -1 -4 -3 vvcurveto
          -8 5 -2 9 vhcurveto
          -40 18 rmoveto
          8 callgsubr
          hhcurveto
          7 callsubr
          hvcurveto
          27 3 rmoveto
          -2 hlineto
          1 vmoveto
          -1 vlineto
          endchar
        </CharString>
        <CharString name="j">
          -622 -535 409 -389 -21 1830 260 1 -20 callgsubr
          251 1554 rmoveto
          -85 3 -81 -94 vvcurveto
          582 hlineto
          hintmask 10010000
          89 -1 83 89 34 callgsubr
          -97 -100 -1 -95 hhcurveto
          295 -1662 rmoveto
          428 -1 447 -2 430 vhcurveto
          -97 -101 -1 -95 hhcurveto
          -292 -988 hlineto
          -43 -2 -42 -42 vvcurveto
          -15 vlineto
          -89 -8 -103 -160 vhcurveto
          -33 -228 hlineto
          -32 -3 -33 -31 vvcurveto
          -19 vlineto
          -5 -2 -6 -1 -4 vhcurveto
          -3 vlineto
          -1 -4 -2 -9 -3 vvcurveto
          3 -7 10 -11 10 -9 3 -2 rcurveline
          10 12 -1 -1 9 hvcurveto
          6 33 callgsubr
          -1 12 12 -1 14 hhcurveto
          14 14 2 3 9 hvcurveto
          18 hlineto
          -2 4 2 0 4 hhcurveto
          18 hlineto
          2 28 callgsubr
          hhcurveto
          6 hlineto
          hintmask 10100000
          15 50 -3 41 hhcurveto
          128 143 14 70 107 -36 callgsubr
          78 53 46 144 103 vvcurveto
          13 -1 13 -2 13 vhcurveto
          -791 -14 rmoveto
          10 vlineto
          -8 -10 rlineto
          endchar
        </CharString>
        <CharString name="k">
          92 19 -31 callgsubr
          1570 -43 callsubr
          hintmask 10010000
          1386 352 rmoveto
          -56 115 -59 123 -53 114 62 108 68 121 62 93 9 callgsubr
          5 10 11 18 9 13 6 7 rcurveline
          -1 -1 25 39 27 45 8 43 rlinecurve
          -15 -10 -2 -12 hhcurveto
          -77 hlineto
          -6 -7 1 -6 hhcurveto
          -536 hlineto
          -43 -124 -49 -140 -40 -128 -38 -112 rcurveline
          252 -5 380 244 34 callgsubr
          -24 callsubr
          -318 -1569 hlineto
          -2 120 131 0 119 hhcurveto
          97 77 0 3 97 hvcurveto
          440 vlineto
          38 86 32 -104 36 -115 35 -103 rlinecurve
          hintmask 01010000
          69 -206 rlineto
          688 hlineto
          -121 247 -16 33 -19 39 -17 34 rlinecurve
          endchar
        </CharString>
        <CharString name="l">
          -770 20 -21 1571 -25 callsubr
          676 1569 16 callgsubr
          hintmask 11000000
          -18 callgsubr
        </CharString>
        <CharString name="less">
          -269 -15 -21 1127 -20 hstem
          1191 -10 rmoveto
          4 33 4 59 53 vvcurveto
          110 -12 3 -40 15 vhcurveto
          -215 82 -255 97 -213 82 228 92 260 104 230 87 rrcurveto
          13 23 0 104 76 vvcurveto
          12 vlineto
          40 -2 29 -13 vhcurveto
          -4 hlineto
          -45 -15 -45 -17 -44 -18 -923 -348 rcurveline
          -23 -28 -7 -36 -35 -7 37 callsubr
          -46 vlineto
          -7 -1 -7 -7 vvcurveto
          -58 vlineto
          -69 51 -18 47 -15 21 callgsubr
          8 -2 8 -4 9 -3 7 -3 rcurveline
          319 -124 321 -125 311 -125 5 -1 rcurveline
          1 2 -1 3 hhcurveto
          9 2 13 13 hvcurveto
          -16 1103 rmoveto
          10 3 -3 19 -7 -1 rlineto
          endchar
        </CharString>
        <CharString name="lessequal">
          -187 -60 248 -242 -21 1601 -20 22 -20 hstemhm
          hintmask 10010000
          1276 284 rmoveto
          hintmask 10100000
          -3 249 rlineto
          hintmask 01010000
          -3 8 -5 8 -5 4 -16 callsubr
          -869 347 860 338 5 19 -40 callgsubr
          1 2 2 2 32 -1 49 49 vvcurveto
          130 vlineto
          -1 2 0 2 1 vvcurveto
          -2 hlineto
          -167 -83 -166 -71 -163 -70 -54 -23 rcurveline
          -177 -75 -224 -97 -171 -87 rrcurveto
          -1 -3 0 1 -2 hvcurveto
          -2 -246 rlineto
          hintmask 10010000
          -6 2 -3 1 -1 vhcurveto
          1120 -489 rlineto
          32 -325 rmoveto
          -3 120 rlineto
          -1 40 -1 40 42 vvcurveto
          2 vlineto
          -1 6 -4 4 -6 1 rrcurveto
          -11 -186 -222 -7 -187 hhcurveto
          -182 -169 5 11 -183 hvcurveto
          -3 -5 35 callsubr
          -2 -240 rlineto
          -4 0 -2 2 -1 vhcurveto
          563 -10 189 -3 184 -5 191 -2 rlinecurve
          15 615 rmoveto
          -8 vlineto
          -2 1 -23 callsubr
          vhcurveto
          18 3 rlineto
          9 vlineto
          -1166 484 rmoveto
          -27 callsubr
          -3 hhcurveto
          -8 callsubr
          2 hhcurveto
          2 hlineto
          1132 507 rmoveto
          -2 -2 rlineto
          19 callsubr
          vhcurveto
          endchar
        </CharString>
        <CharString name="logicalnot">
          -257 244 -21 394 293 12 -20 hstemhm
          885 323 hintmask 10110000
          885 257 rmoveto
          30 -34 rlineto
          3 71 71 2 71 6 5 -1 5 hhcurveto
          47 hlineto
          14 5 9 12 3 hvcurveto
          112 -1 109 -1 112 vhcurveto
          -3 335 -4 3 -7 1 -8 2 rlinecurve
          hintmask 11010000
          -357 -358 -12 -364 hhcurveto
          -51 25 callgsubr
          27 callsubr
          -23 vlineto
          -58 -3 -52 -63 vvcurveto
          -10 1 -5 4 -3 vhcurveto
          772 -3 rlineto
          -782 294 rmoveto
          5 38 callsubr
          2 hvcurveto
          3 1 2 1 vvcurveto
          endchar
        </CharString>
        <CharString name="lozenge">
          52 -60 -21 1675 -20 hstem
          956 -76 rmoveto
          482 817 -200 362 -92 172 -87 157 -96 162 rlinecurve
          -31 hlineto
          -92 -80 -3 -5 -105 hvcurveto
          -144 -273 -162 -272 -177 -277 157 -277 163 -284 164 -284 rrcurveto
          501 813 rmoveto
          -35 -62 -103 -181 -96 -157 -63 -154 rlinecurve
          -8 -19 -18 -10 -18 -1 rrcurveto
          -12 hlineto
          -47 15 -21 81 -3 29 -248 472 rcurveline
          18 9 -16 28 235 449 14 24 17 49 3 6 rlinecurve
          11 31 8 11 12 10 16 1 rlinecurve
          8 hlineto
          27 -1 12 -8 3 -36 -1 2 rcurveline
          56 -155 177 -267 72 -134 rrcurveto
          -379 544 rmoveto
          -14 11 -8 -8 2 1 -4 -8 rlinecurve
          -8 vlineto
          18 -3 rlineto
          endchar
        </CharString>
        <CharString name="lslash">
          -412 42 382 -365 12 callsubr
          27 -21 1356 -20 hstemhm
          hintmask 00010100
          640 425 rmoveto
          3 40 3 66 46 vvcurveto
          61 vlineto
          45 0 46 3 45 vhcurveto
          63 vlineto
          289 132 rlineto
          2 6 4 2 2 hhcurveto
          1 -1 3 1 vvcurveto
          -7 15 rlineto
          61 -25 -39 93 -9 hhcurveto
          -14 -32 -15 -11 -26 hvcurveto
          -135 -60 2 104 2 29 -2 31 4 24 rlinecurve
          44 vlineto
          3 22 0 21 22 vvcurveto
          11 vlineto
          -6 11 -7 10 -4 4 rrcurveto
          -5 hlineto
          -18 -10 2 1 -3 hvcurveto
          -9 -6 0 -1 -7 hvcurveto
          1 -39 -34 0 -36 hhcurveto
          -47 hlineto
          -108 -96 2 3 -108 hvcurveto
          -18 -23 -7 -63 -71 -68 7 -74 -54 vvcurveto
          -74 0 -85 -1 -74 vhcurveto
          -225 -99 -16 callgsubr
          -2 -1 35 callsubr
          -23 13 -30 12 -29 vhcurveto
          4 -10 -10 callgsubr
          13 -24 2 -8 rlineto
          2 vlineto
          1 -4 2 -4 1 -2 5 -14 rcurveline
          -1 1 12 -29 rlineto
          -1 3 5 -1 3 hhcurveto
          21 -3 26 10 68 35 41 17 rlinecurve
          -9 -50 -3 -26 -17 -4 1 -5 -4 vvcurveto
          -3 -102 rlineto
          -1 -25 -1 -39 -25 vvcurveto
          -240 vlineto
          -14 7 2 -2 2 hhcurveto
          hintmask 00100100
          70 -1 rlineto
          hintmask 01000100
          10 9 -1 9 hhcurveto
          100 hlineto
          hintmask 00010100
          10 17 1 1 12 hvcurveto
          8 hlineto
          hintmask 10000100
          19 27 1 1 21 hvcurveto
          293 hlineto
          hintmask 00001100
          92 88 4 92 hhcurveto
          72 hlineto
          37 36 2 15 7 hvcurveto
          -1 61 0 96 56 vvcurveto
          134 vlineto
          16 -16 0 -14 vhcurveto
          hintmask 10000100
          -29 -26 -2 -21 hhcurveto
          -217 hlineto
          -7 -6 1 -7 hhcurveto
          endchar
        </CharString>
        <CharString name="m">
          684 20 -31 callgsubr
          754 485 -8 callgsubr
          2176 613 rmoveto
          33 -1 32 -1 36 vhcurveto
          9 2 13 17 vvcurveto
          7 -1 6 -6 5 vhcurveto
          5 17 -1 4 8 vvcurveto
          -1 41 -17 47 -9 36 -7 27 -23 callgsubr
          177 -50 -208 112 -143 hhcurveto
          -137 -114 -62 -181 -138 hvcurveto
          124 -73 -132 119 -123 hhcurveto
          -6 -5 0 -2 -7 hvcurveto
          1 -10 -12 1 -14 hhcurveto
          -125 -123 -139 -130 -76 hvcurveto
          -14 54 -27 97 -15 53 -7 24 rcurveline
          -275 hlineto
          -94 -83 -1 -97 hhcurveto
          -597 vlineto
          -203 1 -193 -205 vvcurveto
          320 33 callgsubr
          110 100 1 112 hhcurveto
          550 vlineto
          10 -2 31 19 vvcurveto
          68 14 73 80 4 vhcurveto
          67 -20 13 -69 -65 -26 -2 -18 -21 34 callgsubr
          1 -537 rlineto
          277 33 callgsubr
          95 86 1 97 hhcurveto
          525 vlineto
          13 -2 32 24 vvcurveto
          53 9 107 82 72 9 -85 -60 vhcurveto
          -7 -1 -7 -8 34 callgsubr
          1 -588 rlineto
          606 hlineto
          endchar
        </CharString>
        <CharString name="middot">
          -749 265 -21 535 -20 hstem
          393 779 rmoveto
          -81 -60 -32 -50 -44 9 callsubr
          -55 -62 6 -54 -30 -78 rrcurveto
          -133 13 100 -126 160 hhcurveto
          143 117 120 156 125 -109 132 -117 hvcurveto
          -12 hlineto
          1 -8 -6 1 -7 hhcurveto
          endchar
        </CharString>
        <CharString name="minus">
          -267 332 298 -298 327 0 -20 hstem
          1175 353 rmoveto
          11 2 16 20 hvcurveto
          4 -1 6 callgsubr
          104 vlineto
          56 -1 63 -8 15 vhcurveto
          -84 -7 -87 6 -77 -7 -39 -1 rcurveline
          -254 -250 14 15 -7 callsubr
          -11 -21 -1 -26 -30 31 callsubr
          -40 vlineto
          -6 36 callgsubr
          -19 vlineto
          -11 -1 -9 -9 vvcurveto
          -40 1 -27 2 -36 vhcurveto
          21 -26 rlineto
          5 263 241 12 268 hhcurveto
          endchar
        </CharString>
        <CharString name="mu">
          -182 -406 -31 callgsubr
          378 322 786 -43 callsubr
          hintmask 10110000
          761 99 rmoveto
          34 -6 rlineto
          -21 vlineto
          -24 4 -58 7 -6 vhcurveto
          -3 55 54 -1 56 hhcurveto
          133 hlineto
          16 17 1 19 hhcurveto
          94 hlineto
          3 3 25 callsubr
          11 hlineto
          18 17 3 10 5 hvcurveto
          47 6 43 2 48 vhcurveto
          0 -6 5 3 vvcurveto
          -3 69 rlineto
          -1 26 -2 25 21 vvcurveto
          -25 callgsubr
          6 -3 -7 24 214 10 201 228 29 -1 27 28 vvcurveto
          -2 vlineto
          -3 18 -5 8 -5 2 rrcurveto
          -103 -125 -6 -103 hhcurveto
          -19 hlineto
          -3 -5 3 -12 hhcurveto
          -28 -123 -2 -6 hvcurveto
          -261 vlineto
          -47 0 -48 -1 -46 vhcurveto
          -3 -128 rlineto
          -6 0 -5 -6 -22 1 -22 -24 vvcurveto
          -78 -10 -77 -78 -80 -7 87 95 vhcurveto
          24 2 23 22 vvcurveto
          18 35 callgsubr
          5 vvcurveto
          4 355 rlineto
          39 0 37 3 41 vhcurveto
          -5 14 -8 11 -7 3 rrcurveto
          -314 hlineto
          hintmask 10101000
          -10 -10 1 -9 hhcurveto
          hintmask 10110000
          -58 -51 0 -1 -55 hvcurveto
          -7 -6 -2 -10 -11 -47 2 -47 -45 vvcurveto
          -69 vlineto
          -23 1 -24 -24 vvcurveto
          2 -144 rlineto
          -216 3 -233 4 -225 vhcurveto
          6 -337 rlineto
          -2 -9 -5 -15 0 vvcurveto
          -2 6 25 0 22 hhcurveto
          hintmask 01110000
          -20 callsubr
          106 hlineto
          hintmask 10110000
          6 6 -4 callgsubr
          52 hlineto
          49 45 2 3 49 hvcurveto
          40 2 rlineto
          1 22 30 3 24 hhcurveto
          6 hlineto
          95 -4 101 101 vvcurveto
          82 vlineto
          -8 26 12 -3 2 hhcurveto
          50 41 63 52 28 hvcurveto
          -152 -483 rmoveto
          -3 -6 -1 -5 -4 vvcurveto
          -6 3 -3 8 7 5 3 7 2 -1 3 callgsubr
          vhcurveto
          endchar
        </CharString>
        <CharString name="multiply">
          -257 69 -21 25 -21 971 -20 callgsubr
          1100 783 rmoveto
          23 21 6 4 7 6 2 2 rlinecurve
          -3 7 -13 13 -14 14 -44 45 rcurveline
          51 -46 -70 75 -14 hhcurveto
          -4 3 0 -2 -3 hvcurveto
          -272 -274 -56 55 -69 69 -54 56 rlinecurve
          -96 98 rlineto
          -24 -49 -58 -24 -24 hvcurveto
          -61 -61 rlineto
          -30 -26 -28 -29 -11 vvcurveto
          1 -5 10 -17 12 -10 20 -17 rcurveline
          71 -71 84 -85 70 -76 -64 -65 rcurveline
          -59 -60 -146 -132 -22 vvcurveto
          -14 58 -51 42 -39 vhcurveto
          29 -30 26 -19 38 -49 24 -4 rlinecurve
          10 3 100 99 54 54 68 62 48 54 rlinecurve
          276 -267 6 4 12 14 16 16 rlinecurve
          -1 hlineto
          6 7 5 3 6 7 39 37 rcurveline
          49 47 58 57 13 vvcurveto
          8 -15 15 -17 16 vhcurveto
          -20 19 -72 72 -81 80 -75 72 rlinecurve
          60 62 70 68 62 59 rrcurveto
          -108 -676 rmoveto
          hintmask 01100000
          7 callsubr
          vhcurveto
          0 8 callgsubr
          vhcurveto
          endchar
        </CharString>
        <CharString name="n">
          -80 20 -31 callgsubr
          754 442 -442 486 hstemhm
          hintmask 10010000
          1396 190 rmoveto
          615 vlineto
          2 5 1 7 7 vvcurveto
          213 -166 203 -220 -118 -117 -48 -94 -67 vhcurveto
          -16 -20 -11 -14 -6 -18 -32 -80 rlinecurve
          -19 75 -21 81 -9 25 -13 50 rlinecurve
          hintmask 10100000
          -92 -85 -1 -91 hhcurveto
          -266 1 rlineto
          -598 vlineto
          -202 1 -193 -205 vvcurveto
          299 33 callgsubr
          103 91 1 104 hhcurveto
          533 vlineto
          6 -1 6 5 vvcurveto
          15 vlineto
          -1 12 0 21 11 vvcurveto
          57 11 88 76 72 9 -89 -64 vhcurveto
          -41 -4 -39 -22 34 callgsubr
          2 -500 rlineto
          585 hlineto
          63 -1 64 64 vvcurveto
          endchar
        </CharString>
        <CharString name="nine">
          -84 -69 367 -367 472 141 243 474 299 hstemhm
          50 455 hintmask 01111000
          623 363 rmoveto
          0 -8 35 -12 5 vhcurveto
          -461 7 -7 -6 -8 -8 -5 -6 rlinecurve
          -9 -12 5 -120 33 -131 106 -78 rlinecurve
          -88 108 121 -30 135 hhcurveto
          201 299 35 225 153 hvcurveto
          121 178 35 210 213 vvcurveto
          217 -43 182 -135 170 -11 callgsubr
          160 -136 -202 40 -188 hhcurveto
          -308 -340 -188 -370 -28 hvcurveto
          -307 14 278 -151 259 hhcurveto
          83 3 107 22 91 59 rrcurveto
          -3 -1 -26 -8 vvcurveto
          -21 vlineto
          hintmask 10111000
          -113 -8 -14 -159 -145 hhcurveto
          -62 -17 27 32 -10 hvcurveto
          82 904 rmoveto
          154 31 -123 -121 -109 -34 -121 -152 -134 -59 82 136 -8 hvcurveto
          120 49 136 153 vhcurveto
          endchar
        </CharString>
        <CharString name="notequal">
          -190 -3 -21 261 246 256 257 264 -20 hstem
          1041 1180 rmoveto
          -67 24 -58 27 -62 29 rrcurveto
          -7 -4 -3 -7 -7 hvcurveto
          -50 -120 rlineto
          -6 -15 -12 -9 -15 vvcurveto
          -40 -88 rlineto
          -139 -123 -7 -127 hhcurveto
          -75 -67 3 5 -75 hvcurveto
          -5 -5 -3 -7 -8 vvcurveto
          -42 0 -39 2 -38 vhcurveto
          -59 vlineto
          -7 -1 -10 -11 vvcurveto
          -18 2 -18 6 -3 vhcurveto
          245 4 rlineto
          1 83 98 1 79 hhcurveto
          -115 -268 rlineto
          5 -107 -112 2 -111 hhcurveto
          -33 -28 -2 -10 hvcurveto
          -61 2 -63 -56 vvcurveto
          -58 vlineto
          2 1 5 0 7 hhcurveto
          6 hlineto
          2 28 callgsubr
          hhcurveto
          43 hlineto
          10 11 -1 12 hhcurveto
          64 hlineto
          33 63 1 1 31 hvcurveto
          -75 -178 64 -26 59 -31 65 -27 rlinecurve
          1 28 callgsubr
          1 10 callgsubr
          36 83 42 91 37 84 rrcurveto
          1 37 48 1 35 150 143 -10 149 hhcurveto
          23 24 1 8 5 hvcurveto
          177 vlineto
          20 1 18 21 vvcurveto
          3 -1 -2 3 -3 hhcurveto
          1 hlineto
          -504 4 37 71 54 108 31 74 rlinecurve
          380 2 rlineto
          18 -1 127 74 38 -2 22 -13 4 hvcurveto
          -1 -17 -29 0 -17 -52 -45 3 -57 hhcurveto
          -48 hlineto
          65 141 rlineto
          endchar
        </CharString>
        <CharString name="ntilde">
          -80 395 0 110 196 endchar
        </CharString>
        <CharString name="numbersign">
          8 -11 -21 410 277 188 263 424 -20 hstem
          1179 1183 rmoveto
          14 98 18 140 11 97 rrcurveto
          2 -2 -6 2 -5 hhcurveto
          -242 hlineto
          -33 -52 -11 -242 -15 -122 rrcurveto
          -147 hlineto
          9 56 14 76 7 60 3 26 rcurveline
          7 63 9 66 12 64 rrcurveto
          12 -9 -21 1 -31 hhcurveto
          -13 hlineto
          -73 -106 0 -10 -14 hvcurveto
          -26 -183 rlineto
          -108 -17 -14 -113 -24 hhcurveto
          -5 hlineto
          -13 -22 2 -28 hhcurveto
          -43 -55 -3 -15 hvcurveto
          -77 -3 -83 -77 vvcurveto
          -19 55 -1 50 vhcurveto
          46 hlineto
          -24 -189 rlineto
          -108 hlineto
          -10 -12 1 -11 hhcurveto
          -46 -8 -19 -23 hvcurveto
          -11 2 -12 -11 vvcurveto
          -140 vlineto
          -61 7 0 96 vhcurveto
          49 hlineto
          -35 -243 -7 -46 -6 -41 -6 -48 rlinecurve
          10 -16 -2 -1 4 -3 5 -5 5 -7 rlinecurve
          69 78 -4 74 hhcurveto
          50 3 40 42 5 hvcurveto
          39 325 63 15 1 -9 63 10 rlinecurve
          -11 -74 -14 -102 -9 -73 -6 -49 rcurveline
          -4 -34 -3 -35 -5 -32 rrcurveto
          -13 11 54 -7 48 39 31 3 20 hhcurveto
          124 -27 157 61 6 hvcurveto
          6 66 11 80 9 63 rrcurveto
          62 60 -4 56 hhcurveto
          2 4 4 3 1 hvcurveto
          69 vlineto
          8 -1 10 9 vvcurveto
          151 vlineto
          -1 2 -3 1 -3 1 rrcurveto
          -1 -6 -7 0 -8 hhcurveto
          -128 hlineto
          10 87 -40 callgsubr
          6 2 6 5 vvcurveto
          14 101 rlineto
          14 hlineto
          14 26 -3 35 hhcurveto
          45 54 3 19 hvcurveto
          16 vlineto
          16 -2 20 19 vvcurveto
          92 vlineto
          5 1 5 6 vvcurveto
          25 -1 26 -7 5 vhcurveto
          -5 -7 -1 -7 hhcurveto
          -21 hlineto
          -1 -12 -21 0 -13 hhcurveto
          -33 hlineto
          -7 -19 1 -4 hhcurveto
          -451 -200 rmoveto
          12 hlineto
          -1 39 44 -5 36 hhcurveto
          21 hlineto
          31 16 -18 -32 4 hvcurveto
          -36 -209 -4 -22 -15 -10 -19 -1 rlinecurve
          -133 -6 rlineto
          -2 -3 40 callsubr
          -9 hlineto
          -27 5 -11 15 -1 33 14 72 rcurveline
          7 45 6 49 9 46 rrcurveto
          -350 -885 rmoveto
          2 -4 -3 2 -2 hhcurveto
          -4 -2 -3 -6 hvcurveto
          endchar
        </CharString>
        <CharString name="o">
          29 -36 334 599 342 -1 -20 33 callsubr
          -67 callgsubr
          -50 callsubr
          hintmask 10100000
          -88 callgsubr
          -50 callgsubr
          vhcurveto
          hintmask 11000000
          -43 callgsubr
          endchar
        </CharString>
        <CharString name="oacute">
          29 593 -20 665 1 -12 callsubr
          -67 callgsubr
          hintmask 01000000
          -32 callgsubr
          hintmask 10000000
          -72 callsubr
          -50 callgsubr
          -43 callgsubr
          -232 1195 -78 callsubr
        </CharString>
        <CharString name="ocircumflex">
          29 425 0 111 15 callgsubr
        </CharString>
        <CharString name="odieresis">
          29 432 0 111 200 endchar
        </CharString>
        <CharString name="oe">
          402 -44 242 -242 268 -268 338 -327 -21 706 151 40 263 -237 237 hstemhm
          35 449 349 380 345 401 hintmask 0010110111000000
          1224 411 rmoveto
          -1 80 97 0 78 hhcurveto
          187 hlineto
          86 82 -2 89 hhcurveto
          14 hlineto
          6 8 rlineto
          14 17 2 23 23 vvcurveto
          254 -61 373 -493 -143 -140 -36 -82 -107 vhcurveto
          63 -100 -115 41 -109 hhcurveto
          -19 -18 -1 -2 -16 hvcurveto
          1 -13 -14 0 -13 hhcurveto
          -194 -143 -96 -124 -116 hvcurveto
          -93 -122 -17 -163 -110 vvcurveto
          -304 220 -215 365 119 154 26 93 103 vhcurveto
          hintmask 0001110111000000
          -108 108 177 -21 124 hhcurveto
          181 204 59 173 96 10 callgsubr
          6 15 rlineto
          9 23 19 33 31 vvcurveto
          hintmask 0010110111000000
          13 -14 2 -25 vhcurveto
          -106 -111 -6 -119 hhcurveto
          -25 -24 1 1 -25 hvcurveto
          hintmask 0100110111000000
          -11 -28 -17 -55 -70 hhcurveto
          -110 -22 77 73 hvcurveto
          -560 469 rmoveto
          167 2 -195 -121 hvcurveto
          hintmask 1000110111000000
          -116 -2 -213 -183 -152 -12 205 112 104 20 224 160 vhcurveto
          hintmask 1000101111000000
          714 26 rmoveto
          110 70 -100 -66 hvcurveto
          -33 vlineto
          -49 -34 -10 -78 vhcurveto
          -54 -62 6 -42 -4 -3 40 callsubr
          -16 hlineto
          -26 -24 8 37 hvcurveto
          116 5 62 92 98 hhcurveto
          endchar
        </CharString>
        <CharString name="ogonek">
          -907 -509 186 326 -20 79 -21 23 -21 hstem
          131 275 vstem
          621 -307 rmoveto
          -2 38 callsubr
          -2 hvcurveto
          -3 5 -4 -7 rlineto
          -8 -27 -31 -6 -28 hhcurveto
          -53 -45 15 50 88 126 77 87 54 hvcurveto
          13 -1 rlineto
          7 17 5 12 0 vvcurveto
          11 -29 19 -8 vhcurveto
          -173 3 rlineto
          -12 -11 0 1 -14 hvcurveto
          -145 -35 -162 -138 -169 vvcurveto
          -154 136 -55 158 95 190 27 39 2 vhcurveto
          51 -27 109 -22 -4 -3 0 -1 -5 vhcurveto
          -2 hlineto
          endchar
        </CharString>
        <CharString name="ograve">
          29 550 0 111 14 callsubr
        </CharString>
        <CharString name="one">
          39 -11 -21 1557 -20 hstem
          1122 610 rmoveto
          -4 170 -1 164 172 99 2 93 102 vvcurveto
          57 vlineto
          31 0 19 -3 6 vhcurveto
          -4 -44 -50 0 -42 -106 -96 6 -106 hhcurveto
          -57 -88 -162 -78 -81 -39 -16 callsubr
          -7 -4 -15 -6 -6 -3 -16 callsubr
          -14 -10 -31 -10 -21 -10 -17 -8 -34 -19 -16 -8 rrcurveto
          -2 0 -135 -128 hvcurveto
          -15 1 -15 -15 vvcurveto
          -106 vlineto
          1 -6 2 -2 5 -1 105 33 108 55 107 73 -4 -274 rcurveline
          -3 -225 -5 -214 -237 vvcurveto
          -22 3 -4 7 -10 vhcurveto
          16 -25 rlineto
          -2 66 69 -1 65 21 21 1 21 hhcurveto
          41 hlineto
          14 13 1 14 hhcurveto
          17 hlineto
          23 31 -2 32 hhcurveto
          56 58 9 14 15 hvcurveto
          216 -9 202 203 vvcurveto
          endchar
        </CharString>
        <CharString name="onehalf">
          1061 -47 -21 51 268 -260 -21 654 -21 110 363 -245 245 496 3 callsubr
          1263 392 hintmask 0001000001100000
          735 1045 -87 callgsubr
          hintmask 1000000100000000
          216 -1108 -75 callgsubr
          hintmask 1000001000000000
          -15 callsubr
          hintmask 1000000100000000
          -21 callsubr
          hintmask 1000000010000000
          -79 callgsubr
          hintmask 0100100000010000
          1478 40 -66 callsubr
          hintmask 0010010000010000
          -44 callsubr
          hintmask 0100100000010000
          -15 callgsubr
        </CharString>
        <CharString name="onequarter">
          1052 -47 -21 37 17 callsubr
          211 -21 443 -20 546 3 callsubr
          1242 18 callgsubr
          hintmask 1101101011010000
          735 1045 -87 callgsubr
          216 -1108 -75 callgsubr
          hintmask 1101110011010000
          -15 callsubr
          hintmask 1101101011010000
          -21 callsubr
          hintmask 1101100111010000
          -79 callgsubr
          1617 473 rmoveto
          -7 -9 -1 -1 -6 hvcurveto
          25 -3 -9 1 -24 -5 -6 13 callsubr
          -45 hlineto
          -29 -4 27 29 7 0 11 1 7 hvcurveto
          12 vlineto
          4 1 6 3 vvcurveto
          5 vlineto
          -1 24 0 34 24 132 5 127 131 vvcurveto
          37 vlineto
          2 -1 -2 10 -23 5 rlineto
          -145 hlineto
          -74 -74 -1 -4 -72 hvcurveto
          -66 -2 -27 -4 -34 2 -24 -2 rlinecurve
          -9 -10 2 2 -53 -86 -42 -67 -39 -61 rlinecurve
          1 vlineto
          -10 -15 -12 -16 -9 -15 1 1 rcurveline
          hintmask 1011101011010000
          -70 callsubr
          hintmask 1101101011100000
          -85 callsubr
        </CharString>
        <CharString name="onesuperior">
          -510 -1 -21 1077 -20 hstem
          383 401 vstem
          787 420 -87 callgsubr
          endchar
        </CharString>
        <CharString name="ordfeminine">
          -695 924 79 232 17 205 56 hstem
          64 231 245 252 vstem
          540 1249 rmoveto
          2 -45 -67 1 -47 hhcurveto
          -186 -131 -50 -125 -108 89 -45 123 105 84 41 57 82 hvcurveto
          -55 vlineto
          -2 1 -1 -1 vvcurveto
          1 vlineto
          2 -22 rlineto
          34 31 -1 -1 33 hvcurveto
          6 hlineto
          -1 35 34 -1 35 hhcurveto
          18 hlineto
          5 0 -1 3 1 2 1 4 hhcurveto
          279 vlineto
          35 1 37 38 vvcurveto
          40 -8 49 -28 32 vhcurveto
          51 -69 -124 14 -74 hhcurveto
          -56 hlineto
          -101 -190 -13 -103 -44 hvcurveto
          72 69 2 72 hhcurveto
          37 20 48 21 45 hhcurveto
          95 21 -61 -85 hvcurveto
          -208 vmoveto
          -78 -13 -39 -22 -73 hhcurveto
          -61 -59 33 69 122 132 8 87 hvcurveto
          25 -18 hlineto
          -10 2 -12 -12 vvcurveto
          -1 -49 rlineto
          endchar
        </CharString>
        <CharString name="ordmasculine">
          -602 891 -21 689 -20 hstem
          -17 1215 rmoveto
          -270 36 211 -75 199 hhcurveto
          262 248 89 264 20 hvcurveto
          264 -16 -261 72 -256 hhcurveto
          -196 -208 -96 -238 -39 hvcurveto
          endchar
        </CharString>
        <CharString name="oslash">
          -85 -139 -21 195 -21 1423 -20 229 -20 hstem
          27 485 425 487 vstem
          248 -60 rmoveto
          0 5 callgsubr
          vvcurveto
          -19 -80 9 -3 6 -3 7 -2 10 -3 rlinecurve
          13 hlineto
          28 -7 rlineto
          40 49 120 97 51 hvcurveto
          -25 83 90 -18 82 hhcurveto
          167 258 50 150 127 hvcurveto
          42 53 rlineto
          101 128 33 176 170 vvcurveto
          198 -49 146 -97 122 vhcurveto
          -21 29 -32 43 -60 38 -45 32 rlinecurve
          38 86 89 136 41 vvcurveto
          0 -3 1 -3 2 vhcurveto
          -4 -7 2 1 hvcurveto
          -32 15 rlineto
          -9 4 -26 10 -1 vvcurveto
          -139 -257 -109 37 -101 9 -74 2 rlinecurve
          -2 -14 -22 -1 -19 hhcurveto
          -4 hlineto
          -22 -1 -24 -1 -23 -3 -16 callsubr
          -69 -12 -76 -16 -56 -24 -40 -17 rcurveline
          -58 -25 -48 -28 -40 -43 -24 -26 rcurveline
          -121 -141 -38 -190 -15 -153 rrcurveto
          -7 -4 -10 -5 vvcurveto
          3 -61 12 -134 28 -136 72 -114 rlinecurve
          1 vlineto
          50 -69 55 -54 62 -42 28 -19 rcurveline
          -61 -116 -9 -19 -11 -17 -5 -12 rlinecurve
          479 1158 rmoveto
          42 39 -15 -29 35 hvcurveto
          -308 -574 rlineto
          -18 108 -5 76 60 vvcurveto
          50 vlineto
          45 2 58 17 48 21 callgsubr
          97 27 42 76 128 hhcurveto
          187 -135 rmoveto
          19 -99 4 -60 -43 vvcurveto
          -38 vlineto
          -170 -9 -214 -218 -32 -40 13 15 -33 vhcurveto
          634 1249 rmoveto
          0 1 -1 1 -11 callsubr
          endchar
        </CharString>
        <CharString name="otilde">
          29 952 286 -6 6 7 callgsubr
          -67 callgsubr
          -32 callgsubr
          -72 callgsubr
          hintmask 10000000
          -92 callgsubr
          -50 callgsubr
          -43 callgsubr
          77 1152 -89 callgsubr
          -73 callgsubr
        </CharString>
        <CharString name="overscore">
          -862 1199 276 -259 -21 285 -9 callsubr
          576 1454 rmoveto
          -225 -225 12 14 -225 hvcurveto
          -12 -26 -6 -39 -36 -7 38 callgsubr
          -57 vlineto
          -6 36 callgsubr
          -64 vlineto
          21 -24 rlineto
          hintmask 10000000
          71 1 73 2 72 1 269 3 rcurveline
          3 51 59 1 41 hhcurveto
          26 hlineto
          8 9 1 8 hhcurveto
          136 2 rlineto
          12 callgsubr
          30 hlineto
          19 12 3 22 hvcurveto
          9 -1 9 10 vvcurveto
          26 vlineto
          -1 16 0 28 14 vvcurveto
          72 vlineto
          4 1 4 5 vvcurveto
          13 -1 11 -3 4 vhcurveto
          -60 -43 -4 -49 hhcurveto
          endchar
        </CharString>
        <CharString name="p">
          12 -297 -31 callgsubr
          1222 292 -292 334 hstemhm
          hintmask 10010000
          1497 614 rmoveto
          276 -122 349 -355 -148 -107 -50 -128 -140 vhcurveto
          -38 70 rlineto
          hintmask 10100000
          -13 23 -9 18 -12 25 rrcurveto
          -261 hlineto
          -89 -77 -1 -92 hhcurveto
          -757 vlineto
          -255 1 -244 -258 vvcurveto
          303 33 callgsubr
          104 95 1 105 hhcurveto
          306 35 callgsubr
          6 vvcurveto
          29 -3 31 -6 38 vhcurveto
          38 1 55 -57 88 -44 68 -14 rlinecurve
          14 -3 rlineto
          -11 22 82 -10 34 hhcurveto
          19 17 5 7 15 hvcurveto
          67 72 42 44 51 10 callgsubr
          159 146 39 150 19 210 rrcurveto
          2 10 2 20 14 vvcurveto
          -621 -22 rmoveto
          -17 vlineto
          -1 -2 0 -2 -1 vvcurveto
          -2 0 -23 callsubr
          vhcurveto
          -23 -5 -28 -12 vvcurveto
          -5 -63 -17 -160 -100 -9 rrcurveto
          -109 27 -10 209 72 vvcurveto
          135 21 191 103 69 22 -75 -54 10 vhcurveto
          3 -17 3 -17 0 -5 5 -22 rlinecurve
          6 -42 rlineto
          3 -24 1 -32 -25 vvcurveto
          endchar
        </CharString>
        <CharString name="paragraph">
          -217 -30 -21 1570 -20 hstem
          506 289 131 318 vstem
          503 -25 rmoveto
          -9 34 0 25 vhcurveto
          72 78 3 84 hhcurveto
          170 vlineto
          29 -1 30 29 vvcurveto
          90 vlineto
          280 0 270 7 281 vhcurveto
          63 4 44 4 48 vhcurveto
          46 -11 13 -1 12 -1 63 -5 rcurveline
          -201 -9 -229 -202 vvcurveto
          -2 -105 rlineto
          -3 -170 -4 -169 -163 vvcurveto
          -34 vlineto
          -6 1 -4 -5 vvcurveto
          -11 vlineto
          -13 8 14 -21 6 42 68 -3 64 hhcurveto
          76 33 1 19 6 hvcurveto
          1 -1 3 2 vvcurveto
          9 525 3 176 -1 181 2 180 rlinecurve
          4 362 rlineto
          5 1 6 5 5 -1 5 5 vvcurveto
          47 vlineto
          36 -15 6 -15 -91 -109 -2 -2 -100 vhcurveto
          -194 -4 rlineto
          -4 -4 -2 -3 hhcurveto
          -99 hlineto
          -7 -8 2 -8 hhcurveto
          -189 -358 -19 -334 -23 hvcurveto
          13 -291 264 -60 196 -8 rrcurveto
          -213 -3 -194 -218 vvcurveto
          293 -205 rmoveto
          -7 callgsubr
          2 vhcurveto
          1 38 callsubr
          vhcurveto
          endchar
        </CharString>
        <CharString name="parenleft">
          -708 -315 -21 1868 -20 hstem
          140 475 vstem
          792 -321 rmoveto
          5 5 4 4 4 6 -57 200 rcurveline
          -70 233 -54 259 -9 220 rrcurveto
          203 64 284 63 221 vhcurveto
          54 205 -2 6 -4 4 -4 3 rlinecurve
          -142 -116 -2 -7 -131 hvcurveto
          -5 -5 -2 -2 -4 hvcurveto
          -47 -11 -163 -594 -33 -298 12 -208 41 -219 67 -176 19 -50 rcurveline
          31 -101 56 -173 30 -17 rrcurveto
          109 108 -8 119 hhcurveto
          50 hlineto
          23 30 rmoveto
          1 -4 3 10 rlineto
          endchar
        </CharString>
        <CharString name="parenright">
          -705 -301 -21 1865 -43 callsubr
          232 478 hintmask 10110000
          658 263 rmoveto
          31 112 18 114 3 108 -1 267 -95 264 -89 245 -55 151 rcurveline
          -2 vlineto
          15 -10 -9 7 -9 hhcurveto
          hintmask 11010000
          -21 -22 -1 -20 hhcurveto
          -318 hlineto
          -8 -6 -6 -7 -6 -9 64 -226 rcurveline
          61 -216 66 -268 -217 vvcurveto
          -308 -90 -344 -66 -223 vhcurveto
          -5 -11 rlineto
          7 callsubr
          0 vvcurveto
          -2 -6 -3 -7 -3 -8 -2 -7 rlinecurve
          3 31 34 0 37 hhcurveto
          61 hlineto
          10 10 -1 10 hhcurveto
          32 hlineto
          54 62 3 3 53 hvcurveto
          42 41 135 434 27 102 rrcurveto
          -199 -597 rmoveto
          -1 -27 callsubr
          vvcurveto
          10 3 5 9 14 vvcurveto
          -10 -3 -7 -2 0 vvcurveto
          -10 -4 4 -18 rlineto
          4 15 hlineto
          -394 -8 rmoveto
          3 0 5 callsubr
          21 callgsubr
          1 -6 -3 0 -2 hhcurveto
          405 -17 rmoveto
          19 callsubr
          -27 callsubr
          hhcurveto
          endchar
        </CharString>
        <CharString name="partialdiff">
          -84 -70 299 473 244 612 -20 hstem
          50 455 vstem
          468 1292 rmoveto
          34 -5 18 -7 18 -6 -1 1 rcurveline
          40 -12 252 -73 41 -123 15 -207 rlinecurve
          -97 63 -105 17 -84 6 rrcurveto
          -260 -276 -150 -307 -13 hvcurveto
          -381 23 338 -178 315 hhcurveto
          188 202 39 161 136 10 callgsubr
          135 170 43 182 217 vvcurveto
          211 -35 212 -121 178 vhcurveto
          220 -150 -299 39 -200 hhcurveto
          -30 -23 0 -3 -31 hvcurveto
          166 -1326 rmoveto
          -153 -49 134 119 hvcurveto
          135 9 57 85 135 hhcurveto
          152 34 -120 -109 -122 -31 -122 -154 hvcurveto
          endchar
        </CharString>
        <CharString name="percent">
          613 -67 -21 26 202 401 199 4 212 391 206 11 -20 hstemhm
          18 320 249 320 377 320 253 323 hintmask 1111101111000000
          1285 457 rmoveto
          -1 -9 0 -9 -9 vvcurveto
          -221 71 -271 361 259 205 173 343 85 -8 67 -21 63 -11 callsubr
          -21 64 -53 95 -65 51 -16 callsubr
          54 -84 -115 23 -82 hhcurveto
          -121 -94 -42 -82 -99 hvcurveto
          -104 -86 -17 -156 -13 -133 rrcurveto
          -1264 599 rmoveto
          -2 -5 36 callgsubr
          -238 76 -260 354 347 112 257 280 224 -88 251 -342 -124 -111 -49 -74 -94 vhcurveto
          -89 -97 -26 -149 -11 -124 rrcurveto
          996 -692 rmoveto
          91 178 -40 callgsubr
          48 104 53 101 54 101 88 166 rcurveline
          -2 vlineto
          94 185 -40 callgsubr
          54 109 56 109 61 115 9 callgsubr
          19 40 rlineto
          hintmask 1111011111000000
          -7 -48 -102 0 -54 hhcurveto
          -15 -22 -12 -22 -13 -27 -22 callgsubr
          -179 -324 -220 -412 -230 -393 -214 -402 rlinecurve
          19 -51 rlineto
          1 3 -1 1 hhcurveto
          8 hlineto
          -1 29 37 -1 39 hhcurveto
          59 46 3 15 8 hvcurveto
          837 1644 rmoveto
          14 2 10 2 3 3 -2 -4 rcurveline
          3 5 -16 12 rlineto
          84 -846 rmoveto
          105 20 -124 -88 hvcurveto
          -8 -1 -8 -7 vvcurveto
          -100 vlineto
          -10 1 -10 -11 vvcurveto
          -29 vlineto
          -89 -17 -121 -103 -125 -5 167 101 -3 vhcurveto
          36 vlineto
          85 -1 210 124 5 vhcurveto
          hintmask 1111101111000000
          -1257 603 rmoveto
          107 10 -117 -99 hvcurveto
          -7 -1 -8 -7 vvcurveto
          -86 vlineto
          -7 38 callgsubr
          -41 vlineto
          -70 -7 -151 -107 -143 8 219 84 95 1 204 131 5 vhcurveto
          endchar
        </CharString>
        <CharString name="period">
          -765 -35 450 -429 -21 451 -20 21 -9 callsubr
          655 102 -2 callsubr
          -39 15 callsubr
          hintmask 01010000
          -121 -116 -6 callgsubr
          -3 -33 -33 vvcurveto
          -8 0 -7 1 -9 vhcurveto
          hintmask 10000000
          23 -36 rlineto
          172 157 9 9 -22 callsubr
        </CharString>
        <CharString name="perthousand">
          1116 -68 -21 25 163 -161 161 457 164 -56 167 455 169 9 -20 hstemhm
          36 229 229 232 403 230 233 234 156 231 228 231 hintmask 1100110111111000
          1129 379 rmoveto
          -1 -8 0 41 callsubr
          -222 91 -200 265 200 142 155 294 199 -53 247 -294 -254 -80 -209 -243 -16 vhcurveto
          -1094 625 rmoveto
          -2 -5 -2 -10 -1 -8 rrcurveto
          hintmask 1011010111111000
          -183 75 -242 270 119 125 74 117 64 vhcurveto
          31 77 12 106 83 vvcurveto
          213 -73 229 -269 -262 -83 -216 -232 -3 vhcurveto
          1944 -627 rmoveto
          5 callgsubr
          -3 vvcurveto
          -5 vlineto
          -199 84 -233 259 121 128 67 109 56 vhcurveto
          31 78 14 91 81 vvcurveto
          195 -51 274 -289 -224 -113 -178 -285 -13 vhcurveto
          -1340 -442 rmoveto
          70 131 121 230 110 206 118 215 rlinecurve
          12 22 137 255 120 214 121 229 rlinecurve
          hintmask 1101001111111000
          27 -7 -12 7 -16 -17 -17 -4 -21 hhcurveto
          -50 hlineto
          -17 -16 1 -14 hhcurveto
          -15 -11 0 -3 -2 hvcurveto
          -201 -366 -60 -109 -59 -110 -61 -110 rlinecurve
          -412 -746 -12 -22 -11 -11 -8 -21 rlinecurve
          5 -18 3 -9 7 -20 1 -5 rlinecurve
          -4 37 26 1 37 hhcurveto
          48 56 1 16 9 39 callgsubr
          844 741 rmoveto
          98 9 -126 -71 hvcurveto
          -21 vlineto
          -7 -1 27 callsubr
          -64 vlineto
          -16 2 -34 -19 vvcurveto
          -83 -14 -110 -95 -117 -4 146 102 -4 vhcurveto
          47 vlineto
          93 4 173 117 6 vhcurveto
          hintmask 1101010111111000
          -1092 620 rmoveto
          91 15 -94 -86 hvcurveto
          -44 -3 -49 -14 vvcurveto
          -65 vlineto
          -8 38 callgsubr
          -78 -11 -114 -98 -102 -14 114 102 -2 vhcurveto
          -1 60 rlineto
          -1 3 0 0 4 vvcurveto
          4 vlineto
          93 -5 186 130 vhcurveto
          1943 -621 rmoveto
          89 21 -95 -88 hvcurveto
          -24 vlineto
          -22 -2 -28 -23 vvcurveto
          -62 vlineto
          -10 1 -8 -9 vvcurveto
          -63 -2 -135 -104 -115 -5 124 95 -1 vhcurveto
          -1 61 rlineto
          1 -1 10 callsubr
          8 vlineto
          hintmask 1100110111111000
          8 93 -12 171 118 9 rrcurveto
          -1684 -738 rmoveto
          -5 vlineto
          1 5 rlineto
          -215 -15 rmoveto
          -8 callsubr
          vhcurveto
          8 callsubr
          15 vvcurveto
          endchar
        </CharString>
        <CharString name="pi">
          47 -19 -21 866 361 9 -20 hstemhm
          252 467 218 488 hintmask 10111000
          1587 837 rmoveto
          6 28 3 33 10 vvcurveto
          11 109 5 55 -2 52 12 56 rlinecurve
          -2 8 -7 7 -8 1 rrcurveto
          hintmask 11011000
          -7 -120 -129 -2 -121 -166 -165 4 -166 hhcurveto
          -93 -92 -4 -4 -92 hvcurveto
          -137 -338 -14 -88 hvcurveto
          2 -20 8 -82 21 -168 20 -7 rlinecurve
          12 61 62 6 66 hhcurveto
          18 -5 8 -15 -24 vvcurveto
          -1 -262 -51 -265 -67 -260 rrcurveto
          -6 147 152 -5 152 hhcurveto
          8 6 12 36 7 30 9 callgsubr
          6 24 61 233 29 274 12 248 rlinecurve
          224 -8 rlineto
          -5 -1 -18 -9 vvcurveto
          -20 vlineto
          -3 -170 -2 -161 -170 vvcurveto
          -86 4 -194 52 -13 vhcurveto
          -3 hlineto
          148 -4 95 -3 106 -2 95 -1 rlinecurve
          11 5 5 9 1 10 rrcurveto
          -22 114 -4 118 114 vvcurveto
          151 2 168 3 150 vhcurveto
          33 3 51 3 30 1 rrcurveto
          10 hlineto
          3 -1 1 4 hhcurveto
          -1452 -807 rmoveto
          -5 -1 -5 0 -4 vvcurveto
          -6 8 -11 25 -24 vhcurveto
          26 vlineto
          28 callgsubr
          1 1 vhcurveto
          -2 30 hlineto
          endchar
        </CharString>
        <CharString name="plus">
          -269 7 -21 386 302 404 -43 callsubr
          491 302 hintmask 11011000
          1135 390 rmoveto
          17 14 0 1 17 hvcurveto
          4 hlineto
          1 8 0 16 15 vvcurveto
          35 vlineto
          13 1 13 12 vvcurveto
          122 vlineto
          29 0 18 -9 4 vhcurveto
          -140 -127 -2 -120 hhcurveto
          135 3 125 133 vvcurveto
          9 -8 -37 3 -33 -27 -18 -2 -15 hhcurveto
          -109 hlineto
          hintmask 11101000
          -7 -17 callgsubr
          -37 -2 -11 -30 hvcurveto
          -33 vlineto
          -88 -3 -79 -88 vvcurveto
          -66 vlineto
          -1 -112 -129 -1 -113 hhcurveto
          -35 -2 -12 -41 hvcurveto
          -64 vlineto
          -11 1 -11 -11 vvcurveto
          -69 vlineto
          -5 -1 2 callsubr
          -34 3 -34 12 -7 vhcurveto
          37 hlineto
          15 14 -1 10 hhcurveto
          136 21 callsubr
          1 8 8 7 -4 callgsubr
          102 hlineto
          6 17 1 5 hhcurveto
          5 -386 rlineto
          1 51 1 25 vhcurveto
          50 hlineto
          31 31 -1 25 hhcurveto
          44 32 5 28 hvcurveto
          50 vlineto
          99 0 122 -4 100 vhcurveto
          21 33 -1 24 hhcurveto
          endchar
        </CharString>
        <CharString name="plusminus">
          -274 -25 311 -300 -21 711 290 235 -43 callsubr
          484 307 hintmask 10101100
          187 666 rmoveto
          68 67 3 63 hhcurveto
          30 50 -2 -2 29 hvcurveto
          1 -61 3 -89 5 -64 rrcurveto
          12 hlineto
          74 68 3 80 32 callsubr
          39 hlineto
          -1 0 14 11 hvcurveto
          25 vlineto
          23 -1 23 -1 21 vhcurveto
          1 106 rlineto
          391 hlineto
          5 1 8 10 hvcurveto
          3 -1 -31 callsubr
          3 236 rlineto
          14 -3 11 -4 2 vhcurveto
          -150 hlineto
          -18 -20 1 -18 hhcurveto
          -180 hlineto
          3 213 rlineto
          4 1 2 5 vvcurveto
          8 -4 -18 3 -17 hhcurveto
          hintmask 10110100
          -4 -4 13 callsubr
          -206 hlineto
          hintmask 10101100
          -8 -7 1 -7 hhcurveto
          -39 3 -16 -72 hvcurveto
          -138 vlineto
          -177 -3 rlineto
          -8 -10 -1 -8 hhcurveto
          -24 hlineto
          -36 -124 2 -17 hvcurveto
          -169 vlineto
          -10 1 -9 -9 vvcurveto
          -81 vlineto
          -11 24 -2 19 vhcurveto
          363 -220 rmoveto
          5 -5 1 3 vvcurveto
          -21 -1 rlineto
          -11 3 -4 5 5 6 3 4 7 vhcurveto
          3 -173 rmoveto
          -118 -121 3 10 -128 hvcurveto
          -24 3 rlineto
          -20 -15 -4 -31 -31 -17 2 -19 -13 vvcurveto
          -14 vlineto
          -53 -3 -47 -55 vvcurveto
          hintmask 01101100
          21 -29 rlineto
          1 15 23 0 14 hhcurveto
          61 hlineto
          46 42 2 47 hhcurveto
          40 hlineto
          18 17 0 18 hhcurveto
          111 -1 108 4 111 1 364 4 rcurveline
          hintmask 10101100
          3 3 callgsubr
          hhcurveto
          13 13 2 5 3 hvcurveto
          171 vlineto
          9 1 9 10 vvcurveto
          40 -1 42 -3 3 vhcurveto
          9 -115 -112 0 -111 -28 -28 -1 -28 hhcurveto
          -85 hlineto
          -49 -75 -1 -44 hhcurveto
          endchar
        </CharString>
        <CharString name="product">
          279 -228 -21 1394 398 7 -20 hstemhm
          271 467 385 465 hintmask 10111000
          1845 1161 rmoveto
          -4 377 rlineto
          7 -5 4 -10 1 vhcurveto
          hintmask 11011000
          -1792 -7 rlineto
          -7 -2 -7 -3 -5 -25 1 -23 -23 vvcurveto
          -68 vlineto
          -64 3 -104 -75 vvcurveto
          -2 1 0 2 -1 vhcurveto
          243 -3 rlineto
          2 -32 2 -53 -33 -282 -3 -282 -299 vvcurveto
          -132 1 -128 4 -125 vhcurveto
          -10 0 -4 2 -2 vhcurveto
          460 12 -9 274 11 622 -21 464 rlinecurve
          399 15 rlineto
          4 -220 1 -229 -218 vvcurveto
          -249 -2 -225 -2 -250 vhcurveto
          -1 34 callsubr
          hhcurveto
          452 -6 7 4 4 5 2 8 rlinecurve
          665 vlineto
          223 1 230 222 vvcurveto
          23 68 52 4 52 hhcurveto
          16 hlineto
          5 -17 callsubr
          25 hlineto
          -1538 -1373 rmoveto
          -2 1 -1 0 1 vvcurveto
          -5 -20 hlineto
          6 -1 rlineto
          468 26 rmoveto
          0 -2 3 -7 4 vhcurveto
          -2 1 -1 0 vhcurveto
          377 -13 rmoveto
          3 -1 rlineto
          endchar
        </CharString>
        <CharString name="q">
          16 -298 -21 1559 -20 hstem
          1495 559 rmoveto
          -1 92 -1 116 91 vvcurveto
          -1 339 rlineto
          -56 -372 -2 12 -82 hvcurveto
          -2 -5 -9 -14 -1 -3 -10 -21 rcurveline
          -14 -30 -17 -28 -17 -45 -27 17 rcurveline
          -12 11 -36 40 -38 38 -49 23 rlinecurve
          -26 27 -128 20 -32 3 rrcurveto
          -147 -134 -56 -122 -105 hvcurveto
          1 1 rlineto
          -99 -128 -46 -185 -157 vvcurveto
          -3 0 -2 5 -9 vhcurveto
          -4 -14 -2 -14 -9 vvcurveto
          -11 2 -11 5 -9 vhcurveto
          -265 191 -278 273 94 144 39 62 62 vhcurveto
          17 14 18 14 50 23 1 -439 rcurveline
          608 hlineto
          295 -1 288 -2 295 vhcurveto
          -584 33 rmoveto
          -18 -2 -15 -12 vvcurveto
          1 -14 rlineto
          -39 -17 -51 -32 vvcurveto
          -12 -58 -17 -76 -84 -6 rrcurveto
          -106 29 -13 164 106 vvcurveto
          47 vlineto
          68 12 12 8 59 vhcurveto
          13 64 15 74 80 12 rrcurveto
          106 -23 16 -182 -109 vvcurveto
          endchar
        </CharString>
</ttFont>
